<svg xmlns="http://www.w3.org/2000/svg" xmlns:xlink="http://www.w3.org/1999/xlink" width="640" zoomAndPan="magnify" viewBox="0 0 480 149.999998" height="200" preserveAspectRatio="xMidYMid meet" version="1.0"><defs><g/><clipPath id="e7774df787"><path d="M 4.207031 86.488281 L 334.207031 86.488281 L 334.207031 90.988281 L 4.207031 90.988281 Z M 4.207031 86.488281 " clip-rule="nonzero"/></clipPath><clipPath id="e262d7a070"><rect x="0" width="303" y="0" height="51"/></clipPath></defs><g clip-path="url(#e7774df787)"><path fill="#f27d00" d="M 4.460938 86.75 L 334.21875 86.75 L 334.21875 90.496094 L 4.460938 90.496094 Z M 4.460938 86.75 " fill-opacity="1" fill-rule="nonzero"/><path fill="#f27d00" d="M 334.476562 90.753906 L 4.207031 90.753906 L 4.207031 86.492188 L 334.476562 86.492188 Z M 4.714844 90.242188 L 333.964844 90.242188 L 333.964844 87.003906 L 4.714844 87.003906 Z M 4.714844 90.242188 " fill-opacity="1" fill-rule="nonzero"/></g><g fill="#000000" fill-opacity="1"><g transform="translate(4.216979, 76.880088)"><g><path d="M 4.734375 0 L 4.734375 -32.28125 L 6.453125 -32.28125 L 6.453125 -23.15625 C 9.628906 -23.15625 12.640625 -22.539062 15.484375 -21.3125 C 18.335938 -20.09375 20.832031 -18.390625 22.96875 -16.203125 C 25.101562 -14.023438 26.738281 -11.53125 27.875 -8.71875 L 27.875 -32.28125 L 29.59375 -32.28125 L 29.59375 0 L 27.875 0 C 27.875 -3.863281 26.914062 -7.441406 25 -10.734375 C 23.082031 -14.035156 20.476562 -16.644531 17.1875 -18.5625 C 13.894531 -20.476562 10.316406 -21.4375 6.453125 -21.4375 L 6.453125 0 Z M 4.734375 0 "/></g></g></g><g fill="#000000" fill-opacity="1"><g transform="translate(38.548932, 76.880088)"><g><path d="M 27.65625 -32.28125 L 27.65625 -30.578125 L 18 -30.578125 L 18 -1.71875 L 27.65625 -1.71875 L 27.65625 0 L 6.734375 0 L 6.734375 -1.71875 L 16.328125 -1.71875 L 16.328125 -30.578125 L 6.734375 -30.578125 L 6.734375 -32.28125 Z M 27.65625 -32.28125 "/></g></g></g><g fill="#000000" fill-opacity="1"><g transform="translate(72.880885, 76.880088)"><g><path d="M 17.859375 -15.453125 C 15.234375 -15.972656 13.09375 -16.550781 11.4375 -17.1875 C 9.78125 -17.820312 8.476562 -18.6875 7.53125 -19.78125 C 6.59375 -20.882812 6.125 -22.300781 6.125 -24.03125 C 6.125 -25.820312 6.59375 -27.394531 7.53125 -28.75 C 8.476562 -30.113281 9.8125 -31.164062 11.53125 -31.90625 C 13.25 -32.65625 15.234375 -33.03125 17.484375 -33.03125 C 19.648438 -33.03125 21.640625 -32.570312 23.453125 -31.65625 C 25.265625 -30.75 26.691406 -29.472656 27.734375 -27.828125 C 28.785156 -26.191406 29.3125 -24.320312 29.3125 -22.21875 L 27.609375 -22.21875 C 27.609375 -24.039062 27.15625 -25.648438 26.25 -27.046875 C 25.351562 -28.441406 24.128906 -29.515625 22.578125 -30.265625 C 21.035156 -31.023438 19.320312 -31.40625 17.4375 -31.40625 C 15.769531 -31.40625 14.207031 -31.140625 12.75 -30.609375 C 11.300781 -30.085938 10.117188 -29.285156 9.203125 -28.203125 C 8.296875 -27.117188 7.84375 -25.757812 7.84375 -24.125 C 7.84375 -22.632812 8.273438 -21.445312 9.140625 -20.5625 C 10.003906 -19.6875 11.128906 -19.015625 12.515625 -18.546875 C 13.910156 -18.085938 15.863281 -17.597656 18.375 -17.078125 C 20.90625 -16.546875 22.875 -16.039062 24.28125 -15.5625 C 25.6875 -15.082031 26.875 -14.285156 27.84375 -13.171875 C 28.820312 -12.054688 29.3125 -10.492188 29.3125 -8.484375 C 29.3125 -6.472656 28.78125 -4.78125 27.71875 -3.40625 C 26.65625 -2.03125 25.238281 -1 23.46875 -0.3125 C 21.707031 0.363281 19.789062 0.703125 17.71875 0.703125 C 15.15625 0.703125 12.898438 0.222656 10.953125 -0.734375 C 9.003906 -1.703125 7.507812 -3.054688 6.46875 -4.796875 C 5.4375 -6.546875 4.921875 -8.550781 4.921875 -10.8125 L 6.640625 -10.8125 C 6.640625 -8.832031 7.078125 -7.097656 7.953125 -5.609375 C 8.835938 -4.128906 10.113281 -2.976562 11.78125 -2.15625 C 13.445312 -1.332031 15.425781 -0.921875 17.71875 -0.921875 C 20.5625 -0.921875 22.921875 -1.601562 24.796875 -2.96875 C 26.671875 -4.332031 27.609375 -6.1875 27.609375 -8.53125 C 27.609375 -10.144531 27.203125 -11.382812 26.390625 -12.25 C 25.585938 -13.113281 24.578125 -13.738281 23.359375 -14.125 C 22.140625 -14.507812 20.304688 -14.953125 17.859375 -15.453125 Z M 17.859375 -15.453125 "/></g></g></g><g fill="#000000" fill-opacity="1"><g transform="translate(107.212838, 76.880088)"><g><path d="M 30.203125 -32.28125 L 30.203125 -30.578125 L 18 -30.578125 L 18 0 L 16.328125 0 L 16.328125 -30.578125 L 4.125 -30.578125 L 4.125 -32.28125 Z M 30.203125 -32.28125 "/></g></g></g><g fill="#000000" fill-opacity="1"><g transform="translate(141.544791, 76.880088)"><g><path d="M 17.171875 -32.984375 C 19.578125 -32.984375 21.800781 -32.382812 23.84375 -31.1875 C 25.882812 -30 27.5 -28.382812 28.6875 -26.34375 C 29.882812 -24.300781 30.484375 -22.078125 30.484375 -19.671875 L 30.484375 -12.625 C 30.484375 -10.207031 29.882812 -7.976562 28.6875 -5.9375 C 27.5 -3.894531 25.882812 -2.273438 23.84375 -1.078125 C 21.800781 0.109375 19.578125 0.703125 17.171875 0.703125 C 14.753906 0.703125 12.523438 0.109375 10.484375 -1.078125 C 8.441406 -2.273438 6.820312 -3.894531 5.625 -5.9375 C 4.4375 -7.976562 3.84375 -10.207031 3.84375 -12.625 L 3.84375 -19.671875 C 3.84375 -22.078125 4.4375 -24.300781 5.625 -26.34375 C 6.820312 -28.382812 8.441406 -30 10.484375 -31.1875 C 12.523438 -32.382812 14.753906 -32.984375 17.171875 -32.984375 Z M 5.5625 -12.625 C 5.5625 -10.519531 6.078125 -8.578125 7.109375 -6.796875 C 8.148438 -5.015625 9.5625 -3.601562 11.34375 -2.5625 C 13.125 -1.53125 15.066406 -1.015625 17.171875 -1.015625 C 19.265625 -1.015625 21.203125 -1.53125 22.984375 -2.5625 C 24.765625 -3.601562 26.171875 -5.015625 27.203125 -6.796875 C 28.242188 -8.578125 28.765625 -10.519531 28.765625 -12.625 L 28.765625 -19.671875 C 28.765625 -21.773438 28.242188 -23.710938 27.203125 -25.484375 C 26.171875 -27.265625 24.765625 -28.671875 22.984375 -29.703125 C 21.203125 -30.742188 19.265625 -31.265625 17.171875 -31.265625 C 15.066406 -31.265625 13.125 -30.742188 11.34375 -29.703125 C 9.5625 -28.671875 8.148438 -27.265625 7.109375 -25.484375 C 6.078125 -23.710938 5.5625 -21.773438 5.5625 -19.671875 Z M 5.5625 -12.625 "/></g></g></g><g fill="#000000" fill-opacity="1"><g transform="translate(175.876744, 76.880088)"><g><path d="M 24.171875 -31.21875 C 26.023438 -30.351562 27.484375 -29.066406 28.546875 -27.359375 C 29.617188 -25.660156 30.15625 -23.773438 30.15625 -21.703125 C 30.15625 -19.296875 29.421875 -17.140625 27.953125 -15.234375 C 26.484375 -13.335938 24.601562 -12.078125 22.3125 -11.453125 L 30.53125 0 L 28.484375 0 L 20.546875 -11.140625 L 19.0625 -11.09375 L 7.421875 -11.09375 L 7.421875 0 L 5.703125 0 L 5.703125 -32.28125 L 18 -32.28125 C 19.363281 -32.28125 20.53125 -32.195312 21.5 -32.03125 C 22.476562 -31.863281 23.367188 -31.59375 24.171875 -31.21875 Z M 19.53125 -12.796875 C 21.132812 -12.796875 22.617188 -13.195312 23.984375 -14 C 25.347656 -14.8125 26.429688 -15.894531 27.234375 -17.25 C 28.035156 -18.613281 28.4375 -20.097656 28.4375 -21.703125 C 28.4375 -23.503906 27.960938 -25.128906 27.015625 -26.578125 C 26.078125 -28.035156 24.773438 -29.117188 23.109375 -29.828125 C 21.898438 -30.328125 20.195312 -30.578125 18 -30.578125 L 7.421875 -30.578125 L 7.421875 -12.796875 Z M 19.53125 -12.796875 "/></g></g></g><g fill="#000000" fill-opacity="1"><g transform="translate(210.208697, 76.880088)"><g><path d="M 5.75 -32.28125 L 17.203125 -15.03125 L 28.578125 -32.28125 L 30.625 -32.28125 L 18.046875 -13.21875 L 18.046875 0 L 16.328125 0 L 16.328125 -13.21875 L 3.71875 -32.28125 Z M 5.75 -32.28125 "/></g></g></g><g transform="matrix(1, 0, 0, 1, 4, 83)"><g clip-path="url(#e262d7a070)"><g fill="#000000" fill-opacity="1"><g transform="translate(0.20526, 36.660265)"><g><path d="M 16 -19.59375 C 15.15625 -20.039062 14.242188 -20.421875 13.265625 -20.734375 C 12.285156 -21.046875 11.34375 -21.203125 10.4375 -21.203125 C 9.164062 -21.203125 8.160156 -20.914062 7.421875 -20.34375 C 6.691406 -19.78125 6.328125 -19 6.328125 -18 C 6.328125 -17.3125 6.570312 -16.710938 7.0625 -16.203125 C 7.550781 -15.691406 8.179688 -15.242188 8.953125 -14.859375 C 9.734375 -14.484375 10.5625 -14.128906 11.4375 -13.796875 C 12.4375 -13.441406 13.398438 -12.988281 14.328125 -12.4375 C 15.265625 -11.894531 16.03125 -11.171875 16.625 -10.265625 C 17.226562 -9.359375 17.53125 -8.132812 17.53125 -6.59375 C 17.53125 -5.332031 17.207031 -4.175781 16.5625 -3.125 C 15.914062 -2.082031 15 -1.253906 13.8125 -0.640625 C 12.625 -0.0351562 11.195312 0.265625 9.53125 0.265625 C 7.976562 0.265625 6.503906 0.015625 5.109375 -0.484375 C 3.722656 -0.984375 2.53125 -1.578125 1.53125 -2.265625 L 3.09375 -5.03125 C 3.875 -4.425781 4.832031 -3.898438 5.96875 -3.453125 C 7.101562 -3.015625 8.179688 -2.796875 9.203125 -2.796875 C 9.953125 -2.796875 10.679688 -2.921875 11.390625 -3.171875 C 12.109375 -3.429688 12.703125 -3.835938 13.171875 -4.390625 C 13.648438 -4.953125 13.890625 -5.6875 13.890625 -6.59375 C 13.890625 -7.351562 13.675781 -8 13.25 -8.53125 C 12.832031 -9.0625 12.285156 -9.515625 11.609375 -9.890625 C 10.929688 -10.273438 10.207031 -10.609375 9.4375 -10.890625 C 8.675781 -11.179688 7.898438 -11.5 7.109375 -11.84375 C 6.328125 -12.1875 5.609375 -12.613281 4.953125 -13.125 C 4.296875 -13.632812 3.757812 -14.257812 3.34375 -15 C 2.9375 -15.75 2.734375 -16.660156 2.734375 -17.734375 C 2.734375 -19.046875 3.035156 -20.175781 3.640625 -21.125 C 4.253906 -22.082031 5.101562 -22.835938 6.1875 -23.390625 C 7.28125 -23.953125 8.53125 -24.253906 9.9375 -24.296875 C 11.53125 -24.296875 12.925781 -24.097656 14.125 -23.703125 C 15.332031 -23.316406 16.390625 -22.847656 17.296875 -22.296875 Z M 16 -19.59375 "/></g></g></g><g fill="#000000" fill-opacity="1"><g transform="translate(19.602465, 36.660265)"><g><path d="M 3.96875 -20.03125 L 7.359375 -20.03125 L 7.359375 -13.890625 L 11.09375 -13.890625 L 11.09375 -11.265625 L 7.359375 -11.265625 L 7.359375 0 L 3.96875 0 L 3.96875 -11.265625 L 1.5 -11.265625 L 1.5 -13.890625 L 3.96875 -13.890625 Z M 3.96875 -20.03125 "/></g></g></g><g fill="#000000" fill-opacity="1"><g transform="translate(31.767377, 36.660265)"><g><path d="M 1.4375 -7.09375 C 1.4375 -8.5 1.769531 -9.757812 2.4375 -10.875 C 3.101562 -12 4.023438 -12.882812 5.203125 -13.53125 C 6.378906 -14.175781 7.722656 -14.5 9.234375 -14.5 C 10.765625 -14.5 12.101562 -14.175781 13.25 -13.53125 C 14.394531 -12.882812 15.28125 -12 15.90625 -10.875 C 16.539062 -9.757812 16.859375 -8.5 16.859375 -7.09375 C 16.859375 -5.695312 16.535156 -4.4375 15.890625 -3.3125 C 15.253906 -2.195312 14.363281 -1.3125 13.21875 -0.65625 C 12.070312 0 10.722656 0.328125 9.171875 0.328125 C 7.703125 0.328125 6.382812 0.03125 5.21875 -0.5625 C 4.050781 -1.164062 3.128906 -2.023438 2.453125 -3.140625 C 1.773438 -4.265625 1.4375 -5.582031 1.4375 -7.09375 Z M 4.828125 -7.0625 C 4.828125 -6.195312 5.015625 -5.414062 5.390625 -4.71875 C 5.773438 -4.019531 6.296875 -3.460938 6.953125 -3.046875 C 7.609375 -2.640625 8.332031 -2.4375 9.125 -2.4375 C 10.394531 -2.4375 11.4375 -2.878906 12.25 -3.765625 C 13.0625 -4.648438 13.46875 -5.75 13.46875 -7.0625 C 13.46875 -8.375 13.0625 -9.476562 12.25 -10.375 C 11.4375 -11.28125 10.394531 -11.734375 9.125 -11.734375 C 8.3125 -11.734375 7.582031 -11.519531 6.9375 -11.09375 C 6.289062 -10.675781 5.773438 -10.109375 5.390625 -9.390625 C 5.015625 -8.679688 4.828125 -7.90625 4.828125 -7.0625 Z M 4.828125 -7.0625 "/></g></g></g><g fill="#000000" fill-opacity="1"><g transform="translate(50.064742, 36.660265)"><g><path d="M 5.625 -13.9375 L 5.96875 -9.9375 L 5.828125 -10.46875 C 6.210938 -11.3125 6.742188 -12.03125 7.421875 -12.625 C 8.097656 -13.226562 8.804688 -13.691406 9.546875 -14.015625 C 10.296875 -14.335938 10.925781 -14.5 11.4375 -14.5 L 11.265625 -11.171875 C 10.222656 -11.234375 9.304688 -11.03125 8.515625 -10.5625 C 7.722656 -10.09375 7.101562 -9.46875 6.65625 -8.6875 C 6.21875 -7.914062 6 -7.085938 6 -6.203125 L 6 0 L 2.640625 0 L 2.640625 -13.9375 Z M 5.625 -13.9375 "/></g></g></g><g fill="#000000" fill-opacity="1"><g transform="translate(62.762919, 36.660265)"><g><path d="M 2.640625 -13.9375 L 6 -13.9375 L 6 0 L 2.640625 0 Z M 2.46875 -18.9375 C 2.46875 -19.445312 2.671875 -19.878906 3.078125 -20.234375 C 3.492188 -20.585938 3.945312 -20.765625 4.4375 -20.765625 C 4.925781 -20.765625 5.367188 -20.585938 5.765625 -20.234375 C 6.160156 -19.878906 6.359375 -19.445312 6.359375 -18.9375 C 6.359375 -18.382812 6.160156 -17.941406 5.765625 -17.609375 C 5.367188 -17.273438 4.925781 -17.109375 4.4375 -17.109375 C 3.945312 -17.109375 3.492188 -17.273438 3.078125 -17.609375 C 2.671875 -17.941406 2.46875 -18.382812 2.46875 -18.9375 Z M 2.46875 -18.9375 "/></g></g></g><g fill="#000000" fill-opacity="1"><g transform="translate(71.395, 36.660265)"><g><path d="M 9.171875 0.328125 C 7.566406 0.328125 6.1875 0.015625 5.03125 -0.609375 C 3.875 -1.242188 2.984375 -2.125 2.359375 -3.25 C 1.742188 -4.375 1.4375 -5.644531 1.4375 -7.0625 C 1.4375 -8.4375 1.785156 -9.6875 2.484375 -10.8125 C 3.179688 -11.9375 4.117188 -12.832031 5.296875 -13.5 C 6.472656 -14.164062 7.785156 -14.5 9.234375 -14.5 C 11.097656 -14.5 12.644531 -13.957031 13.875 -12.875 C 15.113281 -11.800781 15.941406 -10.285156 16.359375 -8.328125 L 5 -4.40625 L 4.203125 -6.328125 L 13.328125 -9.671875 L 12.625 -9.203125 C 12.363281 -9.910156 11.941406 -10.523438 11.359375 -11.046875 C 10.785156 -11.566406 10 -11.828125 9 -11.828125 C 7.75 -11.828125 6.726562 -11.398438 5.9375 -10.546875 C 5.15625 -9.691406 4.765625 -8.597656 4.765625 -7.265625 C 4.765625 -5.835938 5.1875 -4.691406 6.03125 -3.828125 C 6.875 -2.960938 7.941406 -2.53125 9.234375 -2.53125 C 9.828125 -2.53125 10.398438 -2.632812 10.953125 -2.84375 C 11.515625 -3.0625 12.039062 -3.347656 12.53125 -3.703125 L 14.0625 -1.203125 C 13.351562 -0.734375 12.570312 -0.359375 11.71875 -0.078125 C 10.863281 0.191406 10.015625 0.328125 9.171875 0.328125 Z M 9.171875 0.328125 "/></g></g></g><g fill="#000000" fill-opacity="1"><g transform="translate(88.892477, 36.660265)"><g><path d="M 6.671875 0.296875 C 5.640625 0.296875 4.65625 0.113281 3.71875 -0.25 C 2.789062 -0.613281 2.003906 -1.140625 1.359375 -1.828125 L 2.796875 -3.765625 C 3.378906 -3.210938 3.984375 -2.789062 4.609375 -2.5 C 5.242188 -2.207031 5.84375 -2.0625 6.40625 -2.0625 C 7.039062 -2.0625 7.601562 -2.1875 8.09375 -2.4375 C 8.582031 -2.695312 8.828125 -3.128906 8.828125 -3.734375 C 8.828125 -4.222656 8.664062 -4.597656 8.34375 -4.859375 C 8.019531 -5.128906 7.613281 -5.351562 7.125 -5.53125 C 6.644531 -5.707031 6.125 -5.875 5.5625 -6.03125 C 4.40625 -6.40625 3.519531 -6.941406 2.90625 -7.640625 C 2.300781 -8.347656 2 -9.175781 2 -10.125 C 2 -10.863281 2.179688 -11.5625 2.546875 -12.21875 C 2.910156 -12.875 3.46875 -13.40625 4.21875 -13.8125 C 4.976562 -14.226562 5.914062 -14.4375 7.03125 -14.4375 C 8.007812 -14.4375 8.882812 -14.316406 9.65625 -14.078125 C 10.4375 -13.847656 11.160156 -13.453125 11.828125 -12.890625 L 10.53125 -10.859375 C 10.132812 -11.265625 9.660156 -11.570312 9.109375 -11.78125 C 8.566406 -11.988281 8.070312 -12.101562 7.625 -12.125 C 7.03125 -12.125 6.507812 -11.984375 6.0625 -11.703125 C 5.625 -11.429688 5.40625 -11.0625 5.40625 -10.59375 C 5.40625 -10.125 5.554688 -9.75 5.859375 -9.46875 C 6.171875 -9.195312 6.578125 -8.976562 7.078125 -8.8125 C 7.578125 -8.644531 8.082031 -8.472656 8.59375 -8.296875 C 9.613281 -7.960938 10.460938 -7.503906 11.140625 -6.921875 C 11.828125 -6.347656 12.171875 -5.507812 12.171875 -4.40625 C 12.171875 -3.5625 11.96875 -2.78125 11.5625 -2.0625 C 11.164062 -1.351562 10.5625 -0.78125 9.75 -0.34375 C 8.9375 0.0820312 7.910156 0.296875 6.671875 0.296875 Z M 6.671875 0.296875 "/></g></g></g><g fill="#000000" fill-opacity="1"><g transform="translate(102.690492, 36.660265)"><g/></g></g><g fill="#000000" fill-opacity="1"><g transform="translate(107.023196, 36.660265)"><g><path d="M 3.796875 0 L 3.796875 -10.9375 L 1.4375 -10.9375 L 1.4375 -13.9375 L 3.796875 -13.9375 L 3.796875 -19.625 C 3.796875 -21.601562 4.265625 -23.140625 5.203125 -24.234375 C 6.148438 -25.335938 7.535156 -25.890625 9.359375 -25.890625 C 9.847656 -25.890625 10.382812 -25.816406 10.96875 -25.671875 C 11.5625 -25.535156 12.09375 -25.3125 12.5625 -25 L 11.125 -22.5625 C 10.925781 -22.78125 10.695312 -22.925781 10.4375 -23 C 10.1875 -23.082031 9.941406 -23.125 9.703125 -23.125 C 8.921875 -23.125 8.300781 -22.851562 7.84375 -22.3125 C 7.394531 -21.769531 7.171875 -20.851562 7.171875 -19.5625 L 7.171875 -13.9375 L 11.5625 -13.9375 L 11.5625 -10.9375 L 7.171875 -10.9375 L 7.171875 0 Z M 3.796875 0 "/></g></g></g><g fill="#000000" fill-opacity="1"><g transform="translate(119.954671, 36.660265)"><g><path d="M 5.625 -13.9375 L 5.96875 -9.9375 L 5.828125 -10.46875 C 6.210938 -11.3125 6.742188 -12.03125 7.421875 -12.625 C 8.097656 -13.226562 8.804688 -13.691406 9.546875 -14.015625 C 10.296875 -14.335938 10.925781 -14.5 11.4375 -14.5 L 11.265625 -11.171875 C 10.222656 -11.234375 9.304688 -11.03125 8.515625 -10.5625 C 7.722656 -10.09375 7.101562 -9.46875 6.65625 -8.6875 C 6.21875 -7.914062 6 -7.085938 6 -6.203125 L 6 0 L 2.640625 0 L 2.640625 -13.9375 Z M 5.625 -13.9375 "/></g></g></g><g fill="#000000" fill-opacity="1"><g transform="translate(132.652847, 36.660265)"><g><path d="M 1.4375 -7.09375 C 1.4375 -8.5 1.769531 -9.757812 2.4375 -10.875 C 3.101562 -12 4.023438 -12.882812 5.203125 -13.53125 C 6.378906 -14.175781 7.722656 -14.5 9.234375 -14.5 C 10.765625 -14.5 12.101562 -14.175781 13.25 -13.53125 C 14.394531 -12.882812 15.28125 -12 15.90625 -10.875 C 16.539062 -9.757812 16.859375 -8.5 16.859375 -7.09375 C 16.859375 -5.695312 16.535156 -4.4375 15.890625 -3.3125 C 15.253906 -2.195312 14.363281 -1.3125 13.21875 -0.65625 C 12.070312 0 10.722656 0.328125 9.171875 0.328125 C 7.703125 0.328125 6.382812 0.03125 5.21875 -0.5625 C 4.050781 -1.164062 3.128906 -2.023438 2.453125 -3.140625 C 1.773438 -4.265625 1.4375 -5.582031 1.4375 -7.09375 Z M 4.828125 -7.0625 C 4.828125 -6.195312 5.015625 -5.414062 5.390625 -4.71875 C 5.773438 -4.019531 6.296875 -3.460938 6.953125 -3.046875 C 7.609375 -2.640625 8.332031 -2.4375 9.125 -2.4375 C 10.394531 -2.4375 11.4375 -2.878906 12.25 -3.765625 C 13.0625 -4.648438 13.46875 -5.75 13.46875 -7.0625 C 13.46875 -8.375 13.0625 -9.476562 12.25 -10.375 C 11.4375 -11.28125 10.394531 -11.734375 9.125 -11.734375 C 8.3125 -11.734375 7.582031 -11.519531 6.9375 -11.09375 C 6.289062 -10.675781 5.773438 -10.109375 5.390625 -9.390625 C 5.015625 -8.679688 4.828125 -7.90625 4.828125 -7.0625 Z M 4.828125 -7.0625 "/></g></g></g><g fill="#000000" fill-opacity="1"><g transform="translate(150.950212, 36.660265)"><g><path d="M 5.671875 -13.9375 L 5.96875 -10.890625 L 5.796875 -11.171875 C 6.304688 -12.210938 7.035156 -13.023438 7.984375 -13.609375 C 8.929688 -14.203125 10.015625 -14.5 11.234375 -14.5 C 12.390625 -14.5 13.351562 -14.226562 14.125 -13.6875 C 14.90625 -13.15625 15.382812 -12.40625 15.5625 -11.4375 L 15.390625 -11.296875 C 15.953125 -12.296875 16.695312 -13.078125 17.625 -13.640625 C 18.5625 -14.210938 19.539062 -14.5 20.5625 -14.5 C 21.9375 -14.5 23.023438 -14.113281 23.828125 -13.34375 C 24.628906 -12.582031 25.039062 -11.578125 25.0625 -10.328125 L 25.0625 0 L 21.734375 0 L 21.734375 -9.0625 C 21.710938 -9.769531 21.550781 -10.359375 21.25 -10.828125 C 20.945312 -11.296875 20.40625 -11.550781 19.625 -11.59375 C 18.832031 -11.59375 18.128906 -11.347656 17.515625 -10.859375 C 16.898438 -10.367188 16.421875 -9.734375 16.078125 -8.953125 C 15.734375 -8.179688 15.550781 -7.351562 15.53125 -6.46875 L 15.53125 0 L 12.171875 0 L 12.171875 -9.0625 C 12.140625 -9.769531 11.960938 -10.359375 11.640625 -10.828125 C 11.328125 -11.296875 10.78125 -11.550781 10 -11.59375 C 9.21875 -11.59375 8.519531 -11.347656 7.90625 -10.859375 C 7.300781 -10.367188 6.832031 -9.726562 6.5 -8.9375 C 6.164062 -8.15625 6 -7.320312 6 -6.4375 L 6 0 L 2.640625 0 L 2.640625 -13.9375 Z M 5.671875 -13.9375 "/></g></g></g><g fill="#000000" fill-opacity="1"><g transform="translate(178.646221, 36.660265)"><g/></g></g><g fill="#000000" fill-opacity="1"><g transform="translate(182.978925, 36.660265)"><g><path d="M 3.96875 -20.03125 L 7.359375 -20.03125 L 7.359375 -13.890625 L 11.09375 -13.890625 L 11.09375 -11.265625 L 7.359375 -11.265625 L 7.359375 0 L 3.96875 0 L 3.96875 -11.265625 L 1.5 -11.265625 L 1.5 -13.890625 L 3.96875 -13.890625 Z M 3.96875 -20.03125 "/></g></g></g><g fill="#000000" fill-opacity="1"><g transform="translate(195.143837, 36.660265)"><g><path d="M 2.640625 0 L 2.640625 -25.890625 L 5.9375 -25.890625 L 5.9375 -10.765625 L 5.859375 -11.328125 C 6.347656 -12.242188 7.070312 -12.992188 8.03125 -13.578125 C 8.988281 -14.171875 10.132812 -14.46875 11.46875 -14.46875 C 12.78125 -14.46875 13.859375 -14.082031 14.703125 -13.3125 C 15.546875 -12.550781 15.976562 -11.546875 16 -10.296875 L 16 0 L 12.625 0 L 12.625 -9.125 C 12.601562 -9.84375 12.390625 -10.425781 11.984375 -10.875 C 11.585938 -11.332031 10.96875 -11.570312 10.125 -11.59375 C 8.945312 -11.59375 7.960938 -11.097656 7.171875 -10.109375 C 6.390625 -9.117188 6 -7.867188 6 -6.359375 L 6 0 Z M 2.640625 0 "/></g></g></g><g fill="#000000" fill-opacity="1"><g transform="translate(213.80782, 36.660265)"><g><path d="M 9.171875 0.328125 C 7.566406 0.328125 6.1875 0.015625 5.03125 -0.609375 C 3.875 -1.242188 2.984375 -2.125 2.359375 -3.25 C 1.742188 -4.375 1.4375 -5.644531 1.4375 -7.0625 C 1.4375 -8.4375 1.785156 -9.6875 2.484375 -10.8125 C 3.179688 -11.9375 4.117188 -12.832031 5.296875 -13.5 C 6.472656 -14.164062 7.785156 -14.5 9.234375 -14.5 C 11.097656 -14.5 12.644531 -13.957031 13.875 -12.875 C 15.113281 -11.800781 15.941406 -10.285156 16.359375 -8.328125 L 5 -4.40625 L 4.203125 -6.328125 L 13.328125 -9.671875 L 12.625 -9.203125 C 12.363281 -9.910156 11.941406 -10.523438 11.359375 -11.046875 C 10.785156 -11.566406 10 -11.828125 9 -11.828125 C 7.75 -11.828125 6.726562 -11.398438 5.9375 -10.546875 C 5.15625 -9.691406 4.765625 -8.597656 4.765625 -7.265625 C 4.765625 -5.835938 5.1875 -4.691406 6.03125 -3.828125 C 6.875 -2.960938 7.941406 -2.53125 9.234375 -2.53125 C 9.828125 -2.53125 10.398438 -2.632812 10.953125 -2.84375 C 11.515625 -3.0625 12.039062 -3.347656 12.53125 -3.703125 L 14.0625 -1.203125 C 13.351562 -0.734375 12.570312 -0.359375 11.71875 -0.078125 C 10.863281 0.191406 10.015625 0.328125 9.171875 0.328125 Z M 9.171875 0.328125 "/></g></g></g><g fill="#000000" fill-opacity="1"><g transform="translate(231.305297, 36.660265)"><g/></g></g><g fill="#000000" fill-opacity="1"><g transform="translate(235.638001, 36.660265)"><g><path d="M 10.96875 0.328125 C 9.945312 0.328125 8.960938 0.101562 8.015625 -0.34375 C 7.066406 -0.800781 6.328125 -1.429688 5.796875 -2.234375 L 6 -3.265625 L 6 6.703125 L 2.640625 6.703125 L 2.640625 -14.171875 L 5.53125 -14.171875 L 6 -10.734375 L 5.671875 -11.703125 C 6.335938 -12.523438 7.175781 -13.195312 8.1875 -13.71875 C 9.195312 -14.238281 10.332031 -14.5 11.59375 -14.5 C 12.90625 -14.5 14.082031 -14.1875 15.125 -13.5625 C 16.175781 -12.9375 17 -12.0625 17.59375 -10.9375 C 18.195312 -9.820312 18.5 -8.507812 18.5 -7 C 18.5 -5.488281 18.171875 -4.179688 17.515625 -3.078125 C 16.859375 -1.984375 15.960938 -1.140625 14.828125 -0.546875 C 13.691406 0.0351562 12.40625 0.328125 10.96875 0.328125 Z M 10.296875 -2.328125 C 11.160156 -2.328125 11.953125 -2.523438 12.671875 -2.921875 C 13.398438 -3.328125 13.976562 -3.878906 14.40625 -4.578125 C 14.84375 -5.273438 15.0625 -6.070312 15.0625 -6.96875 C 15.0625 -7.875 14.859375 -8.679688 14.453125 -9.390625 C 14.054688 -10.109375 13.515625 -10.664062 12.828125 -11.0625 C 12.140625 -11.46875 11.375 -11.671875 10.53125 -11.671875 C 9.375 -11.671875 8.398438 -11.359375 7.609375 -10.734375 C 6.828125 -10.109375 6.289062 -9.285156 6 -8.265625 L 6 -5.765625 C 6.175781 -4.765625 6.664062 -3.941406 7.46875 -3.296875 C 8.269531 -2.648438 9.210938 -2.328125 10.296875 -2.328125 Z M 10.296875 -2.328125 "/></g></g></g><g fill="#000000" fill-opacity="1"><g transform="translate(255.568453, 36.660265)"><g><path d="M 8.46875 0.328125 C 7.15625 0.328125 5.960938 0.0507812 4.890625 -0.5 C 3.828125 -1.050781 2.984375 -1.863281 2.359375 -2.9375 C 1.742188 -4.019531 1.4375 -5.363281 1.4375 -6.96875 C 1.4375 -8.519531 1.765625 -9.859375 2.421875 -10.984375 C 3.078125 -12.109375 3.941406 -12.972656 5.015625 -13.578125 C 6.085938 -14.191406 7.257812 -14.5 8.53125 -14.5 C 9.863281 -14.5 10.960938 -14.21875 11.828125 -13.65625 C 12.691406 -13.101562 13.359375 -12.441406 13.828125 -11.671875 L 13.625 -11.125 L 13.96875 -13.9375 L 17.0625 -13.9375 L 17.0625 0 L 13.703125 0 L 13.703125 -3.53125 L 14.03125 -2.703125 C 13.9375 -2.523438 13.742188 -2.269531 13.453125 -1.9375 C 13.171875 -1.601562 12.796875 -1.265625 12.328125 -0.921875 C 11.859375 -0.578125 11.296875 -0.28125 10.640625 -0.03125 C 9.992188 0.207031 9.269531 0.328125 8.46875 0.328125 Z M 9.359375 -2.4375 C 10.472656 -2.4375 11.410156 -2.726562 12.171875 -3.3125 C 12.941406 -3.90625 13.453125 -4.710938 13.703125 -5.734375 L 13.703125 -8.59375 C 13.429688 -9.507812 12.890625 -10.265625 12.078125 -10.859375 C 11.265625 -11.460938 10.328125 -11.765625 9.265625 -11.765625 C 8.460938 -11.765625 7.726562 -11.566406 7.0625 -11.171875 C 6.394531 -10.785156 5.859375 -10.242188 5.453125 -9.546875 C 5.054688 -8.847656 4.859375 -8.039062 4.859375 -7.125 C 4.859375 -6.238281 5.0625 -5.441406 5.46875 -4.734375 C 5.882812 -4.023438 6.4375 -3.460938 7.125 -3.046875 C 7.820312 -2.640625 8.566406 -2.4375 9.359375 -2.4375 Z M 9.359375 -2.4375 "/></g></g></g><g fill="#000000" fill-opacity="1"><g transform="translate(275.265623, 36.660265)"><g><path d="M 6.671875 0.296875 C 5.640625 0.296875 4.65625 0.113281 3.71875 -0.25 C 2.789062 -0.613281 2.003906 -1.140625 1.359375 -1.828125 L 2.796875 -3.765625 C 3.378906 -3.210938 3.984375 -2.789062 4.609375 -2.5 C 5.242188 -2.207031 5.84375 -2.0625 6.40625 -2.0625 C 7.039062 -2.0625 7.601562 -2.1875 8.09375 -2.4375 C 8.582031 -2.695312 8.828125 -3.128906 8.828125 -3.734375 C 8.828125 -4.222656 8.664062 -4.597656 8.34375 -4.859375 C 8.019531 -5.128906 7.613281 -5.351562 7.125 -5.53125 C 6.644531 -5.707031 6.125 -5.875 5.5625 -6.03125 C 4.40625 -6.40625 3.519531 -6.941406 2.90625 -7.640625 C 2.300781 -8.347656 2 -9.175781 2 -10.125 C 2 -10.863281 2.179688 -11.5625 2.546875 -12.21875 C 2.910156 -12.875 3.46875 -13.40625 4.21875 -13.8125 C 4.976562 -14.226562 5.914062 -14.4375 7.03125 -14.4375 C 8.007812 -14.4375 8.882812 -14.316406 9.65625 -14.078125 C 10.4375 -13.847656 11.160156 -13.453125 11.828125 -12.890625 L 10.53125 -10.859375 C 10.132812 -11.265625 9.660156 -11.570312 9.109375 -11.78125 C 8.566406 -11.988281 8.070312 -12.101562 7.625 -12.125 C 7.03125 -12.125 6.507812 -11.984375 6.0625 -11.703125 C 5.625 -11.429688 5.40625 -11.0625 5.40625 -10.59375 C 5.40625 -10.125 5.554688 -9.75 5.859375 -9.46875 C 6.171875 -9.195312 6.578125 -8.976562 7.078125 -8.8125 C 7.578125 -8.644531 8.082031 -8.472656 8.59375 -8.296875 C 9.613281 -7.960938 10.460938 -7.503906 11.140625 -6.921875 C 11.828125 -6.347656 12.171875 -5.507812 12.171875 -4.40625 C 12.171875 -3.5625 11.96875 -2.78125 11.5625 -2.0625 C 11.164062 -1.351562 10.5625 -0.78125 9.75 -0.34375 C 8.9375 0.0820312 7.910156 0.296875 6.671875 0.296875 Z M 6.671875 0.296875 "/></g></g></g><g fill="#000000" fill-opacity="1"><g transform="translate(289.063623, 36.660265)"><g><path d="M 3.96875 -20.03125 L 7.359375 -20.03125 L 7.359375 -13.890625 L 11.09375 -13.890625 L 11.09375 -11.265625 L 7.359375 -11.265625 L 7.359375 0 L 3.96875 0 L 3.96875 -11.265625 L 1.5 -11.265625 L 1.5 -13.890625 L 3.96875 -13.890625 Z M 3.96875 -20.03125 "/></g></g></g></g></g></svg>