<?xml version="1.0" encoding="UTF-8"?>
<svg version="1.1" xmlns="http://www.w3.org/2000/svg" width="210" height="200">
<path d="M0 0 C69.3 0 138.6 0 210 0 C210 66 210 132 210 200 C140.7 200 71.4 200 0 200 C0 134 0 68 0 0 Z " fill="#8E7B6B" transform="translate(0,0)"/>
<path d="M0 0 C1.98 0.33 3.96 0.66 6 1 C6.12375 1.639375 6.2475 2.27875 6.375 2.9375 C6.58125 3.948125 6.7875 4.95875 7 6 C7.20625 7.299375 7.4125 8.59875 7.625 9.9375 C8.85968425 15.60754996 11.62910729 20.4976115 14.34375 25.5703125 C16.00619967 29.012838 17.04338924 32.30641955 18 36 C18.33 36.99 18.66 37.98 19 39 C17.515 38.505 17.515 38.505 16 38 C16 37.34 16 36.68 16 36 C15.34 36 14.68 36 14 36 C14 35.34 14 34.68 14 34 C12.9275 34.12375 11.855 34.2475 10.75 34.375 C7 34 7 34 4.5625 31.4375 C2.81355659 27.58982451 2.92544985 25.17480865 3 21 C2.06833174 18.96726926 1.0650015 16.96615661 0 15 C-0.77345631 12.68431867 -1.38507209 10.36510734 -2 8 C-2.33 9.98 -2.66 11.96 -3 14 C-3.33 14 -3.66 14 -4 14 C-3.72922406 20.36323451 -2.66401974 25.63118961 -0.10546875 31.46875 C1.39523525 34.90499097 2.62264578 38.43532202 3.875 41.96875 C5.25027669 44.45188846 6.46367265 44.85665558 9 46 C9.86625 47.3921875 9.86625 47.3921875 10.75 48.8125 C13.53362025 52.75596201 16.69129767 54.89227981 21 57 C21.66 57 22.32 57 23 57 C22.20335937 56.52820313 22.20335937 56.52820313 21.390625 56.046875 C17.48458848 53.68044412 14.06395074 51.44694458 11 48 C11.495 47.01 11.495 47.01 12 46 C12.99 46.66 13.98 47.32 15 48 C14.505 46.02 14.505 46.02 14 44 C14.78375 44.721875 15.5675 45.44375 16.375 46.1875 C19.78568977 49.04314828 23.48000236 50.83392005 27.4765625 52.7421875 C30.51525112 54.25682796 33.32096673 56.02641556 36.171875 57.86328125 C38.69169735 59.43009387 41.32186192 60.72788441 44 62 C44 62.99 44 63.98 44 65 C43.01 65.495 43.01 65.495 42 66 C42.33 66.99 42.66 67.98 43 69 C43.66 69 44.32 69 45 69 C44.51333387 73.28266193 43.72573125 75.68171848 41 79 C41 79.66 41 80.32 41 81 C45.27529487 75.58794162 45.27529487 75.58794162 47 69 C47.33 69 47.66 69 48 69 C48 71.97 48 74.94 48 78 C47.01 78 46.02 78 45 78 C43.91111891 83.84036219 43.75577604 85.93901062 47 91 C47.1875 94.8125 47.1875 94.8125 47 98 C46.01 98 45.02 98 44 98 C44.33 95.69 44.66 93.38 45 91 C43.68 91.33 42.36 91.66 41 92 C39.35 89.36 37.7 86.72 36 84 C35.01 84.99 34.02 85.98 33 87 C34.32 87 35.64 87 37 87 C36.57053112 89.40502575 36.16517988 90.80609319 34.5625 92.6875 C32.22396546 96.14853111 31.73829395 99.93504034 31 104 C29.02 104 27.04 104 25 104 C24.505 105.98 24.505 105.98 24 108 C24 107.34 24 106.68 24 106 C23.34 106 22.68 106 22 106 C22.226875 106.58136719 22.45375 107.16273437 22.6875 107.76171875 C23 110 23 110 21.75 111.89453125 C21.1725 112.52746094 20.595 113.16039063 20 113.8125 C17.18988569 117.22617934 17.18988569 117.22617934 17.25 121.75 C17.62125 123.35875 17.62125 123.35875 18 125 C17.0625 127.4375 17.0625 127.4375 16 129 C16.66 128.7525 17.32 128.505 18 128.25 C21.7996503 127.93336247 23.62112636 129.10193458 26.83984375 130.9921875 C29.52684961 132.36331509 29.52684961 132.36331509 35 133 C35 125.41 35 117.82 35 110 C35.99 110 36.98 110 38 110 C38.84069415 111.60032137 39.67231505 113.20541171 40.5 114.8125 C40.9640625 115.70582031 41.428125 116.59914063 41.90625 117.51953125 C43 120 43 120 43 123 C42.34 123 41.68 123 41 123 C40.505 124.98 40.505 124.98 40 127 C39.34 127 38.68 127 38 127 C38.17391872 134.43107244 39.61730759 140.85714271 44 147 C46.05962117 148.29484035 46.05962117 148.29484035 48 149 C48 147.68 48 146.36 48 145 C48.66 145 49.32 145 50 145 C50.2475 145.78375 50.495 146.5675 50.75 147.375 C52.15389099 150.32317108 53.00675737 150.9024777 56 152 C58.33339217 149.66660783 58.26862413 144.09094512 58.80664062 140.81445312 C59.78671875 135.21328125 59.78671875 135.21328125 62 133 C62.16252157 136.90051777 62.08275018 139.71037437 61 143.5 C59.23178387 149.77592202 59.84848486 156.535354 60 163 C63.88134553 161.57303473 65.82252384 160.59283567 68 157 C68.90683762 154.27948714 69.12842547 152.67266994 69.1328125 149.875 C69.13410156 149.08609375 69.13539063 148.2971875 69.13671875 147.484375 C69.13285156 146.66453125 69.12898438 145.8446875 69.125 145 C69.12886719 144.18015625 69.13273437 143.3603125 69.13671875 142.515625 C69.13542969 141.72671875 69.13414062 140.9378125 69.1328125 140.125 C69.13112061 139.04605469 69.13112061 139.04605469 69.12939453 137.9453125 C69.06777378 135.78237639 69.06777378 135.78237639 68 133 C67.34 133 66.68 133 66 133 C65.01 129.535 65.01 129.535 64 126 C63.34 126 62.68 126 62 126 C61.505 127.485 61.505 127.485 61 129 C59.35 126.69 57.7 124.38 56 122 C55.67 123.98 55.34 125.96 55 128 C53 125 53 125 53 121 C52.01 121 51.02 121 50 121 C47.96006486 116.07015675 46.59347032 112.42039575 47 107 C47.2475 107.53625 47.495 108.0725 47.75 108.625 C51.16742026 115.1180985 55.38965941 119.39734194 61 124 C61.12086218 117.56744599 60.82351864 111.38226945 60 105 C62.41779574 107.41779574 62.86042884 109.24666437 63.875 112.5 C65.67759115 118.11107321 67.73736256 123.5600419 70 129 C70.66 129 71.32 129 72 129 C72.99 143.355 72.99 143.355 74 158 C73.34 158.33 72.68 158.66 72 159 C67.43526906 168.4476098 66.28575996 176.55622346 67 187 C67.99 187.33 68.98 187.66 70 188 C70 189.32 70 190.64 70 192 C61.42 192 52.84 192 44 192 C43.77213542 188.38671875 43.54427083 184.7734375 43.31640625 181.16015625 C43.35080812 178.13976043 43.35080812 178.13976043 42 177 C41.76636119 175.15108054 41.58696365 173.29511969 41.4375 171.4375 C41.31181641 169.91962891 41.31181641 169.91962891 41.18359375 168.37109375 C41.12300781 167.58863281 41.06242187 166.80617187 41 166 C40.01 165.67 39.02 165.34 38 165 C38 164.34 38 163.68 38 163 C33.45768012 164.00940442 29.33940453 165.22189164 25.0625 167.0625 C20.31506172 169.04243937 16.12003438 169.6696752 11 170 C12 167 12 167 13.68652344 166.04858398 C14.40356445 165.78376221 15.12060547 165.51894043 15.859375 165.24609375 C16.64570313 164.94896484 17.43203125 164.65183594 18.2421875 164.34570312 C19.48355469 163.89614258 19.48355469 163.89614258 20.75 163.4375 C21.56210938 163.13392578 22.37421875 162.83035156 23.2109375 162.51757812 C26.45041491 161.30673111 29.69567971 160.11194783 32.94140625 158.91796875 C35.53589032 157.76103563 37.04198728 156.0255304 39 154 C39.66 154 40.32 154 41 154 C41 153.34 41 152.68 41 152 C39.02 152 37.04 152 35 152 C33.66667905 149.3333581 34.32897967 147.83319697 35 145 C34.01 144.67 33.02 144.34 32 144 C30.3125 142.6875 30.3125 142.6875 29 141 C29 139.68 29 138.36 29 137 C27.783125 137.04125 26.56625 137.0825 25.3125 137.125 C21.78105873 137.13754508 19.19996434 136.59998217 16 135 C16.33 135.99 16.66 136.98 17 138 C18.98 138.33 20.96 138.66 23 139 C23 139.33 23 139.66 23 140 C19.37 140.33 15.74 140.66 12 141 C11.67 142.32 11.34 143.64 11 145 C9.62529084 148.59539319 8.35061309 149.32469346 5 151 C2.47956666 154.93259103 2.67637572 158.7999307 2.5390625 163.34375 C1.84428609 166.76728592 0.69400262 167.81814669 -2 170 C-4.50756836 170.48583984 -4.50756836 170.48583984 -7.33984375 170.4609375 C-8.39365234 170.45852051 -9.44746094 170.45610352 -10.53320312 170.45361328 C-12.21833008 170.41469971 -12.21833008 170.41469971 -13.9375 170.375 C-15.08798828 170.36065918 -16.23847656 170.34631836 -17.42382812 170.33154297 C-24.97035152 170.19106025 -32.48266787 169.80013402 -40 169.125 C-40.88292725 169.04685059 -41.76585449 168.96870117 -42.67553711 168.88818359 C-48.74454681 168.25545319 -48.74454681 168.25545319 -51 166 C-38.13 166.66 -25.26 167.32 -12 168 C-12.495 164.535 -12.495 164.535 -13 161 C-12.484375 161.825 -11.96875 162.65 -11.4375 163.5 C-9.14210148 166.40072402 -9.14210148 166.40072402 -5.25 166.3125 C-4.1775 166.209375 -3.105 166.10625 -2 166 C-2.66 165.01 -3.32 164.02 -4 163 C-6.13828977 154.8580505 -6.05158609 146.42790783 -2 139 C-3.98 139 -5.96 139 -8 139 C-8 139.66 -8 140.32 -8 141 C-8.66 141 -9.32 141 -10 141 C-10 140.34 -10 139.68 -10 139 C-13.63 139 -17.26 139 -21 139 C-21 138.34 -21 137.68 -21 137 C-18.36 136.67 -15.72 136.34 -13 136 C-13.32597168 134.98993896 -13.65194336 133.97987793 -13.98779297 132.93920898 C-15.043497 129.23074452 -15.22969698 125.84090997 -15.1953125 121.97265625 C-15.18886719 120.68681641 -15.18242188 119.40097656 -15.17578125 118.07617188 C-15.15907601 116.73827846 -15.14214619 115.40038783 -15.125 114.0625 C-15.11495322 112.69727217 -15.10583036 111.3320372 -15.09765625 109.96679688 C-15.07417605 106.64434801 -15.04133359 103.32226679 -15 100 C-15.99 100.495 -15.99 100.495 -17 101 C-19.2072923 101.07092842 -21.41667452 101.08415025 -23.625 101.0625 C-24.81351563 101.05347656 -26.00203125 101.04445313 -27.2265625 101.03515625 C-28.59941406 101.01775391 -28.59941406 101.01775391 -30 101 C-27.18098603 99.12065735 -25.6328123 98.57670792 -22.4375 97.8125 C-16.42248192 95.98950038 -11.21466658 93.80132347 -7 89 C-5.4527543 85.127704 -4.54713774 81.60738907 -3.71875 77.5234375 C-3.0899026 74.44071819 -2.17787169 71.89434282 -1 69 C-0.83242243 65.79129767 -0.83242243 65.79129767 -1 63 C-0.34 63 0.32 63 1 63 C0.505 59.535 0.505 59.535 0 56 C0.99 56.99 1.98 57.98 3 59 C2.979375 57.9275 2.95875 56.855 2.9375 55.75 C3 52 3 52 3.5625 49.8125 C4.11659203 47.51697586 3.89969419 46.17426095 3 44 C2.01 43.67 1.02 43.34 0 43 C-0.495 39.04 -0.495 39.04 -1 35 C-1.99 35.33 -2.98 35.66 -4 36 C-6.1591338 29.12418702 -7.35482211 23.21471629 -7 16 C-7.99 16 -8.98 16 -10 16 C-9.8453125 17.36125 -9.8453125 17.36125 -9.6875 18.75 C-9.6875 27.3663395 -14.91629523 35.40492355 -20 42 C-20.350625 42.78375 -20.70125 43.5675 -21.0625 44.375 C-21.371875 44.91125 -21.68125 45.4475 -22 46 C-22.598125 46.12375 -23.19625 46.2475 -23.8125 46.375 C-26.4316563 47.12333037 -26.96532984 47.96220944 -28.625 50.0625 C-29.40875 51.031875 -30.1925 52.00125 -31 53 C-31.66 53 -32.32 53 -33 53 C-33.23046875 50.72265625 -33.23046875 50.72265625 -33 48 C-31.42578125 46.12109375 -31.42578125 46.12109375 -29.3125 44.4375 C-28.58160156 43.83808594 -27.85070312 43.23867188 -27.09765625 42.62109375 C-25.50175447 41.38776183 -23.88116477 40.18630165 -22.25 39 C-19.25458602 36.3374098 -17.84280104 33.54909831 -16 30 C-16.99 30.495 -16.99 30.495 -18 31 C-17.60965493 27.72110143 -17.12937757 25.2418798 -15.5625 22.3125 C-13.38924588 17.70520126 -12.75761757 13.00918914 -12 8 C-11.34 8 -10.68 8 -10 8 C-10 8.66 -10 9.32 -10 10 C-9.34 10 -8.68 10 -8 10 C-8 9.01 -8 8.02 -8 7 C-7.34 6.67 -6.68 6.34 -6 6 C-5.34 5.01 -4.68 4.02 -4 3 C-1.36 3.66 1.28 4.32 4 5 C3.505 4.01 3.505 4.01 3 3 C2.01 2.67 1.02 2.34 0 2 C0 1.34 0 0.68 0 0 Z " fill="#66574D" transform="translate(132,8)"/>
<path d="M0 0 C6.05813635 4.74980644 11.40028895 9.82322018 14.49609375 16.95703125 C14.30685746 19.79557558 13.75425249 21.44071377 12.49609375 23.95703125 C9.9921875 24.37109375 9.9921875 24.37109375 6.93359375 24.58203125 C5.92167969 24.65679687 4.90976562 24.7315625 3.8671875 24.80859375 C3.08472656 24.85757813 2.30226562 24.9065625 1.49609375 24.95703125 C2.00645206 20.56794975 3.01823652 17.61995063 5.49609375 13.95703125 C4.89796875 14.45203125 4.29984375 14.94703125 3.68359375 15.45703125 C1.49609375 16.95703125 1.49609375 16.95703125 -1.50390625 16.95703125 C-1.50390625 17.61703125 -1.50390625 18.27703125 -1.50390625 18.95703125 C-3.81390625 19.28703125 -6.12390625 19.61703125 -8.50390625 19.95703125 C-8.50390625 20.94703125 -8.50390625 21.93703125 -8.50390625 22.95703125 C-6.19390625 22.62703125 -3.88390625 22.29703125 -1.50390625 21.95703125 C-1.83390625 22.94703125 -2.16390625 23.93703125 -2.50390625 24.95703125 C-6.58717587 26.44899515 -10.16613876 27.20490368 -14.50390625 26.95703125 C-15.16390625 26.95703125 -15.82390625 26.95703125 -16.50390625 26.95703125 C-16.99890625 27.94703125 -16.99890625 27.94703125 -17.50390625 28.95703125 C-18.61765625 29.36953125 -19.73140625 29.78203125 -20.87890625 30.20703125 C-23.9352307 31.44964365 -24.48058279 31.92242225 -26.44140625 34.83203125 C-27.45015502 37.7989394 -27.7772003 39.85969867 -27.50390625 42.95703125 C-26.51390625 42.46203125 -26.51390625 42.46203125 -25.50390625 41.95703125 C-25.50390625 44.26703125 -25.50390625 46.57703125 -25.50390625 48.95703125 C-27.15390625 48.95703125 -28.80390625 48.95703125 -30.50390625 48.95703125 C-30.17390625 49.94703125 -29.84390625 50.93703125 -29.50390625 51.95703125 C-28.51390625 51.46203125 -28.51390625 51.46203125 -27.50390625 50.95703125 C-27.83390625 53.26703125 -28.16390625 55.57703125 -28.50390625 57.95703125 C-27.84390625 57.95703125 -27.18390625 57.95703125 -26.50390625 57.95703125 C-26.17390625 59.27703125 -25.84390625 60.59703125 -25.50390625 61.95703125 C-25.17390625 59.64703125 -24.84390625 57.33703125 -24.50390625 54.95703125 C-23.84390625 54.95703125 -23.18390625 54.95703125 -22.50390625 54.95703125 C-22.50390625 52.31703125 -22.50390625 49.67703125 -22.50390625 46.95703125 C-21.57578125 47.61703125 -20.64765625 48.27703125 -19.69140625 48.95703125 C-16.70754069 51.22277679 -16.70754069 51.22277679 -13.50390625 50.95703125 C-14.06980469 50.60511719 -14.63570312 50.25320312 -15.21875 49.890625 C-21.13828939 45.90611958 -21.13828939 45.90611958 -22.2578125 43 C-22.50390625 41.08203125 -22.50390625 41.08203125 -22.50390625 37.95703125 C-21.84390625 37.95703125 -21.18390625 37.95703125 -20.50390625 37.95703125 C-20.40078125 37.19390625 -20.29765625 36.43078125 -20.19140625 35.64453125 C-19.44796491 32.73835147 -18.84503662 31.75790076 -16.50390625 29.95703125 C-13.77042899 29.04587216 -11.63803794 28.70380589 -8.79296875 28.45703125 C-7.87773438 28.37453125 -6.9625 28.29203125 -6.01953125 28.20703125 C-5.065625 28.12453125 -4.11171875 28.04203125 -3.12890625 27.95703125 C-1.24587598 27.79284332 0.63694661 27.62625234 2.51953125 27.45703125 C3.7712915 27.34875 3.7712915 27.34875 5.04833984 27.23828125 C7.57017909 26.94851875 10.01489471 26.48836096 12.49609375 25.95703125 C10.62109375 31.70703125 10.62109375 31.70703125 9.49609375 33.95703125 C9.74622908 44.04582276 13.91978215 50.91676801 19.49609375 58.95703125 C16.33848205 60.00956848 15.39282548 59.92628605 12.2578125 59.25 C11.02708008 58.98799805 11.02708008 58.98799805 9.77148438 58.72070312 C8.91748047 58.53056641 8.06347656 58.34042969 7.18359375 58.14453125 C6.34119141 57.96599609 5.49878906 57.78746094 4.63085938 57.60351562 C0.14704825 56.63243221 -4.17968642 55.51600773 -8.50390625 53.95703125 C0.92212074 58.62043407 11.24295098 60.10042141 21.49609375 61.95703125 C21.47289063 63.12621094 21.4496875 64.29539062 21.42578125 65.5 C21.40701554 67.04817067 21.3888162 68.59634828 21.37109375 70.14453125 C21.34595703 71.29791992 21.34595703 71.29791992 21.3203125 72.47460938 C21.28342524 76.77197465 21.50024335 80.03604956 23.49609375 83.95703125 C22.35011719 83.92222656 21.20414062 83.88742188 20.0234375 83.8515625 C18.49350436 83.82340422 16.96355521 83.79610626 15.43359375 83.76953125 C14.68142578 83.74439453 13.92925781 83.71925781 13.15429688 83.69335938 C7.82294326 83.62412102 4.2296442 84.46664101 -0.50390625 86.95703125 C-1.16390625 87.61703125 -1.82390625 88.27703125 -2.50390625 88.95703125 C-4.56668091 89.19754028 -4.56668091 89.19754028 -7.13720703 89.18408203 C-8.57847458 89.18385544 -8.57847458 89.18385544 -10.04885864 89.18362427 C-11.08847748 89.1733017 -12.12809631 89.16297913 -13.19921875 89.15234375 C-14.26179901 89.14951385 -15.32437927 89.14668396 -16.41915894 89.14376831 C-19.82252124 89.13254764 -23.22562311 89.10743962 -26.62890625 89.08203125 C-28.93228787 89.07200389 -31.23567361 89.06287762 -33.5390625 89.0546875 C-39.1940997 89.03260218 -44.84898438 88.99910614 -50.50390625 88.95703125 C-50.64328975 78.81232505 -50.74972109 68.66784883 -50.81477928 58.52237797 C-50.84601368 53.81071571 -50.88834067 49.09971139 -50.95654297 44.38842773 C-51.02201932 39.83665494 -51.05767158 35.28551258 -51.07316971 30.73330498 C-51.08420563 29.00179566 -51.10575648 27.27031856 -51.13828659 25.53907967 C-51.43339655 9.17379276 -51.43339655 9.17379276 -46.15591431 2.62303162 C-31.82975787 -11.82446565 -16.53294968 -11.95304581 0 0 Z " fill="#BBAC9C" transform="translate(50.50390625,111.04296875)"/>
<path d="M0 0 C13.86 0 27.72 0 42 0 C42 9.12462984 40.65868668 13.17055056 35 20 C35 20.66 35 21.32 35 22 C35.61875 21.34 36.2375 20.68 36.875 20 C39 18 39 18 41 18 C41.13572155 20.39774745 41.23436868 22.78775245 41.3125 25.1875 C41.35439453 25.86103516 41.39628906 26.53457031 41.43945312 27.22851562 C41.53640862 31.20369093 41.18832697 32.77480642 38.60546875 35.86328125 C37.74566406 36.56839844 36.88585938 37.27351563 36 38 C33.41073669 40.58926331 33.62601957 42.02705279 33.375 45.625 C33.30023438 46.62789062 33.22546875 47.63078125 33.1484375 48.6640625 C33.09945312 49.43492188 33.05046875 50.20578125 33 51 C31.02 51.66 29.04 52.32 27 53 C27 53.66 27 54.32 27 55 C26.02149805 56.02104551 25.02019573 57.0206121 24 58 C21.39018027 63.21963946 22.2023041 71.44319306 23.89453125 76.8671875 C24.61460643 78.50071494 25.34460777 80.12991413 26.0859375 81.75390625 C27.62405501 85.53346852 27.6857969 87.95379826 27 92 C24.125 94.6875 24.125 94.6875 21 97 C20.731875 97.825 20.46375 98.65 20.1875 99.5 C18.75639335 102.51285611 17.86480178 102.74908447 14.9375 104.1875 C9.71086349 106.81352483 6.47860591 110.55408846 2.75 114.98828125 C2.1725 115.65214844 1.595 116.31601563 1 117 C0.67 117 0.34 117 0 117 C0 78.39 0 39.78 0 0 Z " fill="#BEB9AE" transform="translate(0,0)"/>
<path d="M0 0 C4.29 0.66 8.58 1.32 13 2 C13 3.32 13 4.64 13 6 C13.99 6.33 14.98 6.66 16 7 C17.6875 8.1875 17.6875 8.1875 19 10 C19.1875 13.1875 19.1875 13.1875 19 16 C20.98 16.33 22.96 16.66 25 17 C25 19 25 19 23.82910156 20.37817383 C18.90435813 24.80090105 14.02579155 26.76530946 7.75 28.6875 C5.97141349 29.24586373 4.19523443 29.81196977 2.421875 30.38671875 C1.64424805 30.62608154 0.86662109 30.86544434 0.06542969 31.11206055 C-2.17729986 32.07622218 -3.40460987 33.17574205 -5 35 C0.83838759 33.69599465 6.46249404 32.41235329 11.875 29.8125 C15.40485315 28.14988801 18.04015217 27.34002536 22 28 C24.347293 29.73170391 24.95080198 30.81149972 25.6953125 33.6640625 C25.90800781 35.12972656 25.90800781 35.12972656 26.125 36.625 C26.38733112 40.12188551 26.38733112 40.12188551 28 43 C28 47.62 28 52.24 28 57 C-2.03 57 -32.06 57 -63 57 C-63.99 54.03 -64.98 51.06 -66 48 C-67.29048808 45.97209016 -68.61194756 43.96241897 -70 42 C-70 41.34 -70 40.68 -70 40 C-67 39 -64 38 -61 37 C-61.50603992 39.16874252 -61.99983813 40.99967627 -63 43 C-62.60167969 42.51917969 -62.20335938 42.03835937 -61.79296875 41.54296875 C-59.56549753 39.62608175 -58.21165331 39.52258357 -55.3125 39.3125 C-54.10013672 39.21388672 -54.10013672 39.21388672 -52.86328125 39.11328125 C-52.24839844 39.07589844 -51.63351563 39.03851563 -51 39 C-51 39.99 -51 40.98 -51 42 C-47.37 42 -43.74 42 -40 42 C-40 41.34 -40 40.68 -40 40 C-41.11375 39.9175 -42.2275 39.835 -43.375 39.75 C-44.57125 39.5025 -45.7675 39.255 -47 39 C-47.66 37.68 -48.32 36.36 -49 35 C-38.11 34.67 -27.22 34.34 -16 34 C-15.01106029 31.03318087 -14.83766135 28.78940453 -14.6875 25.6875 C-14.26277102 20.60423568 -13.45919374 17.76441672 -10 14 C-9.01 14 -8.02 14 -7 14 C-5.92474806 11.34771188 -4.90543849 8.71631546 -4 6 C-1.4375 4.8125 -1.4375 4.8125 1 4 C0.505 2.02 0.505 2.02 0 0 Z " fill="#A78F7A" transform="translate(148,143)"/>
<path d="M0 0 C1.06154297 -0.0309375 1.06154297 -0.0309375 2.14453125 -0.0625 C8.09650986 -0.10683504 11.09917168 1.44318014 15.4375 5.3125 C17.125 7.25 17.125 7.25 17.125 9.25 C18.115 9.58 19.105 9.91 20.125 10.25 C20.125 37.97 20.125 65.69 20.125 94.25 C17.485 94.25 14.845 94.25 12.125 94.25 C12.125 92.93 12.125 91.61 12.125 90.25 C10.805 89.92 9.485 89.59 8.125 89.25 C7.4232384 78.98868592 8.33652326 70.46275947 13.125 61.25 C14.115 60.92 15.105 60.59 16.125 60.25 C15.99222656 59.48558594 15.85945313 58.72117188 15.72265625 57.93359375 C14.46728833 50.31891679 13.78295373 42.86986634 13.46875 35.171875 C13.3553125 34.20765625 13.241875 33.2434375 13.125 32.25 C12.465 31.92 11.805 31.59 11.125 31.25 C10.04126071 28.6967338 9.05813558 26.1701982 8.125 23.5625 C7.73441406 22.49999023 7.73441406 22.49999023 7.3359375 21.41601562 C5.86139867 17.38337533 4.46168045 13.3307312 3.125 9.25 C3.3725 10.6421875 3.3725 10.6421875 3.625 12.0625 C4.36200282 17.10733621 4.20776815 22.16435711 4.125 27.25 C3.67769531 26.86328125 3.23039062 26.4765625 2.76953125 26.078125 C2.16496094 25.55734375 1.56039062 25.0365625 0.9375 24.5 C0.30070312 23.95085937 -0.33609375 23.40171875 -0.9921875 22.8359375 C-2.51795281 21.55074929 -4.09582598 20.32759815 -5.6875 19.125 C-7.875 17.25 -7.875 17.25 -9.875 13.25 C-9.215 16.55 -8.555 19.85 -7.875 23.25 C-6.885 23.25 -5.895 23.25 -4.875 23.25 C-4.38 25.23 -4.38 25.23 -3.875 27.25 C-3.215 25.93 -2.555 24.61 -1.875 23.25 C0.6 26.715 0.6 26.715 3.125 30.25 C3.455 29.59 3.785 28.93 4.125 28.25 C4.785 28.25 5.445 28.25 6.125 28.25 C6.785 30.56 7.445 32.87 8.125 35.25 C8.785 35.25 9.445 35.25 10.125 35.25 C12.81509645 39.28514467 12.4564193 42.32889232 12.4375 47.0625 C12.45361328 47.85720703 12.46972656 48.65191406 12.48632812 49.47070312 C12.49118184 55.33884401 11.32985335 59.37410433 7.6875 64.125 C6.125 65.25 6.125 65.25 2.125 65.25 C1.35089281 57.21602271 0.66438261 50.06607876 3.125 42.25 C3.16581389 40.58383314 3.17333007 38.91596578 3.125 37.25 C2.93164062 38.38179687 2.73828125 39.51359375 2.5390625 40.6796875 C2.27645714 42.16153202 2.01341352 43.64329892 1.75 45.125 C1.56050781 46.24455078 1.56050781 46.24455078 1.3671875 47.38671875 C0.3515625 53.0234375 0.3515625 53.0234375 -1.875 55.25 C-4.875 53.5 -4.875 53.5 -7.875 51.25 C-7.875 49.93 -7.875 48.61 -7.875 47.25 C-8.535 47.25 -9.195 47.25 -9.875 47.25 C-9.875 48.57 -9.875 49.89 -9.875 51.25 C-12.83732918 50.33391837 -14.5266909 49.69721168 -16.45703125 47.21875 C-19.54683964 41.01951539 -20.53611925 36.15502333 -19.875 29.25 C-19.215 29.25 -18.555 29.25 -17.875 29.25 C-17.875 27.6 -17.875 25.95 -17.875 24.25 C-16.885 24.58 -15.895 24.91 -14.875 25.25 C-15.2359375 24.47914063 -15.596875 23.70828125 -15.96875 22.9140625 C-16.4328125 21.91117188 -16.896875 20.90828125 -17.375 19.875 C-17.8390625 18.87726563 -18.303125 17.87953125 -18.78125 16.8515625 C-19.875 14.25 -19.875 14.25 -19.875 12.25 C-20.865 12.25 -21.855 12.25 -22.875 12.25 C-22.63136719 13.26900391 -22.63136719 13.26900391 -22.3828125 14.30859375 C-21.79905734 17.68988323 -21.74266177 20.88187887 -21.75 24.3125 C-21.74613281 26.12427734 -21.74613281 26.12427734 -21.7421875 27.97265625 C-21.84936319 30.61737407 -22.08799863 32.74533692 -22.875 35.25 C-27.90543726 35.75304373 -30.69874714 34.47035665 -34.97265625 32.140625 C-37.35795752 31.02389258 -39.27660195 30.92520024 -41.875 31.25 C-41.545 29.27 -41.215 27.29 -40.875 25.25 C-41.205 25.25 -41.535 25.25 -41.875 25.25 C-42.19921875 23.03125 -42.19921875 23.03125 -41.875 20.25 C-39.64453125 17.96875 -39.64453125 17.96875 -36.6875 15.75 C-32.79230584 12.7881924 -29.27772998 9.77067556 -25.875 6.25 C-23.06744246 3.53602771 -22.15704362 3.26410218 -18.125 3.0625 C-17.0525 3.124375 -15.98 3.18625 -14.875 3.25 C-14.875 4.24 -14.875 5.23 -14.875 6.25 C-12.70390503 5.42280855 -12.70390503 5.42280855 -11.9375 3.25 C-9.67150402 -1.01540419 -4.27605218 0.03081839 0 0 Z " fill="#C5BCAF" transform="translate(189.875,105.75)"/>
<path d="M0 0 C3.23356015 1.21258505 4.00856305 2.01284458 6 5 C6.99 5.33 7.98 5.66 9 6 C10.1875 9.0625 10.1875 9.0625 11 12 C10.34 12 9.68 12 9 12 C9.495 15.96 9.495 15.96 10 20 C9.34 19.67 8.68 19.34 8 19 C8 18.34 8 17.68 8 17 C7.34 17 6.68 17 6 17 C6.495 19.475 6.495 19.475 7 22 C6.01 22.495 6.01 22.495 5 23 C4.66226563 22.28972656 4.32453125 21.57945313 3.9765625 20.84765625 C3.53054687 19.92855469 3.08453125 19.00945312 2.625 18.0625 C2.18414062 17.14597656 1.74328125 16.22945312 1.2890625 15.28515625 C0.20800838 12.87096198 0.20800838 12.87096198 -2 12 C-0.9790625 13.670625 -0.9790625 13.670625 0.0625 15.375 C1.22265625 17.2734375 1.22265625 17.2734375 2 19 C1.67 19.66 1.34 20.32 1 21 C0.59007812 20.28972656 0.18015625 19.57945313 -0.2421875 18.84765625 C-0.78101563 17.92855469 -1.31984375 17.00945312 -1.875 16.0625 C-2.40867188 15.14597656 -2.94234375 14.22945312 -3.4921875 13.28515625 C-4.79712563 10.89299704 -4.79712563 10.89299704 -7 10 C-6.51080078 10.76183594 -6.51080078 10.76183594 -6.01171875 11.5390625 C-4.02593879 14.66710527 -2.13154267 17.73143371 -0.5 21.0625 C1.0512172 24.10030035 2.85849797 26.67711096 4.9140625 29.38671875 C6.97213926 32.44422127 7.11415517 35.123293 7.0625 38.6875 C7.05347656 39.49574219 7.04445312 40.30398437 7.03515625 41.13671875 C7.02355469 41.75160156 7.01195312 42.36648437 7 43 C10.01446342 39.98553658 10.33408961 36.32274544 10.625 32.25 C10.69976562 31.26515625 10.77453125 30.2803125 10.8515625 29.265625 C10.90054688 28.51796875 10.94953125 27.7703125 11 27 C11.66 27 12.32 27 13 27 C13.33 26.34 13.66 25.68 14 25 C14.66 25 15.32 25 16 25 C15.505 24.01 15.505 24.01 15 23 C14.01 23.495 14.01 23.495 13 24 C13 21.69 13 19.38 13 17 C13.99 17.33 14.98 17.66 16 18 C16 17.34 16 16.68 16 16 C16.66 16 17.32 16 18 16 C18 17.32 18 18.64 18 20 C18.33 19.34 18.66 18.68 19 18 C19.66 18 20.32 18 21 18 C21 19.32 21 20.64 21 22 C21.66 22 22.32 22 23 22 C23 22.99 23 23.98 23 25 C22.34 25 21.68 25 21 25 C21.10441406 25.99257812 21.20882812 26.98515625 21.31640625 28.0078125 C22.13804106 39.53352305 19.06341303 46.03058663 12 55 C12.96421875 54.97679687 13.9284375 54.95359375 14.921875 54.9296875 C16.81679687 54.90261719 16.81679687 54.90261719 18.75 54.875 C20.00296875 54.85179687 21.2559375 54.82859375 22.546875 54.8046875 C26 55 26 55 30 57 C23.73 56.67 17.46 56.34 11 56 C12.58039649 64.06834 13.79041039 69.66401264 19 76 C19 76.66 19 77.32 19 78 C18.01 78.495 18.01 78.495 17 79 C15.91375854 92.80492155 15.91375854 92.80492155 21.6875 104.95703125 C23 107 23 107 23 112 C10.79 112 -1.42 112 -14 112 C-10.75713645 107.67618194 -10.03032476 107.14272015 -5 106 C-2.20013171 105.78907935 0.5693985 105.80904553 3.375 105.875 C4.11105469 105.88402344 4.84710938 105.89304687 5.60546875 105.90234375 C7.4037888 105.92569856 9.20193911 105.96156164 11 106 C10.66226563 105.52046875 10.32453125 105.0409375 9.9765625 104.546875 C8.51868187 100.74472231 9.04278602 97.25650054 9.375 93.25 C9.46007812 92.06083984 9.46007812 92.06083984 9.546875 90.84765625 C9.68783695 88.89768265 9.8425712 86.94871329 10 85 C9.12859375 84.89042969 8.2571875 84.78085938 7.359375 84.66796875 C-14.2037037 81.79755892 -14.2037037 81.79755892 -23 76 C-22.01 75.505 -22.01 75.505 -21 75 C-19.38865984 75.71258469 -17.778644 76.42830827 -16.17529297 77.15869141 C-11.96225084 78.78811264 -7.4965333 79.40858916 -3.0625 80.1875 C-2.09248047 80.36474609 -1.12246094 80.54199219 -0.12304688 80.72460938 C2.25006762 81.15714749 4.62427727 81.58206947 7 82 C6.43410156 81.09636719 5.86820313 80.19273437 5.28515625 79.26171875 C4.5441082 78.07041365 3.80323173 76.87900181 3.0625 75.6875 C2.68931641 75.09259766 2.31613281 74.49769531 1.93164062 73.88476562 C-0.77489147 69.52017783 -2.13678756 66.43834137 -2.0625 61.3125 C-2.05347656 60.50425781 -2.04445312 59.69601563 -2.03515625 58.86328125 C-2.02355469 58.24839844 -2.01195312 57.63351563 -2 57 C-2.99 56.505 -2.99 56.505 -4 56 C-3.01 55.34 -2.02 54.68 -1 54 C0.20450304 51.44816596 0.20450304 51.44816596 1 49 C0.3915625 49.31066406 -0.216875 49.62132812 -0.84375 49.94140625 C-6.17498733 51.72948214 -11.75526642 51.75816734 -17.33984375 52.12304688 C-24.15629603 52.62508086 -24.15629603 52.62508086 -30 56 C-31.34689915 58.57099402 -31.34689915 58.57099402 -32 61 C-32.66 61 -33.32 61 -34 61 C-33.18044903 66.12219354 -32.09794453 68.31132728 -27.875 71.4375 C-26.59535396 72.30957195 -25.3073266 73.16999962 -24 74 C-25.828125 74.62109375 -25.828125 74.62109375 -28 75 C-30.75 73.0625 -30.75 73.0625 -33 71 C-33.33 73.31 -33.66 75.62 -34 78 C-34.66 78 -35.32 78 -36 78 C-35.95875 79.093125 -35.9175 80.18625 -35.875 81.3125 C-36 85 -36 85 -38 88 C-38 85.69 -38 83.38 -38 81 C-38.66 81 -39.32 81 -40 81 C-40 79.02 -40 77.04 -40 75 C-40.99 75.495 -40.99 75.495 -42 76 C-42 74.68 -42 73.36 -42 72 C-40.35 72 -38.7 72 -37 72 C-37.495 69.03 -37.495 69.03 -38 66 C-38.99 66.495 -38.99 66.495 -40 67 C-40.24935162 63.50907734 -40.23356287 61.43666103 -38.5625 58.3125 C-36.36542443 53.65469979 -36.26282264 49.09332154 -36 44 C-35.67 44 -35.34 44 -35 44 C-35 47.3 -35 50.6 -35 54 C-34.01 53.34 -33.02 52.68 -32 52 C-31.01 52 -30.02 52 -29 52 C-28.34 50.68 -27.68 49.36 -27 48 C-26.67 48.66 -26.34 49.32 -26 50 C-24.01853549 49.55170486 -22.03985789 49.09107502 -20.0625 48.625 C-18.96035156 48.36976563 -17.85820313 48.11453125 -16.72265625 47.8515625 C-15.82417969 47.57054687 -14.92570312 47.28953125 -14 47 C-13.67 46.34 -13.34 45.68 -13 45 C-16.465 45.495 -16.465 45.495 -20 46 C-20 45.01 -20 44.02 -20 43 C-16.535 42.505 -16.535 42.505 -13 42 C-13 41.34 -13 40.68 -13 40 C-8.61538462 37 -8.61538462 37 -6 37 C-6.78318689 40.91593446 -8.39179858 44.36406635 -10 48 C-9.2265625 47.7525 -9.2265625 47.7525 -8.4375 47.5 C-5.26636124 46.84951 -2.22781666 46.9379266 1 47 C2.19875366 41.76907493 1.91144203 38.7825921 -0.30859375 33.89453125 C-1 32 -1 32 -1 28 C-0.34 27.67 0.32 27.34 1 27 C0.4946875 26.45730469 -0.010625 25.91460937 -0.53125 25.35546875 C-1.1809375 24.64003906 -1.830625 23.92460938 -2.5 23.1875 C-3.47453125 22.12595703 -3.47453125 22.12595703 -4.46875 21.04296875 C-6 19 -6 19 -6 16 C-7.63473516 12.87525373 -7.63473516 12.87525373 -10.125 12.3125 C-10.74375 12.209375 -11.3625 12.10625 -12 12 C-12 10.35 -12 8.7 -12 7 C-8.7 6.67 -5.4 6.34 -2 6 C-2 4.35 -2 2.7 -2 1 C-1.34 0.67 -0.68 0.34 0 0 Z " fill="#63554B" transform="translate(62,88)"/>
<path d="M0 0 C3.63 0 7.26 0 11 0 C11.66 1.65 12.32 3.3 13 5 C16.5219721 5.08004482 19.61981469 5.04005702 23 4 C23 4.99 23 5.98 23 7 C28.33718547 6.81953548 28.33718547 6.81953548 32.8125 4.4375 C33.204375 3.963125 33.59625 3.48875 34 3 C34.99 3 35.98 3 37 3 C36.97802182 7.84618916 36.5826797 11.90592983 33.625 15.875 C26.42493615 22.91642394 15.74951323 22.36186691 6.30273438 22.26367188 C4.80598388 22.2386196 3.30923908 22.21322495 1.8125 22.1875 C0.27279964 22.17241603 -1.26691511 22.15873423 -2.80664062 22.14648438 C-6.53806515 22.11379554 -10.26893721 22.06222161 -14 22 C-14.19118408 21.39019287 -14.38236816 20.78038574 -14.5793457 20.15209961 C-14.83804443 19.34780518 -15.09674316 18.54351074 -15.36328125 17.71484375 C-15.74286987 16.52169556 -15.74286987 16.52169556 -16.13012695 15.30444336 C-17.32137613 12.14861934 -19.05822328 9.74527053 -21 7 C-21 6.34 -21 5.68 -21 5 C-18 4 -15 3 -12 2 C-12.50603992 4.16874252 -12.99983813 5.99967627 -14 8 C-13.60167969 7.51917969 -13.20335938 7.03835937 -12.79296875 6.54296875 C-10.56549753 4.62608175 -9.21165331 4.52258357 -6.3125 4.3125 C-5.50425781 4.24675781 -4.69601563 4.18101562 -3.86328125 4.11328125 C-3.24839844 4.07589844 -2.63351563 4.03851563 -2 4 C-2 4.99 -2 5.98 -2 7 C1.63 7 5.26 7 9 7 C9 6.34 9 5.68 9 5 C7.88625 4.9175 6.7725 4.835 5.625 4.75 C4.42875 4.5025 3.2325 4.255 2 4 C1.34 2.68 0.68 1.36 0 0 Z " fill="#E3DACA" transform="translate(99,178)"/>
<path d="M0 0 C0.79019531 0.00902344 1.58039062 0.01804688 2.39453125 0.02734375 C3.28205078 0.04474609 3.28205078 0.04474609 4.1875 0.0625 C4.1875 1.0525 4.1875 2.0425 4.1875 3.0625 C3.5275 3.0625 2.8675 3.0625 2.1875 3.0625 C2.1875 3.7225 2.1875 4.3825 2.1875 5.0625 C2.744375 4.711875 3.30125 4.36125 3.875 4 C6.75093055 2.83408221 8.21681016 3.37695619 11.1875 4.0625 C12.1775 3.7325 13.1675 3.4025 14.1875 3.0625 C14.1875 4.0525 14.1875 5.0425 14.1875 6.0625 C13.5275 6.0625 12.8675 6.0625 12.1875 6.0625 C12.1875 6.7225 12.1875 7.3825 12.1875 8.0625 C13.1775 7.7325 14.1675 7.4025 15.1875 7.0625 C18.8125 7.375 18.8125 7.375 22.1875 8.0625 C22.6825 9.0525 22.6825 9.0525 23.1875 10.0625 C26.1575 10.0625 29.1275 10.0625 32.1875 10.0625 C32.1875 12.3725 32.1875 14.6825 32.1875 17.0625 C31.5275 16.0725 30.8675 15.0825 30.1875 14.0625 C30.1875 16.7025 30.1875 19.3425 30.1875 22.0625 C29.04410156 22.12308594 27.90070313 22.18367188 26.72265625 22.24609375 C25.23175695 22.33048428 23.74087225 22.41513302 22.25 22.5 C21.49525391 22.53931641 20.74050781 22.57863281 19.96289062 22.61914062 C16.26805813 22.50288024 16.26805813 22.50288024 13.1875 24.0625 C11.52132885 24.10313832 9.85361905 24.105221 8.1875 24.0625 C7.8575 22.7425 7.5275 21.4225 7.1875 20.0625 C5.8675 19.7325 4.5475 19.4025 3.1875 19.0625 C2.8575 22.3625 2.5275 25.6625 2.1875 29.0625 C-2.4325 29.0625 -7.0525 29.0625 -11.8125 29.0625 C-11.8125 23.48539934 -11.71255063 20.93137975 -9.8125 16.0625 C-10.4725 16.0625 -11.1325 16.0625 -11.8125 16.0625 C-11.8125 14.7425 -11.8125 13.4225 -11.8125 12.0625 C-11.1525 12.0625 -10.4925 12.0625 -9.8125 12.0625 C-9.8125 8.4325 -9.8125 4.8025 -9.8125 1.0625 C-6.19060828 0.33812166 -3.57484736 -0.05335593 0 0 Z " fill="#EAE3D3" transform="translate(37.8125,170.9375)"/>
<path d="M0 0 C1.83666603 5.5099981 -0.20681601 11.32211079 -2.625 16.4375 C-3.07875 17.283125 -3.5325 18.12875 -4 19 C-4 19.99 -4 20.98 -4 22 C-3.34 21.67 -2.68 21.34 -2 21 C-4.48920957 28.6939205 -10.7033861 34.21826183 -17 39 C-17.99 39.33 -18.98 39.66 -20 40 C-20 41.65 -20 43.3 -20 45 C-17.69 43.35 -15.38 41.7 -13 40 C-13.36833856 46.38453501 -13.36833856 46.38453501 -16.4375 49.375 C-20.31679956 51.83504362 -22.40022273 52.09999516 -27 52 C-28.82903102 55.21419677 -29.42865731 58.12535882 -30.0625 61.75 C-31.50608913 67.81456258 -34.0582236 70.79554996 -38.74609375 74.76953125 C-41 76 -41 76 -43.046875 75.97265625 C-45.69803227 74.65237993 -47.01327407 72.96588763 -48.8125 70.625 C-49.43769531 69.83351563 -50.06289062 69.04203125 -50.70703125 68.2265625 C-51.13371094 67.49179688 -51.56039062 66.75703125 -52 66 C-51 63 -51 63 -49.29296875 62.12109375 C-48.59816406 61.89550781 -47.90335937 61.66992188 -47.1875 61.4375 C-46.465625 61.18613281 -45.74375 60.93476562 -45 60.67578125 C-44.34 60.45277344 -43.68 60.22976562 -43 60 C-39.93574515 58.84055222 -39.23351743 58.42457715 -37.625 55.5 C-35.51714843 52.25715143 -33.63138412 52.02626073 -30 51 C-29.67 50.34 -29.34 49.68 -29 49 C-31.475 49.495 -31.475 49.495 -34 50 C-34 49.01 -34 48.02 -34 47 C-35.485 47.495 -35.485 47.495 -37 48 C-35.55536047 44.62917442 -33.75336875 42.41962708 -31 40 C-29.515 39.505 -29.515 39.505 -28 39 C-24.43436919 35.72347439 -21.36883501 32.11341325 -18.33203125 28.35546875 C-17.89246094 27.90816406 -17.45289063 27.46085937 -17 27 C-16.34 27 -15.68 27 -15 27 C-16.33333333 29.66666667 -17.66666667 32.33333333 -19 35 C-18.59007812 34.566875 -18.18015625 34.13375 -17.7578125 33.6875 C-17.21898437 33.130625 -16.68015625 32.57375 -16.125 32 C-15.59132812 31.443125 -15.05765625 30.88625 -14.5078125 30.3125 C-13 29 -13 29 -11 29 C-10.773125 28.030625 -10.54625 27.06125 -10.3125 26.0625 C-9.45174443 22.98837297 -8.21402319 20.53850816 -6.5625 17.8125 C-3.86638207 13.20762601 -2.70480633 8.59422448 -1.578125 3.40625 C-1 1 -1 1 0 0 Z " fill="#AD9580" transform="translate(119,16)"/>
<path d="M0 0 C0.66 0 1.32 0 2 0 C2.33 0.66 2.66 1.32 3 2 C3.33 1.67 3.66 1.34 4 1 C5.51469448 0.76807135 7.03754562 0.58784762 8.5625 0.4375 C9.38878906 0.35371094 10.21507812 0.26992187 11.06640625 0.18359375 C12.02353516 0.09271484 12.02353516 0.09271484 13 0 C13.0278024 1.62489571 13.0467446 3.24994283 13.0625 4.875 C13.07410156 5.77992188 13.08570313 6.68484375 13.09765625 7.6171875 C12.96808581 12.10550743 12.48988945 16.53852648 12 21 C7.78248718 21.04946113 3.56512832 21.08574827 -0.65258789 21.10986328 C-2.08718812 21.119917 -3.52176789 21.13356194 -4.95629883 21.15087891 C-7.01909438 21.17515549 -9.08161885 21.18648919 -11.14453125 21.1953125 C-12.38565674 21.20578613 -13.62678223 21.21625977 -14.90551758 21.22705078 C-18 21 -18 21 -21 19 C-22.65549531 18.61500109 -24.3222433 18.27206865 -26 18 C-24.82690214 15.45828796 -23.5091503 13.27116256 -21.9375 10.9375 C-19.89527457 8.1164266 -19.89527457 8.1164266 -19 5 C-17.68 5 -16.36 5 -15 5 C-15 5.99 -15 6.98 -15 8 C-13.68 8 -12.36 8 -11 8 C-10.67 7.01 -10.34 6.02 -10 5 C-7.69175158 4.28976972 -5.41696017 3.98738636 -3.03125 3.625 C-2.3609375 3.41875 -1.690625 3.2125 -1 3 C-0.67 2.01 -0.34 1.02 0 0 Z " fill="#E0D5C1" transform="translate(160,179)"/>
<path d="M0 0 C1.875 0.25 1.875 0.25 4 1 C5.25 3.0625 5.25 3.0625 6 5 C6 3.35 6 1.7 6 0 C8.97 0 11.94 0 15 0 C15.99 3.96 16.98 7.92 18 12 C18 9.03 18 6.06 18 3 C22 5 22 5 23 6 C23.10007008 8.82256491 23.13875598 11.6152319 23.125 14.4375 C23.13080078 15.62182617 23.13080078 15.62182617 23.13671875 16.83007812 C23.12663067 22.74673867 23.12663067 22.74673867 22 25 C21.34 25 20.68 25 20 25 C16.75332239 18.16125355 14.31893382 11.20525866 12 4 C12 8.62 12 13.24 12 18 C5.43226653 12.94789733 1.84410926 8.13577615 0 0 Z " fill="#D6D0C6" transform="translate(181,111)"/>
<path d="M0 0 C1.32 0 2.64 0 4 0 C4 1.98 4 3.96 4 6 C4.66 5.01 5.32 4.02 6 3 C7.32 3.33 8.64 3.66 10 4 C9.11774295 8.75788624 6.51361659 11.78200019 3 15 C0.25 16 0.25 16 -2 16 C-2.66 15.67 -3.32 15.34 -4 15 C-4 16.65 -4 18.3 -4 20 C-2.02 19.34 -0.04 18.68 2 18 C0.4274017 22.32464532 -1.5388257 26.12178595 -4 30 C-4.99 30.33 -5.98 30.66 -7 31 C-8.12667764 22.85608009 -8.76997973 17.81425675 -4 11 C-3.29187186 8.67891331 -2.61975848 6.34622853 -2 4 C-1.37530495 2.64649406 -0.7283669 1.30065517 0 0 Z " fill="#E4DFD5" transform="translate(35,110)"/>
<path d="M0 0 C3.68754757 0.49831724 5.60490662 1.10067643 8 4 C7.25 5.9375 7.25 5.9375 6 8 C3.875 8.75 3.875 8.75 2 9 C2 9.66 2 10.32 2 11 C-0.31 11.33 -2.62 11.66 -5 12 C-5 12.99 -5 13.98 -5 15 C-1.535 14.505 -1.535 14.505 2 14 C1.67 14.99 1.34 15.98 1 17 C-3.12973639 18.50894214 -6.63733831 19.0977838 -11 19 C-9.47263819 12.6049485 -8.16142942 8.387215 -3 4 C-1.97186389 2.68824014 -0.95915568 1.3630107 0 0 Z " fill="#DED9CF" transform="translate(47,119)"/>
<path d="M0 0 C0.99 0 1.98 0 3 0 C3.6373057 16.5935521 3.6373057 16.5935521 0 23 C-0.99 23.66 -1.98 24.32 -3 25 C-5.97556536 20.86727033 -6.40693983 17.86431715 -6.375 12.8125 C-6.38273438 11.58144531 -6.39046875 10.35039063 -6.3984375 9.08203125 C-6.26695313 8.06496094 -6.13546875 7.04789062 -6 6 C-5.01 5.34 -4.02 4.68 -3 4 C-2.67 5.32 -2.34 6.64 -2 8 C-1.855625 6.865625 -1.71125 5.73125 -1.5625 4.5625 C-1 1 -1 1 0 0 Z " fill="#F2F2EC" transform="translate(16,111)"/>
<path d="M0 0 C0.83917969 0.54140625 0.83917969 0.54140625 1.6953125 1.09375 C1.6953125 1.42375 1.6953125 1.75375 1.6953125 2.09375 C-9.1946875 2.09375 -20.0846875 2.09375 -31.3046875 2.09375 C-24.03978985 -7.5927802 -9.51514419 -5.50715741 0 0 Z " fill="#5E3835" transform="translate(79.3046875,197.90625)"/>
<path d="M0 0 C2.5625 0.1875 2.5625 0.1875 4.5625 2.1875 C7.13311311 2.83517793 7.13311311 2.83517793 9.5625 3.1875 C9.5625 4.5075 9.5625 5.8275 9.5625 7.1875 C8.36625 7.290625 7.17 7.39375 5.9375 7.5 C2.84732499 7.86515296 1.23617302 8.35386277 -1.625 9.8125 C-4.4375 11.1875 -4.4375 11.1875 -7.1875 11 C-9.4375 10.1875 -9.4375 10.1875 -11.4375 8.1875 C-11.5 6.25 -11.5 6.25 -10.4375 4.1875 C-6.9375 2.5 -6.9375 2.5 -3.4375 1.1875 C-2.4375 0.1875 -2.4375 0.1875 0 0 Z " fill="#CAC2B4" transform="translate(106.4375,-0.1875)"/>
<path d="M0 0 C2.20703125 -0.33984375 2.20703125 -0.33984375 5 0 C7.38671875 2.37109375 7.38671875 2.37109375 9.6875 5.4375 C12.35894482 9.29008353 12.35894482 9.29008353 16 12 C16.33 11.34 16.66 10.68 17 10 C16.125 14.75 16.125 14.75 15 17 C12.49609375 17.4140625 12.49609375 17.4140625 9.4375 17.625 C8.42558594 17.69976562 7.41367187 17.77453125 6.37109375 17.8515625 C5.58863281 17.90054688 4.80617188 17.94953125 4 18 C4.75 12.25 4.75 12.25 7 10 C6.78405538 7.19271994 6.41617284 5.51075758 4.625 3.3125 C2.82218647 1.81553035 2.82218647 1.81553035 0 0 Z " fill="#A09486" transform="translate(48,118)"/>
<path d="M0 0 C0.99 0 1.98 0 3 0 C3.84069415 1.60032137 4.67231505 3.20541171 5.5 4.8125 C5.9640625 5.70582031 6.428125 6.59914063 6.90625 7.51953125 C8 10 8 10 8 13 C7.34 13 6.68 13 6 13 C5.67 14.32 5.34 15.64 5 17 C4.34 17 3.68 17 3 17 C3 19.97 3 22.94 3 26 C1.02 25.34 -0.96 24.68 -3 24 C-2.01 23.67 -1.02 23.34 0 23 C0 15.41 0 7.82 0 0 Z " fill="#8F7865" transform="translate(167,118)"/>
<path d="M0 0 C0.66 0 1.32 0 2 0 C5.91058106 4.51220891 5.29469532 9.37895957 5 15 C3.1328125 15.6015625 3.1328125 15.6015625 1 16 C-2.25340497 13.51210208 -3.91757317 10.93609755 -5 7 C-4.625 4.6875 -4.625 4.6875 -4 3 C-3.01 3 -2.02 3 -1 3 C-1 2.34 -1 1.68 -1 1 C-0.67 0.67 -0.34 0.34 0 0 Z " fill="#E7E4DB" transform="translate(163,120)"/>
<path d="M0 0 C0.72380859 0.00322266 1.44761719 0.00644531 2.19335938 0.00976562 C2.90556641 -0.00634766 3.61777344 -0.02246094 4.3515625 -0.0390625 C10.30870299 -0.04457327 13.35114629 1.51198099 17.69335938 5.38476562 C19.38085938 7.32226562 19.38085938 7.32226562 19.38085938 9.32226562 C20.37085938 9.65226562 21.36085937 9.98226562 22.38085938 10.32226562 C22.38085938 11.97226563 22.38085938 13.62226562 22.38085938 15.32226562 C21.67960937 14.60039063 20.97835937 13.87851563 20.25585938 13.13476562 C13.42163672 6.35829697 8.22340914 3.29221765 -1.49414062 2.69726562 C-2.6465625 2.6225 -3.79898438 2.54773438 -4.98632812 2.47070312 C-6.28957031 2.39722656 -6.28957031 2.39722656 -7.61914062 2.32226562 C-5.0952854 -0.2015896 -3.45106438 0.03531322 0 0 Z " fill="#D9D5CD" transform="translate(187.619140625,105.677734375)"/>
<path d="M0 0 C4.875 3.75 4.875 3.75 6 6 C6.07181821 8.71760108 6.09299506 11.40859388 6.0625 14.125 C6.05798828 14.87910156 6.05347656 15.63320312 6.04882812 16.41015625 C6.03703499 18.27347127 6.01909942 20.13674555 6 22 C5.34 22 4.68 22 4 22 C-1.74031891 11.62642369 -1.74031891 11.62642369 -1 6 C1 8 1 8 2 12 C1.34 8.04 0.68 4.08 0 0 Z " fill="#E6E2DA" transform="translate(172,130)"/>
<path d="M0 0 C0.66 0 1.32 0 2 0 C2.66 2.31 3.32 4.62 4 7 C4.66 7 5.32 7 6 7 C5.85892253 8.45880109 5.71197585 9.91703551 5.5625 11.375 C5.48128906 12.18710938 5.40007812 12.99921875 5.31640625 13.8359375 C5 16 5 16 4 18 C3.34 18 2.68 18 2 18 C1.896875 17.2575 1.79375 16.515 1.6875 15.75 C1.20378862 12.96829955 1.20378862 12.96829955 -0.5625 11.125 C-2.64771236 8.04251216 -2.33602683 5.62908978 -2 2 C-1.34 1.34 -0.68 0.68 0 0 Z " fill="#BCAB98" transform="translate(194,134)"/>
<path d="M0 0 C1.9375 0.6875 1.9375 0.6875 4 2 C4.75 4.625 4.75 4.625 5 7 C6.65 7 8.3 7 10 7 C9 9 9 9 7 11 C4.24627091 11.36933645 1.79634339 11.18336678 -1 11 C-1.02688151 9.35425434 -1.04634123 7.70838587 -1.0625 6.0625 C-1.07410156 5.14597656 -1.08570313 4.22945312 -1.09765625 3.28515625 C-1 1 -1 1 0 0 Z " fill="#B1967F" transform="translate(41,189)"/>
<path d="M0 0 C0 0.66 0 1.32 0 2 C-1.79149138 3.13162539 -3.63616648 4.17946133 -5.5 5.1875 C-10.37188447 7.92541855 -14.39133667 10.81302836 -18.37890625 14.71484375 C-20 16 -20 16 -23 16 C-20.89520163 11.07117567 -17.28917317 8.9812311 -13 6 C-12.21238281 5.4328125 -11.42476562 4.865625 -10.61328125 4.28125 C-9.83339844 3.7346875 -9.05351562 3.188125 -8.25 2.625 C-7.53328125 2.12226562 -6.8165625 1.61953125 -6.078125 1.1015625 C-4 0 -4 0 0 0 Z " fill="#CFCBC2" transform="translate(172,111)"/>
<path d="M0 0 C0.99 0 1.98 0 3 0 C5.29013653 3.4352048 5.17842973 4.985331 5 9 C5.66 9 6.32 9 7 9 C7.33 8.34 7.66 7.68 8 7 C8.33 8.32 8.66 9.64 9 11 C7.081875 10.8453125 7.081875 10.8453125 5.125 10.6875 C4.04605469 10.60048828 4.04605469 10.60048828 2.9453125 10.51171875 C1 10 1 10 -1 7 C-1.1875 3.875 -1.1875 3.875 -1 1 C-0.67 0.67 -0.34 0.34 0 0 Z " fill="#C5BDB1" transform="translate(153,128)"/>
<path d="M0 0 C-0.70554068 3.66881155 -2.27735506 6.70450534 -4 10 C-4.99 10 -5.98 10 -7 10 C-7 9.34 -7 8.68 -7 8 C-9.31 8.33 -11.62 8.66 -14 9 C-14 8.01 -14 7.02 -14 6 C-10.535 5.505 -10.535 5.505 -7 5 C-7 4.34 -7 3.68 -7 3 C-2.61538462 0 -2.61538462 0 0 0 Z " fill="#8D7C6C" transform="translate(56,125)"/>
<path d="M0 0 C0.99 0.66 1.98 1.32 3 2 C2.125 9.625 2.125 9.625 1 13 C0.34 13 -0.32 13 -1 13 C-3.4294516 9.3558226 -3.16179575 7.28758728 -3 3 C-2.67 3.66 -2.34 4.32 -2 5 C-1.34 5 -0.68 5 0 5 C0 3.35 0 1.7 0 0 Z " fill="#F3F3EE" transform="translate(3,184)"/>
<path d="M0 0 C0 0.99 0 1.98 0 3 C0.99 3.33 1.98 3.66 3 4 C3 4.99 3 5.98 3 7 C0.69 6.67 -1.62 6.34 -4 6 C-4 6.66 -4 7.32 -4 8 C-4.66 8 -5.32 8 -6 8 C-5.62403791 5.21788056 -5.32681541 3.4120716 -3.5625 1.1875 C-2 0 -2 0 0 0 Z " fill="#DED7CA" transform="translate(58,127)"/>
<path d="M0 0 C2.375 -0.125 2.375 -0.125 5 0 C5.66 0.66 6.32 1.32 7 2 C9.57061311 2.64767793 9.57061311 2.64767793 12 3 C12 4.32 12 5.64 12 7 C10.02 7 8.04 7 6 7 C6 5.68 6 4.36 6 3 C4.02 2.34 2.04 1.68 0 1 C0 0.67 0 0.34 0 0 Z " fill="#C4B4A4" transform="translate(104,0)"/>
<path d="M0 0 C0.66 0 1.32 0 2 0 C2 3.3 2 6.6 2 10 C1.01 10 0.02 10 -1 10 C-2.23076923 4.58461538 -2.23076923 4.58461538 -1.0625 1.625 C-0.5365625 0.820625 -0.5365625 0.820625 0 0 Z " fill="#B7AC9E" transform="translate(38,42)"/>
<path d="M0 0 C0.66 0 1.32 0 2 0 C4.04169485 2.90548882 5 4.40142046 5 8 C3.68 8 2.36 8 1 8 C-0.35439668 5.29120665 -0.06501451 2.99066732 0 0 Z " fill="#EBEAE3" transform="translate(152,129)"/>
<path d="M0 0 C2.31 0 4.62 0 7 0 C7 1.32 7 2.64 7 4 C5.35 4 3.7 4 2 4 C1.34 2.68 0.68 1.36 0 0 Z " fill="#DACFBC" transform="translate(54,171)"/>
<path d="M0 0 C1.65 0.33 3.3 0.66 5 1 C4.67 2.32 4.34 3.64 4 5 C2.35 4.67 0.7 4.34 -1 4 C-0.67 2.68 -0.34 1.36 0 0 Z " fill="#E3DED3" transform="translate(96,4)"/>
<path d="M0 0 C2.475 0.495 2.475 0.495 5 1 C5.33 2.32 5.66 3.64 6 5 C4.35 5 2.7 5 1 5 C0.67 3.35 0.34 1.7 0 0 Z " fill="#E7DFCD" transform="translate(35,164)"/>
<path d="M0 0 C0.33 0 0.66 0 1 0 C1.33 1.98 1.66 3.96 2 6 C2.66 6 3.32 6 4 6 C4 6.66 4 7.32 4 8 C2.02 8 0.04 8 -2 8 C-1.125 1.125 -1.125 1.125 0 0 Z " fill="#675649" transform="translate(42,192)"/>
<path d="M0 0 C1.65 0.99 3.3 1.98 5 3 C4.67 4.32 4.34 5.64 4 7 C2.68 6.67 1.36 6.34 0 6 C0 4.02 0 2.04 0 0 Z " fill="#E2DED5" transform="translate(28,158)"/>
<path d="M0 0 C2.31 0 4.62 0 7 0 C6.67 0.99 6.34 1.98 6 3 C4.02 3 2.04 3 0 3 C0 2.01 0 1.02 0 0 Z " fill="#C8B8A4" transform="translate(79,176)"/>
<path d="M0 0 C2.31 0 4.62 0 7 0 C7 0.99 7 1.98 7 3 C5.02 3 3.04 3 1 3 C0.67 2.01 0.34 1.02 0 0 Z " fill="#D0C2AD" transform="translate(65,173)"/>
<path d="M0 0 C-0.33 0.66 -0.66 1.32 -1 2 C-3.32156597 2.40729228 -5.6568787 2.74438677 -8 3 C-8 2.01 -8 1.02 -8 0 C-4.71303767 -0.79953138 -3.28976808 -1.09658936 0 0 Z " fill="#C7BFB3" transform="translate(80,12)"/>
</svg>
