<svg xmlns="http://www.w3.org/2000/svg" xmlns:xlink="http://www.w3.org/1999/xlink" width="640" zoomAndPan="magnify" viewBox="0 0 480 149.999998" height="200" preserveAspectRatio="xMidYMid meet" version="1.0"><defs><g/><clipPath id="48b1132b54"><path d="M 4.207031 86.488281 L 334.207031 86.488281 L 334.207031 90.988281 L 4.207031 90.988281 Z M 4.207031 86.488281 " clip-rule="nonzero"/></clipPath><clipPath id="1642428e1c"><rect x="0" width="448" y="0" height="47"/></clipPath></defs><g clip-path="url(#48b1132b54)"><path fill="#f27d00" d="M 4.460938 86.75 L 334.21875 86.75 L 334.21875 90.496094 L 4.460938 90.496094 Z M 4.460938 86.75 " fill-opacity="1" fill-rule="nonzero"/><path fill="#f27d00" d="M 334.476562 90.753906 L 4.207031 90.753906 L 4.207031 86.492188 L 334.476562 86.492188 Z M 4.714844 90.242188 L 333.964844 90.242188 L 333.964844 87.003906 L 4.714844 87.003906 Z M 4.714844 90.242188 " fill-opacity="1" fill-rule="nonzero"/></g><g transform="matrix(1, 0, 0, 1, 5, 35)"><g clip-path="url(#1642428e1c)"><g fill="#000000" fill-opacity="1"><g transform="translate(0.705602, 40.912087)"><g><path d="M 27.625 -32.265625 L 27.625 -30.546875 L 17.984375 -30.546875 L 17.984375 -1.71875 L 27.625 -1.71875 L 27.625 0 L 6.71875 0 L 6.71875 -1.71875 L 16.3125 -1.71875 L 16.3125 -30.546875 L 6.71875 -30.546875 L 6.71875 -32.265625 Z M 27.625 -32.265625 "/></g></g></g><g fill="#000000" fill-opacity="1"><g transform="translate(35.010463, 40.912087)"><g><path d="M 4.546875 0 L 4.546875 -32.265625 L 6.34375 -32.265625 L 28.875 -10.390625 L 28.875 -32.265625 L 30.59375 -32.265625 L 30.59375 0 L 28.875 0 L 28.875 -7.96875 L 6.265625 -30.046875 L 6.265625 0 Z M 4.546875 0 "/></g></g></g><g fill="#000000" fill-opacity="1"><g transform="translate(69.315324, 40.912087)"><g><path d="M 30.1875 -32.265625 L 30.1875 -30.546875 L 17.984375 -30.546875 L 17.984375 0 L 16.3125 0 L 16.3125 -30.546875 L 4.125 -30.546875 L 4.125 -32.265625 Z M 30.1875 -32.265625 "/></g></g></g><g fill="#000000" fill-opacity="1"><g transform="translate(103.620185, 40.912087)"><g><path d="M 6.03125 -32.265625 L 28.75 -32.265625 L 28.75 -30.546875 L 7.734375 -30.546875 L 7.734375 -17.484375 L 26 -17.484375 L 26 -15.765625 L 7.734375 -15.765625 L 7.734375 -1.71875 L 28.75 -1.71875 L 28.75 0 L 6.03125 0 Z M 6.03125 -32.265625 "/></g></g></g><g fill="#000000" fill-opacity="1"><g transform="translate(137.925046, 40.912087)"><g><path d="M 24.15625 -31.203125 C 26.007812 -30.335938 27.46875 -29.050781 28.53125 -27.34375 C 29.601562 -25.644531 30.140625 -23.765625 30.140625 -21.703125 C 30.140625 -19.285156 29.40625 -17.125 27.9375 -15.21875 C 26.46875 -13.320312 24.585938 -12.066406 22.296875 -11.453125 L 30.5 0 L 28.46875 0 L 20.53125 -11.125 L 19.046875 -11.078125 L 7.421875 -11.078125 L 7.421875 0 L 5.703125 0 L 5.703125 -32.265625 L 17.984375 -32.265625 C 19.347656 -32.265625 20.515625 -32.175781 21.484375 -32 C 22.460938 -31.832031 23.351562 -31.566406 24.15625 -31.203125 Z M 19.515625 -12.796875 C 21.117188 -12.796875 22.597656 -13.195312 23.953125 -14 C 25.316406 -14.800781 26.398438 -15.878906 27.203125 -17.234375 C 28.015625 -18.597656 28.421875 -20.085938 28.421875 -21.703125 C 28.421875 -23.492188 27.945312 -25.113281 27 -26.5625 C 26.0625 -28.019531 24.757812 -29.101562 23.09375 -29.8125 C 21.882812 -30.300781 20.179688 -30.546875 17.984375 -30.546875 L 7.421875 -30.546875 L 7.421875 -12.796875 Z M 19.515625 -12.796875 "/></g></g></g><g fill="#000000" fill-opacity="1"><g transform="translate(172.229906, 40.912087)"><g><path d="M 4.546875 0 L 4.546875 -32.265625 L 6.34375 -32.265625 L 28.875 -10.390625 L 28.875 -32.265625 L 30.59375 -32.265625 L 30.59375 0 L 28.875 0 L 28.875 -7.96875 L 6.265625 -30.046875 L 6.265625 0 Z M 4.546875 0 "/></g></g></g><g fill="#000000" fill-opacity="1"><g transform="translate(206.534767, 40.912087)"><g><path d="M 16.265625 -32.265625 L 18.078125 -32.265625 L 31.34375 0 L 29.484375 0 L 25.125 -10.65625 L 9.21875 -10.65625 L 4.828125 0 L 3.015625 0 Z M 9.921875 -12.328125 L 24.4375 -12.328125 L 17.15625 -30.046875 Z M 9.921875 -12.328125 "/></g></g></g><g fill="#000000" fill-opacity="1"><g transform="translate(240.839628, 40.912087)"><g><path d="M 30.1875 -32.265625 L 30.1875 -30.546875 L 17.984375 -30.546875 L 17.984375 0 L 16.3125 0 L 16.3125 -30.546875 L 4.125 -30.546875 L 4.125 -32.265625 Z M 30.1875 -32.265625 "/></g></g></g><g fill="#000000" fill-opacity="1"><g transform="translate(275.144489, 40.912087)"><g><path d="M 27.625 -32.265625 L 27.625 -30.546875 L 17.984375 -30.546875 L 17.984375 -1.71875 L 27.625 -1.71875 L 27.625 0 L 6.71875 0 L 6.71875 -1.71875 L 16.3125 -1.71875 L 16.3125 -30.546875 L 6.71875 -30.546875 L 6.71875 -32.265625 Z M 27.625 -32.265625 "/></g></g></g><g fill="#000000" fill-opacity="1"><g transform="translate(309.44935, 40.912087)"><g><path d="M 17.15625 -32.96875 C 19.5625 -32.96875 21.785156 -32.367188 23.828125 -31.171875 C 25.867188 -29.984375 27.484375 -28.367188 28.671875 -26.328125 C 29.859375 -24.285156 30.453125 -22.0625 30.453125 -19.65625 L 30.453125 -12.609375 C 30.453125 -10.203125 29.859375 -7.976562 28.671875 -5.9375 C 27.484375 -3.894531 25.867188 -2.273438 23.828125 -1.078125 C 21.785156 0.109375 19.5625 0.703125 17.15625 0.703125 C 14.738281 0.703125 12.507812 0.109375 10.46875 -1.078125 C 8.4375 -2.273438 6.820312 -3.894531 5.625 -5.9375 C 4.4375 -7.976562 3.84375 -10.203125 3.84375 -12.609375 L 3.84375 -19.65625 C 3.84375 -22.0625 4.4375 -24.285156 5.625 -26.328125 C 6.820312 -28.367188 8.4375 -29.984375 10.46875 -31.171875 C 12.507812 -32.367188 14.738281 -32.96875 17.15625 -32.96875 Z M 5.5625 -12.609375 C 5.5625 -10.503906 6.078125 -8.5625 7.109375 -6.78125 C 8.148438 -5.007812 9.554688 -3.601562 11.328125 -2.5625 C 13.109375 -1.53125 15.050781 -1.015625 17.15625 -1.015625 C 19.257812 -1.015625 21.195312 -1.53125 22.96875 -2.5625 C 24.75 -3.601562 26.15625 -5.007812 27.1875 -6.78125 C 28.226562 -8.5625 28.75 -10.503906 28.75 -12.609375 L 28.75 -19.65625 C 28.75 -21.757812 28.226562 -23.695312 27.1875 -25.46875 C 26.15625 -27.25 24.75 -28.65625 22.96875 -29.6875 C 21.195312 -30.726562 19.257812 -31.25 17.15625 -31.25 C 15.050781 -31.25 13.109375 -30.726562 11.328125 -29.6875 C 9.554688 -28.65625 8.148438 -27.25 7.109375 -25.46875 C 6.078125 -23.695312 5.5625 -21.757812 5.5625 -19.65625 Z M 5.5625 -12.609375 "/></g></g></g><g fill="#000000" fill-opacity="1"><g transform="translate(343.754211, 40.912087)"><g><path d="M 4.546875 0 L 4.546875 -32.265625 L 6.34375 -32.265625 L 28.875 -10.390625 L 28.875 -32.265625 L 30.59375 -32.265625 L 30.59375 0 L 28.875 0 L 28.875 -7.96875 L 6.265625 -30.046875 L 6.265625 0 Z M 4.546875 0 "/></g></g></g><g fill="#000000" fill-opacity="1"><g transform="translate(378.059072, 40.912087)"><g><path d="M 16.265625 -32.265625 L 18.078125 -32.265625 L 31.34375 0 L 29.484375 0 L 25.125 -10.65625 L 9.21875 -10.65625 L 4.828125 0 L 3.015625 0 Z M 9.921875 -12.328125 L 24.4375 -12.328125 L 17.15625 -30.046875 Z M 9.921875 -12.328125 "/></g></g></g><g fill="#000000" fill-opacity="1"><g transform="translate(412.363933, 40.912087)"><g><path d="M 7.1875 0 L 7.1875 -32.265625 L 8.90625 -32.265625 L 8.90625 -1.71875 L 31.390625 -1.71875 L 31.390625 0 Z M 7.1875 0 "/></g></g></g></g></g><g fill="#000000" fill-opacity="1"><g transform="translate(4.20526, 117.660077)"><g><path d="M 1.671875 -24.140625 L 17.75 -24.140625 L 17.75 -20.78125 L 11.359375 -20.78125 L 11.359375 0 L 7.859375 0 L 7.859375 -20.78125 L 1.671875 -20.78125 Z M 1.671875 -24.140625 "/></g></g></g><g fill="#000000" fill-opacity="1"><g transform="translate(23.581789, 117.660077)"><g><path d="M 2.625 0 L 2.625 -25.875 L 5.921875 -25.875 L 5.921875 -10.75 L 5.859375 -11.328125 C 6.347656 -12.234375 7.066406 -12.976562 8.015625 -13.5625 C 8.972656 -14.15625 10.117188 -14.453125 11.453125 -14.453125 C 12.765625 -14.453125 13.84375 -14.066406 14.6875 -13.296875 C 15.53125 -12.535156 15.960938 -11.53125 15.984375 -10.28125 L 15.984375 0 L 12.625 0 L 12.625 -9.125 C 12.601562 -9.832031 12.390625 -10.410156 11.984375 -10.859375 C 11.585938 -11.316406 10.96875 -11.5625 10.125 -11.59375 C 8.945312 -11.59375 7.960938 -11.097656 7.171875 -10.109375 C 6.390625 -9.117188 6 -7.867188 6 -6.359375 L 6 0 Z M 2.625 0 "/></g></g></g><g fill="#000000" fill-opacity="1"><g transform="translate(42.225873, 117.660077)"><g><path d="M 9.15625 0.328125 C 7.5625 0.328125 6.1875 0.015625 5.03125 -0.609375 C 3.875 -1.242188 2.984375 -2.117188 2.359375 -3.234375 C 1.742188 -4.359375 1.4375 -5.632812 1.4375 -7.0625 C 1.4375 -8.4375 1.785156 -9.679688 2.484375 -10.796875 C 3.179688 -11.921875 4.117188 -12.816406 5.296875 -13.484375 C 6.472656 -14.148438 7.78125 -14.484375 9.21875 -14.484375 C 11.082031 -14.484375 12.628906 -13.941406 13.859375 -12.859375 C 15.097656 -11.785156 15.925781 -10.273438 16.34375 -8.328125 L 5 -4.390625 L 4.203125 -6.328125 L 13.3125 -9.65625 L 12.625 -9.1875 C 12.351562 -9.894531 11.925781 -10.507812 11.34375 -11.03125 C 10.769531 -11.5625 9.984375 -11.828125 8.984375 -11.828125 C 7.742188 -11.828125 6.726562 -11.394531 5.9375 -10.53125 C 5.15625 -9.675781 4.765625 -8.585938 4.765625 -7.265625 C 4.765625 -5.835938 5.1875 -4.691406 6.03125 -3.828125 C 6.875 -2.960938 7.9375 -2.53125 9.21875 -2.53125 C 9.820312 -2.53125 10.398438 -2.632812 10.953125 -2.84375 C 11.503906 -3.050781 12.023438 -3.335938 12.515625 -3.703125 L 14.046875 -1.203125 C 13.335938 -0.734375 12.554688 -0.359375 11.703125 -0.078125 C 10.847656 0.191406 10 0.328125 9.15625 0.328125 Z M 9.15625 0.328125 "/></g></g></g><g fill="#000000" fill-opacity="1"><g transform="translate(59.704696, 117.660077)"><g/></g></g><g fill="#000000" fill-opacity="1"><g transform="translate(64.032783, 117.660077)"><g><path d="M 11.75 -13.921875 L 15.65625 -4.890625 L 15.015625 -4.859375 L 18.609375 -13.921875 L 21.90625 -13.921875 L 15.546875 0.828125 L 11.09375 -8.65625 L 7 0.828125 L 0.59375 -13.921875 L 3.859375 -13.921875 L 8.03125 -4.46875 L 6.859375 -4.65625 L 9.890625 -11.65625 L 8.828125 -13.921875 Z M 11.75 -13.921875 "/></g></g></g><g fill="#000000" fill-opacity="1"><g transform="translate(86.538858, 117.660077)"><g><path d="M 1.4375 -7.09375 C 1.4375 -8.488281 1.765625 -9.742188 2.421875 -10.859375 C 3.085938 -11.984375 4.007812 -12.867188 5.1875 -13.515625 C 6.363281 -14.160156 7.707031 -14.484375 9.21875 -14.484375 C 10.75 -14.484375 12.085938 -14.160156 13.234375 -13.515625 C 14.378906 -12.867188 15.265625 -11.984375 15.890625 -10.859375 C 16.523438 -9.742188 16.84375 -8.488281 16.84375 -7.09375 C 16.84375 -5.695312 16.519531 -4.4375 15.875 -3.3125 C 15.238281 -2.1875 14.347656 -1.296875 13.203125 -0.640625 C 12.054688 0.00390625 10.707031 0.328125 9.15625 0.328125 C 7.6875 0.328125 6.367188 0.03125 5.203125 -0.5625 C 4.046875 -1.164062 3.128906 -2.023438 2.453125 -3.140625 C 1.773438 -4.265625 1.4375 -5.582031 1.4375 -7.09375 Z M 4.828125 -7.0625 C 4.828125 -6.195312 5.015625 -5.410156 5.390625 -4.703125 C 5.765625 -4.003906 6.28125 -3.453125 6.9375 -3.046875 C 7.59375 -2.640625 8.320312 -2.4375 9.125 -2.4375 C 10.382812 -2.4375 11.421875 -2.878906 12.234375 -3.765625 C 13.046875 -4.648438 13.453125 -5.75 13.453125 -7.0625 C 13.453125 -8.375 13.046875 -9.476562 12.234375 -10.375 C 11.421875 -11.269531 10.382812 -11.71875 9.125 -11.71875 C 8.300781 -11.71875 7.566406 -11.503906 6.921875 -11.078125 C 6.273438 -10.660156 5.765625 -10.097656 5.390625 -9.390625 C 5.015625 -8.679688 4.828125 -7.90625 4.828125 -7.0625 Z M 4.828125 -7.0625 "/></g></g></g><g fill="#000000" fill-opacity="1"><g transform="translate(104.816719, 117.660077)"><g><path d="M 5.625 -13.921875 L 5.953125 -9.921875 L 5.828125 -10.453125 C 6.203125 -11.296875 6.726562 -12.015625 7.40625 -12.609375 C 8.082031 -13.210938 8.789062 -13.675781 9.53125 -14 C 10.28125 -14.320312 10.910156 -14.484375 11.421875 -14.484375 L 11.25 -11.15625 C 10.207031 -11.21875 9.289062 -11.015625 8.5 -10.546875 C 7.71875 -10.085938 7.101562 -9.46875 6.65625 -8.6875 C 6.21875 -7.914062 6 -7.082031 6 -6.1875 L 6 0 L 2.625 0 L 2.625 -13.921875 Z M 5.625 -13.921875 "/></g></g></g><g fill="#000000" fill-opacity="1"><g transform="translate(117.50135, 117.660077)"><g><path d="M 2.625 -25.875 L 6 -25.875 L 6 0 L 2.625 0 Z M 2.625 -25.875 "/></g></g></g><g fill="#000000" fill-opacity="1"><g transform="translate(126.124244, 117.660077)"><g><path d="M 8.328125 0.328125 C 7.015625 0.328125 5.835938 0.0234375 4.796875 -0.578125 C 3.753906 -1.191406 2.929688 -2.0625 2.328125 -3.1875 C 1.734375 -4.320312 1.4375 -5.644531 1.4375 -7.15625 C 1.4375 -8.707031 1.753906 -10.023438 2.390625 -11.109375 C 3.035156 -12.203125 3.90625 -13.035156 5 -13.609375 C 6.101562 -14.191406 7.34375 -14.484375 8.71875 -14.484375 C 9.789062 -14.484375 10.804688 -14.265625 11.765625 -13.828125 C 12.734375 -13.398438 13.492188 -12.796875 14.046875 -12.015625 L 13.921875 -10.859375 L 13.921875 -25.875 L 17.28125 -25.875 L 17.28125 0 L 13.890625 0 L 13.890625 -3.328125 L 14.25 -2.4375 C 13.582031 -1.632812 12.742188 -0.972656 11.734375 -0.453125 C 10.722656 0.0664062 9.585938 0.328125 8.328125 0.328125 Z M 9.359375 -2.5 C 10.535156 -2.5 11.515625 -2.800781 12.296875 -3.40625 C 13.085938 -4.019531 13.617188 -4.835938 13.890625 -5.859375 L 13.890625 -8.625 C 13.640625 -9.550781 13.097656 -10.316406 12.265625 -10.921875 C 11.429688 -11.523438 10.460938 -11.828125 9.359375 -11.828125 C 8.554688 -11.828125 7.8125 -11.628906 7.125 -11.234375 C 6.4375 -10.847656 5.882812 -10.304688 5.46875 -9.609375 C 5.0625 -8.910156 4.859375 -8.101562 4.859375 -7.1875 C 4.859375 -6.320312 5.0625 -5.535156 5.46875 -4.828125 C 5.882812 -4.117188 6.4375 -3.550781 7.125 -3.125 C 7.8125 -2.707031 8.554688 -2.5 9.359375 -2.5 Z M 9.359375 -2.5 "/></g></g></g><g fill="#000000" fill-opacity="1"><g transform="translate(146.03346, 117.660077)"><g/></g></g><g fill="#000000" fill-opacity="1"><g transform="translate(150.361547, 117.660077)"><g><path d="M 3.796875 0 L 3.796875 -10.921875 L 1.4375 -10.921875 L 1.4375 -13.921875 L 3.796875 -13.921875 L 3.796875 -19.609375 C 3.796875 -21.585938 4.265625 -23.125 5.203125 -24.21875 C 6.148438 -25.320312 7.535156 -25.875 9.359375 -25.875 C 9.847656 -25.875 10.382812 -25.800781 10.96875 -25.65625 C 11.5625 -25.507812 12.085938 -25.28125 12.546875 -24.96875 L 11.125 -22.546875 C 10.925781 -22.765625 10.695312 -22.910156 10.4375 -22.984375 C 10.1875 -23.066406 9.9375 -23.109375 9.6875 -23.109375 C 8.914062 -23.109375 8.300781 -22.832031 7.84375 -22.28125 C 7.382812 -21.738281 7.15625 -20.828125 7.15625 -19.546875 L 7.15625 -13.921875 L 11.546875 -13.921875 L 11.546875 -10.921875 L 7.15625 -10.921875 L 7.15625 0 Z M 3.796875 0 "/></g></g></g><g fill="#000000" fill-opacity="1"><g transform="translate(163.279237, 117.660077)"><g><path d="M 5.625 -13.921875 L 5.953125 -9.921875 L 5.828125 -10.453125 C 6.203125 -11.296875 6.726562 -12.015625 7.40625 -12.609375 C 8.082031 -13.210938 8.789062 -13.675781 9.53125 -14 C 10.28125 -14.320312 10.910156 -14.484375 11.421875 -14.484375 L 11.25 -11.15625 C 10.207031 -11.21875 9.289062 -11.015625 8.5 -10.546875 C 7.71875 -10.085938 7.101562 -9.46875 6.65625 -8.6875 C 6.21875 -7.914062 6 -7.082031 6 -6.1875 L 6 0 L 2.625 0 L 2.625 -13.921875 Z M 5.625 -13.921875 "/></g></g></g><g fill="#000000" fill-opacity="1"><g transform="translate(175.963867, 117.660077)"><g><path d="M 1.4375 -7.09375 C 1.4375 -8.488281 1.765625 -9.742188 2.421875 -10.859375 C 3.085938 -11.984375 4.007812 -12.867188 5.1875 -13.515625 C 6.363281 -14.160156 7.707031 -14.484375 9.21875 -14.484375 C 10.75 -14.484375 12.085938 -14.160156 13.234375 -13.515625 C 14.378906 -12.867188 15.265625 -11.984375 15.890625 -10.859375 C 16.523438 -9.742188 16.84375 -8.488281 16.84375 -7.09375 C 16.84375 -5.695312 16.519531 -4.4375 15.875 -3.3125 C 15.238281 -2.1875 14.347656 -1.296875 13.203125 -0.640625 C 12.054688 0.00390625 10.707031 0.328125 9.15625 0.328125 C 7.6875 0.328125 6.367188 0.03125 5.203125 -0.5625 C 4.046875 -1.164062 3.128906 -2.023438 2.453125 -3.140625 C 1.773438 -4.265625 1.4375 -5.582031 1.4375 -7.09375 Z M 4.828125 -7.0625 C 4.828125 -6.195312 5.015625 -5.410156 5.390625 -4.703125 C 5.765625 -4.003906 6.28125 -3.453125 6.9375 -3.046875 C 7.59375 -2.640625 8.320312 -2.4375 9.125 -2.4375 C 10.382812 -2.4375 11.421875 -2.878906 12.234375 -3.765625 C 13.046875 -4.648438 13.453125 -5.75 13.453125 -7.0625 C 13.453125 -8.375 13.046875 -9.476562 12.234375 -10.375 C 11.421875 -11.269531 10.382812 -11.71875 9.125 -11.71875 C 8.300781 -11.71875 7.566406 -11.503906 6.921875 -11.078125 C 6.273438 -10.660156 5.765625 -10.097656 5.390625 -9.390625 C 5.015625 -8.679688 4.828125 -7.90625 4.828125 -7.0625 Z M 4.828125 -7.0625 "/></g></g></g><g fill="#000000" fill-opacity="1"><g transform="translate(194.241728, 117.660077)"><g><path d="M 5.65625 -13.921875 L 5.953125 -10.890625 L 5.796875 -11.15625 C 6.304688 -12.195312 7.03125 -13.007812 7.96875 -13.59375 C 8.914062 -14.1875 10 -14.484375 11.21875 -14.484375 C 12.375 -14.484375 13.335938 -14.21875 14.109375 -13.6875 C 14.890625 -13.15625 15.367188 -12.398438 15.546875 -11.421875 L 15.390625 -11.28125 C 15.941406 -12.28125 16.679688 -13.0625 17.609375 -13.625 C 18.546875 -14.195312 19.523438 -14.484375 20.546875 -14.484375 C 21.921875 -14.484375 23.003906 -14.097656 23.796875 -13.328125 C 24.597656 -12.566406 25.015625 -11.566406 25.046875 -10.328125 L 25.046875 0 L 21.703125 0 L 21.703125 -9.0625 C 21.679688 -9.769531 21.519531 -10.351562 21.21875 -10.8125 C 20.925781 -11.28125 20.390625 -11.539062 19.609375 -11.59375 C 18.804688 -11.59375 18.097656 -11.347656 17.484375 -10.859375 C 16.878906 -10.367188 16.40625 -9.734375 16.0625 -8.953125 C 15.71875 -8.179688 15.535156 -7.347656 15.515625 -6.453125 L 15.515625 0 L 12.15625 0 L 12.15625 -9.0625 C 12.132812 -9.769531 11.960938 -10.351562 11.640625 -10.8125 C 11.316406 -11.28125 10.765625 -11.539062 9.984375 -11.59375 C 9.210938 -11.59375 8.519531 -11.347656 7.90625 -10.859375 C 7.300781 -10.367188 6.832031 -9.726562 6.5 -8.9375 C 6.164062 -8.15625 6 -7.316406 6 -6.421875 L 6 0 L 2.625 0 L 2.625 -13.921875 Z M 5.65625 -13.921875 "/></g></g></g><g fill="#000000" fill-opacity="1"><g transform="translate(221.90822, 117.660077)"><g/></g></g><g fill="#000000" fill-opacity="1"><g transform="translate(226.236306, 117.660077)"><g><path d="M 1.4375 -7.09375 C 1.4375 -8.488281 1.765625 -9.742188 2.421875 -10.859375 C 3.085938 -11.984375 4.007812 -12.867188 5.1875 -13.515625 C 6.363281 -14.160156 7.707031 -14.484375 9.21875 -14.484375 C 10.75 -14.484375 12.085938 -14.160156 13.234375 -13.515625 C 14.378906 -12.867188 15.265625 -11.984375 15.890625 -10.859375 C 16.523438 -9.742188 16.84375 -8.488281 16.84375 -7.09375 C 16.84375 -5.695312 16.519531 -4.4375 15.875 -3.3125 C 15.238281 -2.1875 14.347656 -1.296875 13.203125 -0.640625 C 12.054688 0.00390625 10.707031 0.328125 9.15625 0.328125 C 7.6875 0.328125 6.367188 0.03125 5.203125 -0.5625 C 4.046875 -1.164062 3.128906 -2.023438 2.453125 -3.140625 C 1.773438 -4.265625 1.4375 -5.582031 1.4375 -7.09375 Z M 4.828125 -7.0625 C 4.828125 -6.195312 5.015625 -5.410156 5.390625 -4.703125 C 5.765625 -4.003906 6.28125 -3.453125 6.9375 -3.046875 C 7.59375 -2.640625 8.320312 -2.4375 9.125 -2.4375 C 10.382812 -2.4375 11.421875 -2.878906 12.234375 -3.765625 C 13.046875 -4.648438 13.453125 -5.75 13.453125 -7.0625 C 13.453125 -8.375 13.046875 -9.476562 12.234375 -10.375 C 11.421875 -11.269531 10.382812 -11.71875 9.125 -11.71875 C 8.300781 -11.71875 7.566406 -11.503906 6.921875 -11.078125 C 6.273438 -10.660156 5.765625 -10.097656 5.390625 -9.390625 C 5.015625 -8.679688 4.828125 -7.90625 4.828125 -7.0625 Z M 4.828125 -7.0625 "/></g></g></g><g fill="#000000" fill-opacity="1"><g transform="translate(244.514167, 117.660077)"><g><path d="M 7.09375 0.5625 C 5.800781 0.5625 4.742188 0.175781 3.921875 -0.59375 C 3.109375 -1.375 2.675781 -2.375 2.625 -3.59375 L 2.625 -13.921875 L 6 -13.921875 L 6 -4.796875 C 6.039062 -4.066406 6.25 -3.476562 6.625 -3.03125 C 7 -2.582031 7.597656 -2.335938 8.421875 -2.296875 C 9.179688 -2.296875 9.859375 -2.519531 10.453125 -2.96875 C 11.054688 -3.425781 11.53125 -4.054688 11.875 -4.859375 C 12.21875 -5.660156 12.390625 -6.5625 12.390625 -7.5625 L 12.390625 -13.921875 L 15.75 -13.921875 L 15.75 0 L 12.71875 0 L 12.453125 -3.265625 L 12.59375 -2.734375 C 12.164062 -1.773438 11.457031 -0.984375 10.46875 -0.359375 C 9.476562 0.253906 8.351562 0.5625 7.09375 0.5625 Z M 7.09375 0.5625 "/></g></g></g><g fill="#000000" fill-opacity="1"><g transform="translate(262.925215, 117.660077)"><g><path d="M 5.625 -13.921875 L 5.953125 -9.921875 L 5.828125 -10.453125 C 6.203125 -11.296875 6.726562 -12.015625 7.40625 -12.609375 C 8.082031 -13.210938 8.789062 -13.675781 9.53125 -14 C 10.28125 -14.320312 10.910156 -14.484375 11.421875 -14.484375 L 11.25 -11.15625 C 10.207031 -11.21875 9.289062 -11.015625 8.5 -10.546875 C 7.71875 -10.085938 7.101562 -9.46875 6.65625 -8.6875 C 6.21875 -7.914062 6 -7.082031 6 -6.1875 L 6 0 L 2.625 0 L 2.625 -13.921875 Z M 5.625 -13.921875 "/></g></g></g><g fill="#000000" fill-opacity="1"><g transform="translate(275.609846, 117.660077)"><g/></g></g><g fill="#000000" fill-opacity="1"><g transform="translate(279.93791, 117.660077)"><g><path d="M 8.421875 0.40625 L 0.59375 -13.921875 L 4.5625 -13.921875 L 9.71875 -3.09375 L 7.65625 -3.203125 L 12.359375 -13.921875 L 16.078125 -13.921875 L 8.59375 0.40625 Z M 8.421875 0.40625 "/></g></g></g><g fill="#000000" fill-opacity="1"><g transform="translate(296.584439, 117.660077)"><g><path d="M 2.625 -13.921875 L 6 -13.921875 L 6 0 L 2.625 0 Z M 2.46875 -18.921875 C 2.46875 -19.429688 2.671875 -19.863281 3.078125 -20.21875 C 3.492188 -20.570312 3.941406 -20.75 4.421875 -20.75 C 4.910156 -20.75 5.351562 -20.570312 5.75 -20.21875 C 6.15625 -19.863281 6.359375 -19.429688 6.359375 -18.921875 C 6.359375 -18.359375 6.15625 -17.910156 5.75 -17.578125 C 5.351562 -17.253906 4.910156 -17.09375 4.421875 -17.09375 C 3.941406 -17.09375 3.492188 -17.253906 3.078125 -17.578125 C 2.671875 -17.910156 2.46875 -18.359375 2.46875 -18.921875 Z M 2.46875 -18.921875 "/></g></g></g><g fill="#000000" fill-opacity="1"><g transform="translate(305.207333, 117.660077)"><g><path d="M 9.15625 0.328125 C 7.5625 0.328125 6.1875 0.015625 5.03125 -0.609375 C 3.875 -1.242188 2.984375 -2.117188 2.359375 -3.234375 C 1.742188 -4.359375 1.4375 -5.632812 1.4375 -7.0625 C 1.4375 -8.4375 1.785156 -9.679688 2.484375 -10.796875 C 3.179688 -11.921875 4.117188 -12.816406 5.296875 -13.484375 C 6.472656 -14.148438 7.78125 -14.484375 9.21875 -14.484375 C 11.082031 -14.484375 12.628906 -13.941406 13.859375 -12.859375 C 15.097656 -11.785156 15.925781 -10.273438 16.34375 -8.328125 L 5 -4.390625 L 4.203125 -6.328125 L 13.3125 -9.65625 L 12.625 -9.1875 C 12.351562 -9.894531 11.925781 -10.507812 11.34375 -11.03125 C 10.769531 -11.5625 9.984375 -11.828125 8.984375 -11.828125 C 7.742188 -11.828125 6.726562 -11.394531 5.9375 -10.53125 C 5.15625 -9.675781 4.765625 -8.585938 4.765625 -7.265625 C 4.765625 -5.835938 5.1875 -4.691406 6.03125 -3.828125 C 6.875 -2.960938 7.9375 -2.53125 9.21875 -2.53125 C 9.820312 -2.53125 10.398438 -2.632812 10.953125 -2.84375 C 11.503906 -3.050781 12.023438 -3.335938 12.515625 -3.703125 L 14.046875 -1.203125 C 13.335938 -0.734375 12.554688 -0.359375 11.703125 -0.078125 C 10.847656 0.191406 10 0.328125 9.15625 0.328125 Z M 9.15625 0.328125 "/></g></g></g><g fill="#000000" fill-opacity="1"><g transform="translate(322.686145, 117.660077)"><g><path d="M 11.75 -13.921875 L 15.65625 -4.890625 L 15.015625 -4.859375 L 18.609375 -13.921875 L 21.90625 -13.921875 L 15.546875 0.828125 L 11.09375 -8.65625 L 7 0.828125 L 0.59375 -13.921875 L 3.859375 -13.921875 L 8.03125 -4.46875 L 6.859375 -4.65625 L 9.890625 -11.65625 L 8.828125 -13.921875 Z M 11.75 -13.921875 "/></g></g></g></svg>