<svg xmlns="http://www.w3.org/2000/svg" xmlns:xlink="http://www.w3.org/1999/xlink" width="640" zoomAndPan="magnify" viewBox="0 0 480 149.999998" height="200" preserveAspectRatio="xMidYMid meet" version="1.0"><defs><g/><clipPath id="286b866e7e"><rect x="0" width="480" y="0" height="81"/></clipPath><clipPath id="f967e8e7fd"><rect x="0" width="472" y="0" height="53"/></clipPath></defs><g transform="matrix(1, 0, 0, 1, 0, 14)"><g clip-path="url(#286b866e7e)"><g fill="#ffffff" fill-opacity="1"><g transform="translate(0.693616, 63.467737)"><g><path d="M 39.65625 -13.59375 L 39.65625 0.0625 L 3.421875 0.0625 L 3.421875 -0.328125 L 5.96875 -0.328125 C 6.539062 -0.328125 7.03125 -0.53125 7.4375 -0.9375 C 7.84375 -1.34375 8.046875 -1.832031 8.046875 -2.40625 L 8.046875 -44.484375 C 8.046875 -45.066406 7.84375 -45.5625 7.4375 -45.96875 C 7.03125 -46.363281 6.539062 -46.5625 5.96875 -46.5625 L 3.421875 -46.5625 L 3.421875 -46.96875 L 22.78125 -46.96875 L 22.78125 -46.5625 L 20.234375 -46.5625 C 19.648438 -46.5625 19.160156 -46.363281 18.765625 -45.96875 C 18.359375 -45.5625 18.15625 -45.066406 18.15625 -44.484375 L 18.15625 -0.40625 L 25.921875 -0.40625 C 27.753906 -0.40625 29.476562 -0.757812 31.09375 -1.46875 C 32.695312 -2.144531 34.101562 -3.082031 35.3125 -4.28125 C 36.519531 -5.488281 37.476562 -6.898438 38.1875 -8.515625 C 38.851562 -10.117188 39.1875 -11.835938 39.1875 -13.671875 Z M 39.65625 -13.59375 "/></g></g></g><g fill="#ffffff" fill-opacity="1"><g transform="translate(43.633731, 63.467737)"><g><path d="M 39.265625 -13.53125 L 39.65625 -13.53125 L 39.65625 0.140625 L 3.421875 0.140625 L 3.421875 -0.265625 L 5.96875 -0.265625 C 6.539062 -0.265625 7.03125 -0.46875 7.4375 -0.875 C 7.84375 -1.269531 8.046875 -1.757812 8.046875 -2.34375 L 8.046875 -44.421875 C 8.046875 -45.003906 7.84375 -45.492188 7.4375 -45.890625 C 7.03125 -46.296875 6.539062 -46.5 5.96875 -46.5 L 3.421875 -46.5 L 3.421875 -46.90625 L 37.1875 -46.90625 L 37.1875 -36.25 L 36.78125 -36.25 C 36.78125 -37.675781 36.515625 -39.015625 35.984375 -40.265625 C 35.441406 -41.515625 34.703125 -42.609375 33.765625 -43.546875 C 32.828125 -44.484375 31.734375 -45.222656 30.484375 -45.765625 C 29.234375 -46.296875 27.894531 -46.5625 26.46875 -46.5625 L 18.15625 -46.5625 L 18.15625 -23.109375 L 22.375 -23.109375 C 23.582031 -23.109375 24.722656 -23.359375 25.796875 -23.859375 C 26.867188 -24.296875 27.804688 -24.921875 28.609375 -25.734375 C 29.367188 -26.484375 29.992188 -27.394531 30.484375 -28.46875 C 30.929688 -29.539062 31.15625 -30.679688 31.15625 -31.890625 L 31.5625 -31.890625 L 31.5625 -13.9375 L 31.15625 -13.9375 C 31.15625 -15.144531 30.929688 -16.285156 30.484375 -17.359375 C 29.992188 -18.429688 29.367188 -19.367188 28.609375 -20.171875 C 27.804688 -20.929688 26.867188 -21.554688 25.796875 -22.046875 C 24.722656 -22.492188 23.582031 -22.71875 22.375 -22.71875 L 18.15625 -22.71875 L 18.15625 -0.40625 L 25.921875 -0.40625 C 27.753906 -0.40625 29.476562 -0.757812 31.09375 -1.46875 C 32.695312 -2.144531 34.101562 -3.082031 35.3125 -4.28125 C 36.519531 -5.488281 37.476562 -6.898438 38.1875 -8.515625 C 38.851562 -10.117188 39.1875 -11.835938 39.1875 -13.671875 Z M 39.265625 -13.53125 "/></g></g></g><g fill="#ffffff" fill-opacity="1"><g transform="translate(86.573845, 63.467737)"><g><path d="M 52.9375 -0.40625 L 52.9375 0 L 33.171875 0 L 33.171875 -0.40625 L 35.78125 -0.40625 C 36.175781 -0.40625 36.488281 -0.582031 36.71875 -0.9375 C 36.9375 -1.25 36.976562 -1.582031 36.84375 -1.9375 L 31.484375 -15.75 L 14.0625 -15.75 L 8.703125 -1.9375 C 8.578125 -1.582031 8.625 -1.25 8.84375 -0.9375 C 9.0625 -0.582031 9.375 -0.40625 9.78125 -0.40625 L 12.65625 -0.40625 L 12.65625 0 L 3.34375 0 L 3.34375 -0.40625 L 4.484375 -0.40625 C 5.472656 -0.40625 6.367188 -0.691406 7.171875 -1.265625 C 7.972656 -1.804688 8.550781 -2.523438 8.90625 -3.421875 L 25.796875 -46.90625 L 30.484375 -46.90625 L 47.171875 -3.953125 C 47.566406 -2.878906 48.234375 -2.03125 49.171875 -1.40625 C 50.109375 -0.738281 51.160156 -0.40625 52.328125 -0.40625 Z M 31.359375 -16.140625 L 22.78125 -38.1875 L 14.203125 -16.140625 Z M 31.359375 -16.140625 "/></g></g></g><g fill="#ffffff" fill-opacity="1"><g transform="translate(142.911818, 63.467737)"><g><path d="M 29.140625 -21.03125 C 31.867188 -21.03125 34.035156 -20.519531 35.640625 -19.5 C 37.203125 -18.46875 38.453125 -17.191406 39.390625 -15.671875 C 40.328125 -14.109375 41.085938 -12.4375 41.671875 -10.65625 C 42.210938 -8.820312 42.816406 -7.144531 43.484375 -5.625 C 44.148438 -4.0625 45.039062 -2.765625 46.15625 -1.734375 C 47.226562 -0.710938 48.769531 -0.203125 50.78125 -0.203125 L 50.78125 0.140625 L 38.390625 0.140625 C 36.023438 0.140625 34.21875 -0.394531 32.96875 -1.46875 C 31.71875 -2.5 30.753906 -3.796875 30.078125 -5.359375 C 29.367188 -6.921875 28.832031 -8.617188 28.46875 -10.453125 C 28.070312 -12.234375 27.601562 -13.910156 27.0625 -15.484375 C 26.488281 -17.046875 25.707031 -18.363281 24.71875 -19.4375 C 23.695312 -20.457031 22.222656 -20.96875 20.296875 -20.96875 L 18.09375 -20.96875 L 18.09375 -2.34375 C 18.09375 -1.757812 18.289062 -1.269531 18.6875 -0.875 C 19.09375 -0.46875 19.585938 -0.265625 20.171875 -0.265625 L 22.71875 -0.265625 L 22.71875 0.140625 L 3.34375 0.140625 L 3.34375 -0.265625 L 5.890625 -0.265625 C 6.472656 -0.265625 6.96875 -0.46875 7.375 -0.875 C 7.769531 -1.269531 7.96875 -1.757812 7.96875 -2.34375 L 7.96875 -44.421875 C 7.96875 -45.003906 7.769531 -45.492188 7.375 -45.890625 C 6.96875 -46.296875 6.472656 -46.5 5.890625 -46.5 L 3.34375 -46.5 L 3.34375 -46.90625 L 28.40625 -46.90625 C 32.070312 -46.90625 35.15625 -45.785156 37.65625 -43.546875 C 40.375 -41.085938 41.734375 -37.894531 41.734375 -33.96875 C 41.734375 -30.039062 40.375 -26.847656 37.65625 -24.390625 C 36.582031 -23.453125 35.285156 -22.710938 33.765625 -22.171875 C 32.203125 -21.597656 30.640625 -21.242188 29.078125 -21.109375 Z M 22.4375 -21.375 C 23.5625 -21.375 24.679688 -21.753906 25.796875 -22.515625 C 26.867188 -23.222656 27.828125 -24.179688 28.671875 -25.390625 C 29.523438 -26.597656 30.21875 -27.960938 30.75 -29.484375 C 31.238281 -30.953125 31.484375 -32.425781 31.484375 -33.90625 C 31.484375 -35.375 31.238281 -36.867188 30.75 -38.390625 C 30.21875 -39.867188 29.523438 -41.207031 28.671875 -42.40625 C 27.828125 -43.613281 26.867188 -44.597656 25.796875 -45.359375 C 24.679688 -46.078125 23.5625 -46.4375 22.4375 -46.4375 L 18.15625 -46.4375 L 18.15625 -21.375 Z M 22.4375 -21.375 "/></g></g></g><g fill="#ffffff" fill-opacity="1"><g transform="translate(195.36441, 63.467737)"><g><path d="M 48.3125 -46.828125 L 48.3125 -46.4375 L 45.765625 -46.4375 C 45.179688 -46.4375 44.6875 -46.234375 44.28125 -45.828125 C 43.882812 -45.421875 43.6875 -44.929688 43.6875 -44.359375 L 43.6875 0.140625 L 38.0625 0.140625 L 8.3125 -44.09375 L 8.3125 -2.28125 C 8.3125 -1.695312 8.507812 -1.203125 8.90625 -0.796875 C 9.3125 -0.398438 9.804688 -0.203125 10.390625 -0.203125 L 12.9375 -0.203125 L 12.9375 0.203125 L 3.421875 0.203125 L 3.421875 -0.203125 L 5.96875 -0.203125 C 6.539062 -0.203125 7.03125 -0.398438 7.4375 -0.796875 C 7.84375 -1.203125 8.046875 -1.695312 8.046875 -2.28125 L 8.046875 -44.359375 C 8.046875 -44.929688 7.84375 -45.421875 7.4375 -45.828125 C 7.03125 -46.234375 6.539062 -46.4375 5.96875 -46.4375 L 3.421875 -46.4375 L 3.421875 -46.828125 L 18.359375 -46.828125 L 43.421875 -10.1875 L 43.421875 -44.421875 C 43.421875 -45.003906 43.21875 -45.492188 42.8125 -45.890625 C 42.40625 -46.296875 41.914062 -46.5 41.34375 -46.5 L 38.796875 -46.5 L 38.796875 -46.90625 Z M 48.3125 -46.828125 "/></g></g></g><g fill="#ffffff" fill-opacity="1"><g transform="translate(247.013138, 63.467737)"><g/></g></g><g fill="#ffffff" fill-opacity="1"><g transform="translate(267.109918, 63.467737)"><g><path d="M 57.15625 -46.5 C 56.570312 -46.5 56.078125 -46.296875 55.671875 -45.890625 C 55.273438 -45.492188 55.078125 -45.003906 55.078125 -44.421875 L 55.078125 -2.34375 C 55.078125 -1.757812 55.273438 -1.269531 55.671875 -0.875 C 56.078125 -0.46875 56.570312 -0.265625 57.15625 -0.265625 L 59.703125 -0.265625 L 59.703125 0.140625 L 40.328125 0.140625 L 40.328125 -0.265625 L 42.875 -0.265625 C 43.457031 -0.265625 43.953125 -0.46875 44.359375 -0.875 C 44.753906 -1.269531 44.953125 -1.757812 44.953125 -2.34375 L 44.953125 -44.828125 L 27 -23.390625 L 26.59375 -23.390625 L 8.234375 -44.15625 L 8.234375 -2.34375 C 8.234375 -1.757812 8.4375 -1.269531 8.84375 -0.875 C 9.25 -0.46875 9.738281 -0.265625 10.3125 -0.265625 L 12.859375 -0.265625 L 12.859375 0.140625 L 3.34375 0.140625 L 3.34375 -0.265625 L 5.890625 -0.265625 C 6.472656 -0.265625 6.96875 -0.46875 7.375 -0.875 C 7.769531 -1.269531 7.96875 -1.757812 7.96875 -2.34375 L 7.96875 -44.421875 C 7.96875 -45.003906 7.769531 -45.492188 7.375 -45.890625 C 6.96875 -46.296875 6.472656 -46.5 5.890625 -46.5 L 3.34375 -46.5 L 3.34375 -46.90625 L 19.5625 -46.90625 L 33.296875 -31.484375 L 46.234375 -46.90625 L 59.828125 -46.90625 L 59.828125 -46.5 Z M 57.15625 -46.5 "/></g></g></g><g fill="#ffffff" fill-opacity="1"><g transform="translate(330.2808, 63.467737)"><g><path d="M 43.34375 -40.796875 C 45.625 -38.660156 47.367188 -36.140625 48.578125 -33.234375 C 49.734375 -30.328125 50.3125 -27.085938 50.3125 -23.515625 C 50.3125 -19.941406 49.734375 -16.703125 48.578125 -13.796875 C 47.367188 -10.898438 45.625 -8.378906 43.34375 -6.234375 C 41.207031 -4.222656 38.726562 -2.703125 35.90625 -1.671875 C 33.050781 -0.648438 30.015625 -0.140625 26.796875 -0.140625 C 23.578125 -0.140625 20.5625 -0.648438 17.75 -1.671875 C 14.894531 -2.703125 12.394531 -4.222656 10.25 -6.234375 C 7.96875 -8.378906 6.25 -10.898438 5.09375 -13.796875 C 3.882812 -16.703125 3.28125 -19.941406 3.28125 -23.515625 C 3.28125 -27.085938 3.882812 -30.328125 5.09375 -33.234375 C 6.25 -36.140625 7.96875 -38.660156 10.25 -40.796875 C 12.394531 -42.804688 14.894531 -44.328125 17.75 -45.359375 C 20.5625 -46.390625 23.578125 -46.90625 26.796875 -46.90625 C 30.015625 -46.90625 33.050781 -46.390625 35.90625 -45.359375 C 38.726562 -44.328125 41.207031 -42.804688 43.34375 -40.796875 Z M 26.796875 -0.40625 C 29.210938 -0.40625 31.269531 -0.984375 32.96875 -2.140625 C 34.613281 -3.304688 35.972656 -4.914062 37.046875 -6.96875 C 38.078125 -9.019531 38.835938 -11.476562 39.328125 -14.34375 C 39.816406 -17.15625 40.0625 -20.210938 40.0625 -23.515625 C 40.0625 -26.816406 39.816406 -29.898438 39.328125 -32.765625 C 38.835938 -35.578125 38.078125 -38.007812 37.046875 -40.0625 C 35.972656 -42.113281 34.613281 -43.722656 32.96875 -44.890625 C 31.269531 -46.046875 29.210938 -46.625 26.796875 -46.625 C 24.390625 -46.625 22.359375 -46.046875 20.703125 -44.890625 C 19.003906 -43.722656 17.640625 -42.113281 16.609375 -40.0625 C 15.546875 -38.007812 14.765625 -35.578125 14.265625 -32.765625 C 13.773438 -29.898438 13.53125 -26.816406 13.53125 -23.515625 C 13.53125 -20.210938 13.773438 -17.15625 14.265625 -14.34375 C 14.765625 -11.476562 15.546875 -9.019531 16.609375 -6.96875 C 17.640625 -4.914062 19.003906 -3.304688 20.703125 -2.140625 C 22.359375 -0.984375 24.390625 -0.40625 26.796875 -0.40625 Z M 26.796875 -0.40625 "/></g></g></g><g fill="#ffffff" fill-opacity="1"><g transform="translate(383.872234, 63.467737)"><g><path d="M 29.140625 -21.03125 C 31.867188 -21.03125 34.035156 -20.519531 35.640625 -19.5 C 37.203125 -18.46875 38.453125 -17.191406 39.390625 -15.671875 C 40.328125 -14.109375 41.085938 -12.4375 41.671875 -10.65625 C 42.210938 -8.820312 42.816406 -7.144531 43.484375 -5.625 C 44.148438 -4.0625 45.039062 -2.765625 46.15625 -1.734375 C 47.226562 -0.710938 48.769531 -0.203125 50.78125 -0.203125 L 50.78125 0.140625 L 38.390625 0.140625 C 36.023438 0.140625 34.21875 -0.394531 32.96875 -1.46875 C 31.71875 -2.5 30.753906 -3.796875 30.078125 -5.359375 C 29.367188 -6.921875 28.832031 -8.617188 28.46875 -10.453125 C 28.070312 -12.234375 27.601562 -13.910156 27.0625 -15.484375 C 26.488281 -17.046875 25.707031 -18.363281 24.71875 -19.4375 C 23.695312 -20.457031 22.222656 -20.96875 20.296875 -20.96875 L 18.09375 -20.96875 L 18.09375 -2.34375 C 18.09375 -1.757812 18.289062 -1.269531 18.6875 -0.875 C 19.09375 -0.46875 19.585938 -0.265625 20.171875 -0.265625 L 22.71875 -0.265625 L 22.71875 0.140625 L 3.34375 0.140625 L 3.34375 -0.265625 L 5.890625 -0.265625 C 6.472656 -0.265625 6.96875 -0.46875 7.375 -0.875 C 7.769531 -1.269531 7.96875 -1.757812 7.96875 -2.34375 L 7.96875 -44.421875 C 7.96875 -45.003906 7.769531 -45.492188 7.375 -45.890625 C 6.96875 -46.296875 6.472656 -46.5 5.890625 -46.5 L 3.34375 -46.5 L 3.34375 -46.90625 L 28.40625 -46.90625 C 32.070312 -46.90625 35.15625 -45.785156 37.65625 -43.546875 C 40.375 -41.085938 41.734375 -37.894531 41.734375 -33.96875 C 41.734375 -30.039062 40.375 -26.847656 37.65625 -24.390625 C 36.582031 -23.453125 35.285156 -22.710938 33.765625 -22.171875 C 32.203125 -21.597656 30.640625 -21.242188 29.078125 -21.109375 Z M 22.4375 -21.375 C 23.5625 -21.375 24.679688 -21.753906 25.796875 -22.515625 C 26.867188 -23.222656 27.828125 -24.179688 28.671875 -25.390625 C 29.523438 -26.597656 30.21875 -27.960938 30.75 -29.484375 C 31.238281 -30.953125 31.484375 -32.425781 31.484375 -33.90625 C 31.484375 -35.375 31.238281 -36.867188 30.75 -38.390625 C 30.21875 -39.867188 29.523438 -41.207031 28.671875 -42.40625 C 27.828125 -43.613281 26.867188 -44.597656 25.796875 -45.359375 C 24.679688 -46.078125 23.5625 -46.4375 22.4375 -46.4375 L 18.15625 -46.4375 L 18.15625 -21.375 Z M 22.4375 -21.375 "/></g></g></g><g fill="#ffffff" fill-opacity="1"><g transform="translate(436.324809, 63.467737)"><g><path d="M 39.265625 -13.53125 L 39.65625 -13.53125 L 39.65625 0.140625 L 3.421875 0.140625 L 3.421875 -0.265625 L 5.96875 -0.265625 C 6.539062 -0.265625 7.03125 -0.46875 7.4375 -0.875 C 7.84375 -1.269531 8.046875 -1.757812 8.046875 -2.34375 L 8.046875 -44.421875 C 8.046875 -45.003906 7.84375 -45.492188 7.4375 -45.890625 C 7.03125 -46.296875 6.539062 -46.5 5.96875 -46.5 L 3.421875 -46.5 L 3.421875 -46.90625 L 37.1875 -46.90625 L 37.1875 -36.25 L 36.78125 -36.25 C 36.78125 -37.675781 36.515625 -39.015625 35.984375 -40.265625 C 35.441406 -41.515625 34.703125 -42.609375 33.765625 -43.546875 C 32.828125 -44.484375 31.734375 -45.222656 30.484375 -45.765625 C 29.234375 -46.296875 27.894531 -46.5625 26.46875 -46.5625 L 18.15625 -46.5625 L 18.15625 -23.109375 L 22.375 -23.109375 C 23.582031 -23.109375 24.722656 -23.359375 25.796875 -23.859375 C 26.867188 -24.296875 27.804688 -24.921875 28.609375 -25.734375 C 29.367188 -26.484375 29.992188 -27.394531 30.484375 -28.46875 C 30.929688 -29.539062 31.15625 -30.679688 31.15625 -31.890625 L 31.5625 -31.890625 L 31.5625 -13.9375 L 31.15625 -13.9375 C 31.15625 -15.144531 30.929688 -16.285156 30.484375 -17.359375 C 29.992188 -18.429688 29.367188 -19.367188 28.609375 -20.171875 C 27.804688 -20.929688 26.867188 -21.554688 25.796875 -22.046875 C 24.722656 -22.492188 23.582031 -22.71875 22.375 -22.71875 L 18.15625 -22.71875 L 18.15625 -0.40625 L 25.921875 -0.40625 C 27.753906 -0.40625 29.476562 -0.757812 31.09375 -1.46875 C 32.695312 -2.144531 34.101562 -3.082031 35.3125 -4.28125 C 36.519531 -5.488281 37.476562 -6.898438 38.1875 -8.515625 C 38.851562 -10.117188 39.1875 -11.835938 39.1875 -13.671875 Z M 39.265625 -13.53125 "/></g></g></g></g></g><g transform="matrix(1, 0, 0, 1, 4, 88)"><g clip-path="url(#f967e8e7fd)"><g fill="#ffffff" fill-opacity="1"><g transform="translate(0.542513, 38.454454)"><g><path d="M 3.5625 -25.0625 L 19.984375 -25.0625 L 19.984375 -21.578125 L 7.15625 -21.578125 L 7.15625 -14.34375 L 18.609375 -14.34375 L 18.609375 -10.859375 L 7.15625 -10.859375 L 7.15625 -3.5 L 20.46875 -3.5 L 20.46875 0 L 3.5625 0 Z M 3.5625 -25.0625 "/></g></g></g><g fill="#ffffff" fill-opacity="1"><g transform="translate(23.194982, 38.454454)"><g><path d="M 8.75 0.421875 L 0.625 -14.453125 L 4.734375 -14.453125 L 10.09375 -3.21875 L 7.953125 -3.3125 L 12.828125 -14.453125 L 16.703125 -14.453125 L 8.921875 0.421875 Z M 8.75 0.421875 "/></g></g></g><g fill="#ffffff" fill-opacity="1"><g transform="translate(40.106517, 38.454454)"><g><path d="M 9.515625 0.34375 C 7.847656 0.34375 6.414062 0.015625 5.21875 -0.640625 C 4.019531 -1.296875 3.097656 -2.207031 2.453125 -3.375 C 1.804688 -4.539062 1.484375 -5.859375 1.484375 -7.328125 C 1.484375 -8.753906 1.847656 -10.050781 2.578125 -11.21875 C 3.304688 -12.382812 4.28125 -13.3125 5.5 -14 C 6.71875 -14.695312 8.078125 -15.046875 9.578125 -15.046875 C 11.515625 -15.046875 13.125 -14.484375 14.40625 -13.359375 C 15.6875 -12.242188 16.546875 -10.671875 16.984375 -8.640625 L 5.1875 -4.5625 L 4.359375 -6.5625 L 13.828125 -10.03125 L 13.109375 -9.546875 C 12.828125 -10.285156 12.382812 -10.925781 11.78125 -11.46875 C 11.1875 -12.007812 10.375 -12.28125 9.34375 -12.28125 C 8.050781 -12.28125 6.992188 -11.832031 6.171875 -10.9375 C 5.347656 -10.050781 4.9375 -8.914062 4.9375 -7.53125 C 4.9375 -6.0625 5.375 -4.875 6.25 -3.96875 C 7.132812 -3.070312 8.242188 -2.625 9.578125 -2.625 C 10.203125 -2.625 10.800781 -2.734375 11.375 -2.953125 C 11.945312 -3.171875 12.488281 -3.46875 13 -3.84375 L 14.59375 -1.25 C 13.851562 -0.757812 13.039062 -0.367188 12.15625 -0.078125 C 11.269531 0.203125 10.390625 0.34375 9.515625 0.34375 Z M 9.515625 0.34375 "/></g></g></g><g fill="#ffffff" fill-opacity="1"><g transform="translate(58.263081, 38.454454)"><g><path d="M 5.875 -14.453125 L 6.1875 -11.09375 L 6.046875 -11.578125 C 6.515625 -12.617188 7.257812 -13.445312 8.28125 -14.0625 C 9.300781 -14.6875 10.503906 -15 11.890625 -15 C 13.253906 -15 14.375 -14.601562 15.25 -13.8125 C 16.125 -13.019531 16.570312 -11.976562 16.59375 -10.6875 L 16.59375 0 L 13.109375 0 L 13.109375 -9.46875 C 13.085938 -10.207031 12.867188 -10.8125 12.453125 -11.28125 C 12.035156 -11.757812 11.390625 -12.007812 10.515625 -12.03125 C 9.285156 -12.03125 8.257812 -11.519531 7.4375 -10.5 C 6.625 -9.488281 6.21875 -8.191406 6.21875 -6.609375 L 6.21875 0 L 2.734375 0 L 2.734375 -14.453125 Z M 5.875 -14.453125 "/></g></g></g><g fill="#ffffff" fill-opacity="1"><g transform="translate(77.63009, 38.454454)"><g/></g></g><g fill="#ffffff" fill-opacity="1"><g transform="translate(82.125996, 38.454454)"><g><path d="M 5.875 -14.453125 L 6.1875 -11.3125 L 6.015625 -11.578125 C 6.546875 -12.660156 7.300781 -13.507812 8.28125 -14.125 C 9.257812 -14.738281 10.382812 -15.046875 11.65625 -15.046875 C 12.851562 -15.046875 13.851562 -14.765625 14.65625 -14.203125 C 15.46875 -13.648438 15.960938 -12.867188 16.140625 -11.859375 L 15.96875 -11.71875 C 16.550781 -12.757812 17.328125 -13.570312 18.296875 -14.15625 C 19.265625 -14.75 20.273438 -15.046875 21.328125 -15.046875 C 22.765625 -15.046875 23.894531 -14.644531 24.71875 -13.84375 C 25.550781 -13.050781 25.976562 -12.007812 26 -10.71875 L 26 0 L 22.546875 0 L 22.546875 -9.40625 C 22.523438 -10.144531 22.359375 -10.753906 22.046875 -11.234375 C 21.734375 -11.722656 21.171875 -11.988281 20.359375 -12.03125 C 19.535156 -12.03125 18.804688 -11.773438 18.171875 -11.265625 C 17.535156 -10.765625 17.035156 -10.109375 16.671875 -9.296875 C 16.316406 -8.492188 16.128906 -7.628906 16.109375 -6.703125 L 16.109375 0 L 12.625 0 L 12.625 -9.40625 C 12.601562 -10.144531 12.421875 -10.753906 12.078125 -11.234375 C 11.742188 -11.722656 11.175781 -11.988281 10.375 -12.03125 C 9.5625 -12.03125 8.835938 -11.773438 8.203125 -11.265625 C 7.578125 -10.765625 7.085938 -10.101562 6.734375 -9.28125 C 6.390625 -8.46875 6.21875 -7.597656 6.21875 -6.671875 L 6.21875 0 L 2.734375 0 L 2.734375 -14.453125 Z M 5.875 -14.453125 "/></g></g></g><g fill="#ffffff" fill-opacity="1"><g transform="translate(110.865244, 38.454454)"><g><path d="M 1.484375 -7.359375 C 1.484375 -8.816406 1.828125 -10.125 2.515625 -11.28125 C 3.210938 -12.445312 4.171875 -13.363281 5.390625 -14.03125 C 6.617188 -14.707031 8.015625 -15.046875 9.578125 -15.046875 C 11.171875 -15.046875 12.5625 -14.707031 13.75 -14.03125 C 14.9375 -13.363281 15.859375 -12.445312 16.515625 -11.28125 C 17.171875 -10.125 17.5 -8.816406 17.5 -7.359375 C 17.5 -5.910156 17.160156 -4.601562 16.484375 -3.4375 C 15.816406 -2.269531 14.890625 -1.347656 13.703125 -0.671875 C 12.515625 0.00390625 11.117188 0.34375 9.515625 0.34375 C 7.992188 0.34375 6.625 0.0351562 5.40625 -0.578125 C 4.195312 -1.203125 3.238281 -2.097656 2.53125 -3.265625 C 1.832031 -4.429688 1.484375 -5.796875 1.484375 -7.359375 Z M 5.015625 -7.328125 C 5.015625 -6.429688 5.207031 -5.617188 5.59375 -4.890625 C 5.988281 -4.160156 6.523438 -3.582031 7.203125 -3.15625 C 7.890625 -2.738281 8.644531 -2.53125 9.46875 -2.53125 C 10.789062 -2.53125 11.867188 -2.988281 12.703125 -3.90625 C 13.546875 -4.832031 13.96875 -5.972656 13.96875 -7.328125 C 13.96875 -8.691406 13.546875 -9.835938 12.703125 -10.765625 C 11.867188 -11.703125 10.789062 -12.171875 9.46875 -12.171875 C 8.613281 -12.171875 7.851562 -11.953125 7.1875 -11.515625 C 6.519531 -11.078125 5.988281 -10.488281 5.59375 -9.75 C 5.207031 -9.007812 5.015625 -8.203125 5.015625 -7.328125 Z M 5.015625 -7.328125 "/></g></g></g><g fill="#ffffff" fill-opacity="1"><g transform="translate(129.851826, 38.454454)"><g><path d="M 5.84375 -14.453125 L 6.1875 -10.296875 L 6.046875 -10.859375 C 6.441406 -11.734375 6.988281 -12.476562 7.6875 -13.09375 C 8.394531 -13.71875 9.132812 -14.195312 9.90625 -14.53125 C 10.675781 -14.875 11.328125 -15.046875 11.859375 -15.046875 L 11.6875 -11.578125 C 10.601562 -11.648438 9.648438 -11.441406 8.828125 -10.953125 C 8.015625 -10.472656 7.375 -9.828125 6.90625 -9.015625 C 6.445312 -8.210938 6.21875 -7.351562 6.21875 -6.4375 L 6.21875 0 L 2.734375 0 L 2.734375 -14.453125 Z M 5.84375 -14.453125 "/></g></g></g><g fill="#ffffff" fill-opacity="1"><g transform="translate(142.405797, 38.454454)"><g><path d="M 9.515625 0.34375 C 7.847656 0.34375 6.414062 0.015625 5.21875 -0.640625 C 4.019531 -1.296875 3.097656 -2.207031 2.453125 -3.375 C 1.804688 -4.539062 1.484375 -5.859375 1.484375 -7.328125 C 1.484375 -8.753906 1.847656 -10.050781 2.578125 -11.21875 C 3.304688 -12.382812 4.28125 -13.3125 5.5 -14 C 6.71875 -14.695312 8.078125 -15.046875 9.578125 -15.046875 C 11.515625 -15.046875 13.125 -14.484375 14.40625 -13.359375 C 15.6875 -12.242188 16.546875 -10.671875 16.984375 -8.640625 L 5.1875 -4.5625 L 4.359375 -6.5625 L 13.828125 -10.03125 L 13.109375 -9.546875 C 12.828125 -10.285156 12.382812 -10.925781 11.78125 -11.46875 C 11.1875 -12.007812 10.375 -12.28125 9.34375 -12.28125 C 8.050781 -12.28125 6.992188 -11.832031 6.171875 -10.9375 C 5.347656 -10.050781 4.9375 -8.914062 4.9375 -7.53125 C 4.9375 -6.0625 5.375 -4.875 6.25 -3.96875 C 7.132812 -3.070312 8.242188 -2.625 9.578125 -2.625 C 10.203125 -2.625 10.800781 -2.734375 11.375 -2.953125 C 11.945312 -3.171875 12.488281 -3.46875 13 -3.84375 L 14.59375 -1.25 C 13.851562 -0.757812 13.039062 -0.367188 12.15625 -0.078125 C 11.269531 0.203125 10.390625 0.34375 9.515625 0.34375 Z M 9.515625 0.34375 "/></g></g></g><g fill="#ffffff" fill-opacity="1"><g transform="translate(160.562361, 38.454454)"><g/></g></g><g fill="#ffffff" fill-opacity="1"><g transform="translate(165.058267, 38.454454)"><g><path d="M 8.78125 0.34375 C 7.425781 0.34375 6.191406 0.0546875 5.078125 -0.515625 C 3.972656 -1.097656 3.097656 -1.945312 2.453125 -3.0625 C 1.804688 -4.175781 1.484375 -5.566406 1.484375 -7.234375 C 1.484375 -8.835938 1.820312 -10.222656 2.5 -11.390625 C 3.1875 -12.554688 4.085938 -13.457031 5.203125 -14.09375 C 6.316406 -14.726562 7.535156 -15.046875 8.859375 -15.046875 C 10.234375 -15.046875 11.367188 -14.753906 12.265625 -14.171875 C 13.171875 -13.597656 13.863281 -12.910156 14.34375 -12.109375 L 14.140625 -11.546875 L 14.484375 -14.453125 L 17.703125 -14.453125 L 17.703125 0 L 14.21875 0 L 14.21875 -3.671875 L 14.5625 -2.796875 C 14.46875 -2.617188 14.269531 -2.351562 13.96875 -2 C 13.664062 -1.65625 13.269531 -1.304688 12.78125 -0.953125 C 12.300781 -0.597656 11.722656 -0.289062 11.046875 -0.03125 C 10.367188 0.21875 9.613281 0.34375 8.78125 0.34375 Z M 9.71875 -2.53125 C 10.875 -2.53125 11.847656 -2.832031 12.640625 -3.4375 C 13.429688 -4.050781 13.957031 -4.890625 14.21875 -5.953125 L 14.21875 -8.921875 C 13.9375 -9.867188 13.375 -10.648438 12.53125 -11.265625 C 11.6875 -11.890625 10.710938 -12.203125 9.609375 -12.203125 C 8.785156 -12.203125 8.023438 -12 7.328125 -11.59375 C 6.640625 -11.195312 6.085938 -10.632812 5.671875 -9.90625 C 5.253906 -9.175781 5.046875 -8.34375 5.046875 -7.40625 C 5.046875 -6.476562 5.257812 -5.644531 5.6875 -4.90625 C 6.113281 -4.164062 6.679688 -3.582031 7.390625 -3.15625 C 8.109375 -2.738281 8.882812 -2.53125 9.71875 -2.53125 Z M 9.71875 -2.53125 "/></g></g></g><g fill="#ffffff" fill-opacity="1"><g transform="translate(185.497364, 38.454454)"><g><path d="M 11.6875 0.34375 C 10.351562 0.34375 9.203125 0.0703125 8.234375 -0.46875 C 7.265625 -1.007812 6.476562 -1.707031 5.875 -2.5625 L 6.21875 -3.5625 L 6.21875 0 L 2.734375 0 L 2.734375 -26.859375 L 6.21875 -26.859375 L 6.21875 -11.265625 L 6.125 -12.546875 C 6.695312 -13.285156 7.503906 -13.882812 8.546875 -14.34375 C 9.597656 -14.8125 10.796875 -15.046875 12.140625 -15.046875 C 13.429688 -15.046875 14.601562 -14.738281 15.65625 -14.125 C 16.71875 -13.507812 17.570312 -12.632812 18.21875 -11.5 C 18.863281 -10.375 19.1875 -9.03125 19.1875 -7.46875 C 19.1875 -5.832031 18.832031 -4.429688 18.125 -3.265625 C 17.425781 -2.097656 16.507812 -1.203125 15.375 -0.578125 C 14.25 0.0351562 13.019531 0.34375 11.6875 0.34375 Z M 10.921875 -2.59375 C 11.828125 -2.59375 12.632812 -2.804688 13.34375 -3.234375 C 14.0625 -3.660156 14.617188 -4.238281 15.015625 -4.96875 C 15.421875 -5.707031 15.625 -6.539062 15.625 -7.46875 C 15.625 -8.394531 15.414062 -9.210938 15 -9.921875 C 14.59375 -10.640625 14.035156 -11.210938 13.328125 -11.640625 C 12.628906 -12.066406 11.828125 -12.28125 10.921875 -12.28125 C 9.773438 -12.28125 8.773438 -11.976562 7.921875 -11.375 C 7.066406 -10.78125 6.5 -9.984375 6.21875 -8.984375 L 6.21875 -5.953125 C 6.519531 -4.984375 7.078125 -4.179688 7.890625 -3.546875 C 8.710938 -2.910156 9.722656 -2.59375 10.921875 -2.59375 Z M 10.921875 -2.59375 "/></g></g></g><g fill="#ffffff" fill-opacity="1"><g transform="translate(206.178547, 38.454454)"><g><path d="M 1.484375 -7.359375 C 1.484375 -8.816406 1.828125 -10.125 2.515625 -11.28125 C 3.210938 -12.445312 4.171875 -13.363281 5.390625 -14.03125 C 6.617188 -14.707031 8.015625 -15.046875 9.578125 -15.046875 C 11.171875 -15.046875 12.5625 -14.707031 13.75 -14.03125 C 14.9375 -13.363281 15.859375 -12.445312 16.515625 -11.28125 C 17.171875 -10.125 17.5 -8.816406 17.5 -7.359375 C 17.5 -5.910156 17.160156 -4.601562 16.484375 -3.4375 C 15.816406 -2.269531 14.890625 -1.347656 13.703125 -0.671875 C 12.515625 0.00390625 11.117188 0.34375 9.515625 0.34375 C 7.992188 0.34375 6.625 0.0351562 5.40625 -0.578125 C 4.195312 -1.203125 3.238281 -2.097656 2.53125 -3.265625 C 1.832031 -4.429688 1.484375 -5.796875 1.484375 -7.359375 Z M 5.015625 -7.328125 C 5.015625 -6.429688 5.207031 -5.617188 5.59375 -4.890625 C 5.988281 -4.160156 6.523438 -3.582031 7.203125 -3.15625 C 7.890625 -2.738281 8.644531 -2.53125 9.46875 -2.53125 C 10.789062 -2.53125 11.867188 -2.988281 12.703125 -3.90625 C 13.546875 -4.832031 13.96875 -5.972656 13.96875 -7.328125 C 13.96875 -8.691406 13.546875 -9.835938 12.703125 -10.765625 C 11.867188 -11.703125 10.789062 -12.171875 9.46875 -12.171875 C 8.613281 -12.171875 7.851562 -11.953125 7.1875 -11.515625 C 6.519531 -11.078125 5.988281 -10.488281 5.59375 -9.75 C 5.207031 -9.007812 5.015625 -8.203125 5.015625 -7.328125 Z M 5.015625 -7.328125 "/></g></g></g><g fill="#ffffff" fill-opacity="1"><g transform="translate(225.165129, 38.454454)"><g><path d="M 7.359375 0.59375 C 6.023438 0.59375 4.929688 0.191406 4.078125 -0.609375 C 3.222656 -1.421875 2.773438 -2.460938 2.734375 -3.734375 L 2.734375 -14.453125 L 6.21875 -14.453125 L 6.21875 -4.984375 C 6.269531 -4.222656 6.488281 -3.609375 6.875 -3.140625 C 7.269531 -2.679688 7.894531 -2.429688 8.75 -2.390625 C 9.53125 -2.390625 10.234375 -2.625 10.859375 -3.09375 C 11.484375 -3.5625 11.972656 -4.210938 12.328125 -5.046875 C 12.679688 -5.878906 12.859375 -6.8125 12.859375 -7.84375 L 12.859375 -14.453125 L 16.359375 -14.453125 L 16.359375 0 L 13.203125 0 L 12.9375 -3.390625 L 13.078125 -2.828125 C 12.628906 -1.835938 11.894531 -1.019531 10.875 -0.375 C 9.851562 0.269531 8.679688 0.59375 7.359375 0.59375 Z M 7.359375 0.59375 "/></g></g></g><g fill="#ffffff" fill-opacity="1"><g transform="translate(244.290036, 38.454454)"><g><path d="M 4.109375 -20.78125 L 7.640625 -20.78125 L 7.640625 -14.421875 L 11.515625 -14.421875 L 11.515625 -11.6875 L 7.640625 -11.6875 L 7.640625 0 L 4.109375 0 L 4.109375 -11.6875 L 1.5625 -11.6875 L 1.5625 -14.421875 L 4.109375 -14.421875 Z M 4.109375 -20.78125 "/></g></g></g><g fill="#ffffff" fill-opacity="1"><g transform="translate(256.91317, 38.454454)"><g/></g></g><g fill="#ffffff" fill-opacity="1"><g transform="translate(261.409076, 38.454454)"><g><path d="M 4.109375 -20.78125 L 7.640625 -20.78125 L 7.640625 -14.421875 L 11.515625 -14.421875 L 11.515625 -11.6875 L 7.640625 -11.6875 L 7.640625 0 L 4.109375 0 L 4.109375 -11.6875 L 1.5625 -11.6875 L 1.5625 -14.421875 L 4.109375 -14.421875 Z M 4.109375 -20.78125 "/></g></g></g><g fill="#ffffff" fill-opacity="1"><g transform="translate(274.03221, 38.454454)"><g><path d="M 2.734375 0 L 2.734375 -26.859375 L 6.15625 -26.859375 L 6.15625 -11.171875 L 6.078125 -11.75 C 6.585938 -12.695312 7.335938 -13.472656 8.328125 -14.078125 C 9.316406 -14.691406 10.503906 -15 11.890625 -15 C 13.253906 -15 14.375 -14.601562 15.25 -13.8125 C 16.125 -13.019531 16.570312 -11.976562 16.59375 -10.6875 L 16.59375 0 L 13.109375 0 L 13.109375 -9.46875 C 13.085938 -10.207031 12.867188 -10.8125 12.453125 -11.28125 C 12.035156 -11.757812 11.390625 -12.007812 10.515625 -12.03125 C 9.285156 -12.03125 8.257812 -11.515625 7.4375 -10.484375 C 6.625 -9.460938 6.21875 -8.171875 6.21875 -6.609375 L 6.21875 0 Z M 2.734375 0 "/></g></g></g><g fill="#ffffff" fill-opacity="1"><g transform="translate(293.39922, 38.454454)"><g><path d="M 9.515625 0.34375 C 7.847656 0.34375 6.414062 0.015625 5.21875 -0.640625 C 4.019531 -1.296875 3.097656 -2.207031 2.453125 -3.375 C 1.804688 -4.539062 1.484375 -5.859375 1.484375 -7.328125 C 1.484375 -8.753906 1.847656 -10.050781 2.578125 -11.21875 C 3.304688 -12.382812 4.28125 -13.3125 5.5 -14 C 6.71875 -14.695312 8.078125 -15.046875 9.578125 -15.046875 C 11.515625 -15.046875 13.125 -14.484375 14.40625 -13.359375 C 15.6875 -12.242188 16.546875 -10.671875 16.984375 -8.640625 L 5.1875 -4.5625 L 4.359375 -6.5625 L 13.828125 -10.03125 L 13.109375 -9.546875 C 12.828125 -10.285156 12.382812 -10.925781 11.78125 -11.46875 C 11.1875 -12.007812 10.375 -12.28125 9.34375 -12.28125 C 8.050781 -12.28125 6.992188 -11.832031 6.171875 -10.9375 C 5.347656 -10.050781 4.9375 -8.914062 4.9375 -7.53125 C 4.9375 -6.0625 5.375 -4.875 6.25 -3.96875 C 7.132812 -3.070312 8.242188 -2.625 9.578125 -2.625 C 10.203125 -2.625 10.800781 -2.734375 11.375 -2.953125 C 11.945312 -3.171875 12.488281 -3.46875 13 -3.84375 L 14.59375 -1.25 C 13.851562 -0.757812 13.039062 -0.367188 12.15625 -0.078125 C 11.269531 0.203125 10.390625 0.34375 9.515625 0.34375 Z M 9.515625 0.34375 "/></g></g></g><g fill="#ffffff" fill-opacity="1"><g transform="translate(311.555766, 38.454454)"><g/></g></g><g fill="#ffffff" fill-opacity="1"><g transform="translate(316.051705, 38.454454)"><g><path d="M 10.40625 -25.0625 C 13.175781 -25.0625 15.34375 -24.367188 16.90625 -22.984375 C 18.476562 -21.609375 19.265625 -19.675781 19.265625 -17.1875 C 19.265625 -16.195312 19.113281 -15.21875 18.8125 -14.25 C 18.507812 -13.28125 18.03125 -12.394531 17.375 -11.59375 C 16.71875 -10.800781 15.851562 -10.164062 14.78125 -9.6875 C 13.707031 -9.21875 12.398438 -8.984375 10.859375 -8.984375 L 7.15625 -8.984375 L 7.15625 0 L 3.5625 0 L 3.5625 -25.0625 Z M 10.828125 -12.515625 C 11.765625 -12.515625 12.550781 -12.671875 13.1875 -12.984375 C 13.820312 -13.296875 14.316406 -13.691406 14.671875 -14.171875 C 15.035156 -14.660156 15.289062 -15.171875 15.4375 -15.703125 C 15.582031 -16.234375 15.65625 -16.703125 15.65625 -17.109375 C 15.65625 -17.578125 15.582031 -18.066406 15.4375 -18.578125 C 15.289062 -19.097656 15.035156 -19.582031 14.671875 -20.03125 C 14.316406 -20.488281 13.835938 -20.859375 13.234375 -21.140625 C 12.640625 -21.429688 11.894531 -21.578125 11 -21.578125 L 7.15625 -21.578125 L 7.15625 -12.515625 Z M 10.828125 -12.515625 "/></g></g></g><g fill="#ffffff" fill-opacity="1"><g transform="translate(336.87123, 38.454454)"><g><path d="M 9.515625 0.34375 C 7.847656 0.34375 6.414062 0.015625 5.21875 -0.640625 C 4.019531 -1.296875 3.097656 -2.207031 2.453125 -3.375 C 1.804688 -4.539062 1.484375 -5.859375 1.484375 -7.328125 C 1.484375 -8.753906 1.847656 -10.050781 2.578125 -11.21875 C 3.304688 -12.382812 4.28125 -13.3125 5.5 -14 C 6.71875 -14.695312 8.078125 -15.046875 9.578125 -15.046875 C 11.515625 -15.046875 13.125 -14.484375 14.40625 -13.359375 C 15.6875 -12.242188 16.546875 -10.671875 16.984375 -8.640625 L 5.1875 -4.5625 L 4.359375 -6.5625 L 13.828125 -10.03125 L 13.109375 -9.546875 C 12.828125 -10.285156 12.382812 -10.925781 11.78125 -11.46875 C 11.1875 -12.007812 10.375 -12.28125 9.34375 -12.28125 C 8.050781 -12.28125 6.992188 -11.832031 6.171875 -10.9375 C 5.347656 -10.050781 4.9375 -8.914062 4.9375 -7.53125 C 4.9375 -6.0625 5.375 -4.875 6.25 -3.96875 C 7.132812 -3.070312 8.242188 -2.625 9.578125 -2.625 C 10.203125 -2.625 10.800781 -2.734375 11.375 -2.953125 C 11.945312 -3.171875 12.488281 -3.46875 13 -3.84375 L 14.59375 -1.25 C 13.851562 -0.757812 13.039062 -0.367188 12.15625 -0.078125 C 11.269531 0.203125 10.390625 0.34375 9.515625 0.34375 Z M 9.515625 0.34375 "/></g></g></g><g fill="#ffffff" fill-opacity="1"><g transform="translate(355.027776, 38.454454)"><g><path d="M 5.875 -14.453125 L 6.1875 -11.09375 L 6.046875 -11.578125 C 6.515625 -12.617188 7.257812 -13.445312 8.28125 -14.0625 C 9.300781 -14.6875 10.503906 -15 11.890625 -15 C 13.253906 -15 14.375 -14.601562 15.25 -13.8125 C 16.125 -13.019531 16.570312 -11.976562 16.59375 -10.6875 L 16.59375 0 L 13.109375 0 L 13.109375 -9.46875 C 13.085938 -10.207031 12.867188 -10.8125 12.453125 -11.28125 C 12.035156 -11.757812 11.390625 -12.007812 10.515625 -12.03125 C 9.285156 -12.03125 8.257812 -11.519531 7.4375 -10.5 C 6.625 -9.488281 6.21875 -8.191406 6.21875 -6.609375 L 6.21875 0 L 2.734375 0 L 2.734375 -14.453125 Z M 5.875 -14.453125 "/></g></g></g><g fill="#ffffff" fill-opacity="1"><g transform="translate(374.394785, 38.454454)"><g><path d="M 2.734375 -14.453125 L 6.21875 -14.453125 L 6.21875 0 L 2.734375 0 Z M 2.5625 -19.640625 C 2.5625 -20.171875 2.773438 -20.617188 3.203125 -20.984375 C 3.628906 -21.359375 4.09375 -21.546875 4.59375 -21.546875 C 5.101562 -21.546875 5.566406 -21.359375 5.984375 -20.984375 C 6.398438 -20.617188 6.609375 -20.171875 6.609375 -19.640625 C 6.609375 -19.066406 6.398438 -18.601562 5.984375 -18.25 C 5.566406 -17.90625 5.101562 -17.734375 4.59375 -17.734375 C 4.09375 -17.734375 3.628906 -17.90625 3.203125 -18.25 C 2.773438 -18.601562 2.5625 -19.066406 2.5625 -19.640625 Z M 2.5625 -19.640625 "/></g></g></g><g fill="#ffffff" fill-opacity="1"><g transform="translate(383.351999, 38.454454)"><g><path d="M 5.875 -14.453125 L 6.1875 -11.09375 L 6.046875 -11.578125 C 6.515625 -12.617188 7.257812 -13.445312 8.28125 -14.0625 C 9.300781 -14.6875 10.503906 -15 11.890625 -15 C 13.253906 -15 14.375 -14.601562 15.25 -13.8125 C 16.125 -13.019531 16.570312 -11.976562 16.59375 -10.6875 L 16.59375 0 L 13.109375 0 L 13.109375 -9.46875 C 13.085938 -10.207031 12.867188 -10.8125 12.453125 -11.28125 C 12.035156 -11.757812 11.390625 -12.007812 10.515625 -12.03125 C 9.285156 -12.03125 8.257812 -11.519531 7.4375 -10.5 C 6.625 -9.488281 6.21875 -8.191406 6.21875 -6.609375 L 6.21875 0 L 2.734375 0 L 2.734375 -14.453125 Z M 5.875 -14.453125 "/></g></g></g><g fill="#ffffff" fill-opacity="1"><g transform="translate(402.719009, 38.454454)"><g><path d="M 6.921875 0.3125 C 5.859375 0.3125 4.84375 0.125 3.875 -0.25 C 2.90625 -0.632812 2.085938 -1.1875 1.421875 -1.90625 L 2.90625 -3.90625 C 3.5 -3.332031 4.125 -2.894531 4.78125 -2.59375 C 5.445312 -2.289062 6.066406 -2.140625 6.640625 -2.140625 C 7.304688 -2.140625 7.890625 -2.269531 8.390625 -2.53125 C 8.898438 -2.800781 9.15625 -3.25 9.15625 -3.875 C 9.15625 -4.382812 8.988281 -4.773438 8.65625 -5.046875 C 8.320312 -5.328125 7.898438 -5.554688 7.390625 -5.734375 C 6.890625 -5.921875 6.351562 -6.097656 5.78125 -6.265625 C 4.570312 -6.648438 3.648438 -7.207031 3.015625 -7.9375 C 2.390625 -8.664062 2.078125 -9.523438 2.078125 -10.515625 C 2.078125 -11.273438 2.265625 -11.992188 2.640625 -12.671875 C 3.023438 -13.347656 3.609375 -13.898438 4.390625 -14.328125 C 5.171875 -14.753906 6.140625 -14.96875 7.296875 -14.96875 C 8.304688 -14.96875 9.210938 -14.847656 10.015625 -14.609375 C 10.828125 -14.367188 11.582031 -13.957031 12.28125 -13.375 L 10.921875 -11.265625 C 10.503906 -11.679688 10.015625 -12 9.453125 -12.21875 C 8.890625 -12.4375 8.378906 -12.5625 7.921875 -12.59375 C 7.296875 -12.59375 6.753906 -12.445312 6.296875 -12.15625 C 5.835938 -11.863281 5.609375 -11.476562 5.609375 -11 C 5.609375 -10.507812 5.765625 -10.117188 6.078125 -9.828125 C 6.398438 -9.546875 6.820312 -9.316406 7.34375 -9.140625 C 7.863281 -8.972656 8.390625 -8.796875 8.921875 -8.609375 C 9.984375 -8.265625 10.863281 -7.789062 11.5625 -7.1875 C 12.269531 -6.59375 12.625 -5.71875 12.625 -4.5625 C 12.625 -3.6875 12.414062 -2.878906 12 -2.140625 C 11.582031 -1.398438 10.953125 -0.804688 10.109375 -0.359375 C 9.273438 0.0859375 8.210938 0.3125 6.921875 0.3125 Z M 6.921875 0.3125 "/></g></g></g><g fill="#ffffff" fill-opacity="1"><g transform="translate(417.036778, 38.454454)"><g><path d="M 7.359375 0.59375 C 6.023438 0.59375 4.929688 0.191406 4.078125 -0.609375 C 3.222656 -1.421875 2.773438 -2.460938 2.734375 -3.734375 L 2.734375 -14.453125 L 6.21875 -14.453125 L 6.21875 -4.984375 C 6.269531 -4.222656 6.488281 -3.609375 6.875 -3.140625 C 7.269531 -2.679688 7.894531 -2.429688 8.75 -2.390625 C 9.53125 -2.390625 10.234375 -2.625 10.859375 -3.09375 C 11.484375 -3.5625 11.972656 -4.210938 12.328125 -5.046875 C 12.679688 -5.878906 12.859375 -6.8125 12.859375 -7.84375 L 12.859375 -14.453125 L 16.359375 -14.453125 L 16.359375 0 L 13.203125 0 L 12.9375 -3.390625 L 13.078125 -2.828125 C 12.628906 -1.835938 11.894531 -1.019531 10.875 -0.375 C 9.851562 0.269531 8.679688 0.59375 7.359375 0.59375 Z M 7.359375 0.59375 "/></g></g></g><g fill="#ffffff" fill-opacity="1"><g transform="translate(436.161701, 38.454454)"><g><path d="M 2.734375 -26.859375 L 6.21875 -26.859375 L 6.21875 0 L 2.734375 0 Z M 2.734375 -26.859375 "/></g></g></g><g fill="#ffffff" fill-opacity="1"><g transform="translate(445.118915, 38.454454)"><g><path d="M 8.78125 0.34375 C 7.425781 0.34375 6.191406 0.0546875 5.078125 -0.515625 C 3.972656 -1.097656 3.097656 -1.945312 2.453125 -3.0625 C 1.804688 -4.175781 1.484375 -5.566406 1.484375 -7.234375 C 1.484375 -8.835938 1.820312 -10.222656 2.5 -11.390625 C 3.1875 -12.554688 4.085938 -13.457031 5.203125 -14.09375 C 6.316406 -14.726562 7.535156 -15.046875 8.859375 -15.046875 C 10.234375 -15.046875 11.367188 -14.753906 12.265625 -14.171875 C 13.171875 -13.597656 13.863281 -12.910156 14.34375 -12.109375 L 14.140625 -11.546875 L 14.484375 -14.453125 L 17.703125 -14.453125 L 17.703125 0 L 14.21875 0 L 14.21875 -3.671875 L 14.5625 -2.796875 C 14.46875 -2.617188 14.269531 -2.351562 13.96875 -2 C 13.664062 -1.65625 13.269531 -1.304688 12.78125 -0.953125 C 12.300781 -0.597656 11.722656 -0.289062 11.046875 -0.03125 C 10.367188 0.21875 9.613281 0.34375 8.78125 0.34375 Z M 9.71875 -2.53125 C 10.875 -2.53125 11.847656 -2.832031 12.640625 -3.4375 C 13.429688 -4.050781 13.957031 -4.890625 14.21875 -5.953125 L 14.21875 -8.921875 C 13.9375 -9.867188 13.375 -10.648438 12.53125 -11.265625 C 11.6875 -11.890625 10.710938 -12.203125 9.609375 -12.203125 C 8.785156 -12.203125 8.023438 -12 7.328125 -11.59375 C 6.640625 -11.195312 6.085938 -10.632812 5.671875 -9.90625 C 5.253906 -9.175781 5.046875 -8.34375 5.046875 -7.40625 C 5.046875 -6.476562 5.257812 -5.644531 5.6875 -4.90625 C 6.113281 -4.164062 6.679688 -3.582031 7.390625 -3.15625 C 8.109375 -2.738281 8.882812 -2.53125 9.71875 -2.53125 Z M 9.71875 -2.53125 "/></g></g></g><g fill="#f27d00" fill-opacity="1"><g transform="translate(465.567104, 38.454454)"><g><path d="M 1.078125 -1.9375 C 1.078125 -2.488281 1.273438 -2.953125 1.671875 -3.328125 C 2.078125 -3.710938 2.523438 -3.90625 3.015625 -3.90625 C 3.472656 -3.90625 3.894531 -3.710938 4.28125 -3.328125 C 4.675781 -2.953125 4.875 -2.488281 4.875 -1.9375 C 4.875 -1.363281 4.675781 -0.894531 4.28125 -0.53125 C 3.894531 -0.175781 3.472656 0 3.015625 0 C 2.523438 0 2.078125 -0.175781 1.671875 -0.53125 C 1.273438 -0.894531 1.078125 -1.363281 1.078125 -1.9375 Z M 1.078125 -1.9375 "/></g></g></g></g></g></svg>