<svg xmlns="http://www.w3.org/2000/svg" xmlns:xlink="http://www.w3.org/1999/xlink" width="640" zoomAndPan="magnify" viewBox="0 0 480 149.999998" height="200" preserveAspectRatio="xMidYMid meet" version="1.0"><defs><g/><clipPath id="2679720e40"><path d="M 4.207031 86.488281 L 334.207031 86.488281 L 334.207031 90.988281 L 4.207031 90.988281 Z M 4.207031 86.488281 " clip-rule="nonzero"/></clipPath></defs><g clip-path="url(#2679720e40)"><path fill="#f27d00" d="M 4.460938 86.75 L 334.21875 86.75 L 334.21875 90.496094 L 4.460938 90.496094 Z M 4.460938 86.75 " fill-opacity="1" fill-rule="nonzero"/><path fill="#f27d00" d="M 334.476562 90.753906 L 4.207031 90.753906 L 4.207031 86.492188 L 334.476562 86.492188 Z M 4.714844 90.242188 L 333.964844 90.242188 L 333.964844 87.003906 L 4.714844 87.003906 Z M 4.714844 90.242188 " fill-opacity="1" fill-rule="nonzero"/></g><g fill="#000000" fill-opacity="1"><g transform="translate(4.216979, 76.880088)"><g><path d="M 5.84375 0 L 4.125 0 L 4.125 -32.28125 L 5.984375 -32.28125 L 17.25 -12.390625 L 28.484375 -32.28125 L 30.203125 -32.28125 L 30.203125 0 L 28.484375 0 L 28.484375 -28.859375 L 18.046875 -10.4375 L 16.421875 -10.4375 L 5.84375 -29.09375 Z M 5.84375 0 "/></g></g></g><g fill="#000000" fill-opacity="1"><g transform="translate(38.548932, 76.880088)"><g><path d="M 27.65625 -32.28125 L 27.65625 -30.578125 L 18 -30.578125 L 18 -1.71875 L 27.65625 -1.71875 L 27.65625 0 L 6.734375 0 L 6.734375 -1.71875 L 16.328125 -1.71875 L 16.328125 -30.578125 L 6.734375 -30.578125 L 6.734375 -32.28125 Z M 27.65625 -32.28125 "/></g></g></g><g fill="#000000" fill-opacity="1"><g transform="translate(72.880885, 76.880088)"><g><path d="M 7.1875 0 L 7.1875 -32.28125 L 8.90625 -32.28125 L 8.90625 -1.71875 L 31.40625 -1.71875 L 31.40625 0 Z M 7.1875 0 "/></g></g></g><g fill="#000000" fill-opacity="1"><g transform="translate(107.212838, 76.880088)"><g><path d="M 27.65625 -32.28125 L 27.65625 -30.578125 L 18 -30.578125 L 18 -1.71875 L 27.65625 -1.71875 L 27.65625 0 L 6.734375 0 L 6.734375 -1.71875 L 16.328125 -1.71875 L 16.328125 -30.578125 L 6.734375 -30.578125 L 6.734375 -32.28125 Z M 27.65625 -32.28125 "/></g></g></g><g fill="#000000" fill-opacity="1"><g transform="translate(141.544791, 76.880088)"><g><path d="M 30.203125 -32.28125 L 30.203125 -30.578125 L 18 -30.578125 L 18 0 L 16.328125 0 L 16.328125 -30.578125 L 4.125 -30.578125 L 4.125 -32.28125 Z M 30.203125 -32.28125 "/></g></g></g><g fill="#000000" fill-opacity="1"><g transform="translate(175.876744, 76.880088)"><g><path d="M 16.28125 -32.28125 L 18.09375 -32.28125 L 31.359375 0 L 29.5 0 L 25.140625 -10.671875 L 9.234375 -10.671875 L 4.828125 0 L 3.015625 0 Z M 9.921875 -12.34375 L 24.453125 -12.34375 L 17.171875 -30.0625 Z M 9.921875 -12.34375 "/></g></g></g><g fill="#000000" fill-opacity="1"><g transform="translate(210.208697, 76.880088)"><g><path d="M 24.171875 -31.21875 C 26.023438 -30.351562 27.484375 -29.066406 28.546875 -27.359375 C 29.617188 -25.660156 30.15625 -23.773438 30.15625 -21.703125 C 30.15625 -19.296875 29.421875 -17.140625 27.953125 -15.234375 C 26.484375 -13.335938 24.601562 -12.078125 22.3125 -11.453125 L 30.53125 0 L 28.484375 0 L 20.546875 -11.140625 L 19.0625 -11.09375 L 7.421875 -11.09375 L 7.421875 0 L 5.703125 0 L 5.703125 -32.28125 L 18 -32.28125 C 19.363281 -32.28125 20.53125 -32.195312 21.5 -32.03125 C 22.476562 -31.863281 23.367188 -31.59375 24.171875 -31.21875 Z M 19.53125 -12.796875 C 21.132812 -12.796875 22.617188 -13.195312 23.984375 -14 C 25.347656 -14.8125 26.429688 -15.894531 27.234375 -17.25 C 28.035156 -18.613281 28.4375 -20.097656 28.4375 -21.703125 C 28.4375 -23.503906 27.960938 -25.128906 27.015625 -26.578125 C 26.078125 -28.035156 24.773438 -29.117188 23.109375 -29.828125 C 21.898438 -30.328125 20.195312 -30.578125 18 -30.578125 L 7.421875 -30.578125 L 7.421875 -12.796875 Z M 19.53125 -12.796875 "/></g></g></g><g fill="#000000" fill-opacity="1"><g transform="translate(244.54065, 76.880088)"><g><path d="M 5.75 -32.28125 L 17.203125 -15.03125 L 28.578125 -32.28125 L 30.625 -32.28125 L 18.046875 -13.21875 L 18.046875 0 L 16.328125 0 L 16.328125 -13.21875 L 3.71875 -32.28125 Z M 5.75 -32.28125 "/></g></g></g><g fill="#000000" fill-opacity="1"><g transform="translate(4.20526, 117.660077)"><g><path d="M 22.4375 -2.125 C 22.101562 -1.84375 21.632812 -1.554688 21.03125 -1.265625 C 20.4375 -0.972656 19.765625 -0.710938 19.015625 -0.484375 C 18.273438 -0.253906 17.515625 -0.0703125 16.734375 0.0625 C 15.960938 0.195312 15.234375 0.265625 14.546875 0.265625 C 11.972656 0.265625 9.742188 -0.25 7.859375 -1.28125 C 5.972656 -2.3125 4.515625 -3.710938 3.484375 -5.484375 C 2.453125 -7.265625 1.9375 -9.285156 1.9375 -11.546875 C 1.9375 -13.617188 2.257812 -15.453125 2.90625 -17.046875 C 3.5625 -18.648438 4.46875 -19.992188 5.625 -21.078125 C 6.78125 -22.160156 8.09375 -22.984375 9.5625 -23.546875 C 11.039062 -24.117188 12.613281 -24.40625 14.28125 -24.40625 C 15.726562 -24.40625 17.0625 -24.238281 18.28125 -23.90625 C 19.5 -23.570312 20.5625 -23.148438 21.46875 -22.640625 L 20.3125 -19.40625 C 19.863281 -19.675781 19.3125 -19.925781 18.65625 -20.15625 C 18.007812 -20.394531 17.332031 -20.578125 16.625 -20.703125 C 15.925781 -20.835938 15.289062 -20.90625 14.71875 -20.90625 C 12.851562 -20.90625 11.234375 -20.539062 9.859375 -19.8125 C 8.484375 -19.082031 7.414062 -18.039062 6.65625 -16.6875 C 5.90625 -15.332031 5.53125 -13.722656 5.53125 -11.859375 C 5.53125 -10.148438 5.910156 -8.644531 6.671875 -7.34375 C 7.441406 -6.039062 8.507812 -5.023438 9.875 -4.296875 C 11.238281 -3.566406 12.820312 -3.203125 14.625 -3.203125 C 15.414062 -3.203125 16.191406 -3.273438 16.953125 -3.421875 C 17.722656 -3.578125 18.375 -3.8125 18.90625 -4.125 L 18.90625 -8.59375 L 14.21875 -8.59375 L 14.21875 -11.953125 L 22.4375 -11.953125 Z M 22.4375 -2.125 "/></g></g></g><g fill="#000000" fill-opacity="1"><g transform="translate(29.274892, 117.660077)"><g><path d="M 7.09375 0.5625 C 5.800781 0.5625 4.742188 0.175781 3.921875 -0.59375 C 3.109375 -1.375 2.675781 -2.375 2.625 -3.59375 L 2.625 -13.921875 L 6 -13.921875 L 6 -4.796875 C 6.039062 -4.066406 6.25 -3.476562 6.625 -3.03125 C 7 -2.582031 7.597656 -2.335938 8.421875 -2.296875 C 9.179688 -2.296875 9.859375 -2.519531 10.453125 -2.96875 C 11.054688 -3.425781 11.53125 -4.054688 11.875 -4.859375 C 12.21875 -5.660156 12.390625 -6.5625 12.390625 -7.5625 L 12.390625 -13.921875 L 15.75 -13.921875 L 15.75 0 L 12.71875 0 L 12.453125 -3.265625 L 12.59375 -2.734375 C 12.164062 -1.773438 11.457031 -0.984375 10.46875 -0.359375 C 9.476562 0.253906 8.351562 0.5625 7.09375 0.5625 Z M 7.09375 0.5625 "/></g></g></g><g fill="#000000" fill-opacity="1"><g transform="translate(47.685929, 117.660077)"><g><path d="M 8.453125 0.328125 C 7.148438 0.328125 5.960938 0.0507812 4.890625 -0.5 C 3.828125 -1.050781 2.984375 -1.863281 2.359375 -2.9375 C 1.742188 -4.019531 1.4375 -5.359375 1.4375 -6.953125 C 1.4375 -8.515625 1.757812 -9.851562 2.40625 -10.96875 C 3.0625 -12.09375 3.925781 -12.957031 5 -13.5625 C 6.082031 -14.175781 7.257812 -14.484375 8.53125 -14.484375 C 9.851562 -14.484375 10.945312 -14.203125 11.8125 -13.640625 C 12.6875 -13.085938 13.351562 -12.425781 13.8125 -11.65625 L 13.625 -11.125 L 13.953125 -13.921875 L 17.046875 -13.921875 L 17.046875 0 L 13.6875 0 L 13.6875 -3.53125 L 14.015625 -2.703125 C 13.929688 -2.523438 13.742188 -2.269531 13.453125 -1.9375 C 13.160156 -1.601562 12.78125 -1.265625 12.3125 -0.921875 C 11.851562 -0.578125 11.296875 -0.28125 10.640625 -0.03125 C 9.984375 0.207031 9.253906 0.328125 8.453125 0.328125 Z M 9.359375 -2.4375 C 10.460938 -2.4375 11.394531 -2.726562 12.15625 -3.3125 C 12.925781 -3.90625 13.4375 -4.710938 13.6875 -5.734375 L 13.6875 -8.59375 C 13.414062 -9.5 12.875 -10.25 12.0625 -10.84375 C 11.257812 -11.445312 10.320312 -11.75 9.25 -11.75 C 8.457031 -11.75 7.726562 -11.554688 7.0625 -11.171875 C 6.394531 -10.785156 5.859375 -10.238281 5.453125 -9.53125 C 5.054688 -8.832031 4.859375 -8.03125 4.859375 -7.125 C 4.859375 -6.238281 5.0625 -5.4375 5.46875 -4.71875 C 5.882812 -4.007812 6.4375 -3.453125 7.125 -3.046875 C 7.8125 -2.640625 8.554688 -2.4375 9.359375 -2.4375 Z M 9.359375 -2.4375 "/></g></g></g><g fill="#000000" fill-opacity="1"><g transform="translate(67.362098, 117.660077)"><g><path d="M 5.625 -13.921875 L 5.953125 -9.921875 L 5.828125 -10.453125 C 6.203125 -11.296875 6.726562 -12.015625 7.40625 -12.609375 C 8.082031 -13.210938 8.789062 -13.675781 9.53125 -14 C 10.28125 -14.320312 10.910156 -14.484375 11.421875 -14.484375 L 11.25 -11.15625 C 10.207031 -11.21875 9.289062 -11.015625 8.5 -10.546875 C 7.71875 -10.085938 7.101562 -9.46875 6.65625 -8.6875 C 6.21875 -7.914062 6 -7.082031 6 -6.1875 L 6 0 L 2.625 0 L 2.625 -13.921875 Z M 5.625 -13.921875 "/></g></g></g><g fill="#000000" fill-opacity="1"><g transform="translate(79.447333, 117.660077)"><g><path d="M 8.328125 0.328125 C 7.015625 0.328125 5.835938 0.0234375 4.796875 -0.578125 C 3.753906 -1.191406 2.929688 -2.0625 2.328125 -3.1875 C 1.734375 -4.320312 1.4375 -5.644531 1.4375 -7.15625 C 1.4375 -8.707031 1.753906 -10.023438 2.390625 -11.109375 C 3.035156 -12.203125 3.90625 -13.035156 5 -13.609375 C 6.101562 -14.191406 7.34375 -14.484375 8.71875 -14.484375 C 9.789062 -14.484375 10.804688 -14.265625 11.765625 -13.828125 C 12.734375 -13.398438 13.492188 -12.796875 14.046875 -12.015625 L 13.921875 -10.859375 L 13.921875 -25.875 L 17.28125 -25.875 L 17.28125 0 L 13.890625 0 L 13.890625 -3.328125 L 14.25 -2.4375 C 13.582031 -1.632812 12.742188 -0.972656 11.734375 -0.453125 C 10.722656 0.0664062 9.585938 0.328125 8.328125 0.328125 Z M 9.359375 -2.5 C 10.535156 -2.5 11.515625 -2.800781 12.296875 -3.40625 C 13.085938 -4.019531 13.617188 -4.835938 13.890625 -5.859375 L 13.890625 -8.625 C 13.640625 -9.550781 13.097656 -10.316406 12.265625 -10.921875 C 11.429688 -11.523438 10.460938 -11.828125 9.359375 -11.828125 C 8.554688 -11.828125 7.8125 -11.628906 7.125 -11.234375 C 6.4375 -10.847656 5.882812 -10.304688 5.46875 -9.609375 C 5.0625 -8.910156 4.859375 -8.101562 4.859375 -7.1875 C 4.859375 -6.320312 5.0625 -5.535156 5.46875 -4.828125 C 5.882812 -4.117188 6.4375 -3.550781 7.125 -3.125 C 7.8125 -2.707031 8.554688 -2.5 9.359375 -2.5 Z M 9.359375 -2.5 "/></g></g></g><g fill="#000000" fill-opacity="1"><g transform="translate(99.35655, 117.660077)"><g><path d="M 2.625 -13.921875 L 6 -13.921875 L 6 0 L 2.625 0 Z M 2.46875 -18.921875 C 2.46875 -19.429688 2.671875 -19.863281 3.078125 -20.21875 C 3.492188 -20.570312 3.941406 -20.75 4.421875 -20.75 C 4.910156 -20.75 5.351562 -20.570312 5.75 -20.21875 C 6.15625 -19.863281 6.359375 -19.429688 6.359375 -18.921875 C 6.359375 -18.359375 6.15625 -17.910156 5.75 -17.578125 C 5.351562 -17.253906 4.910156 -17.09375 4.421875 -17.09375 C 3.941406 -17.09375 3.492188 -17.253906 3.078125 -17.578125 C 2.671875 -17.910156 2.46875 -18.359375 2.46875 -18.921875 Z M 2.46875 -18.921875 "/></g></g></g><g fill="#000000" fill-opacity="1"><g transform="translate(107.979444, 117.660077)"><g><path d="M 8.453125 0.328125 C 7.148438 0.328125 5.960938 0.0507812 4.890625 -0.5 C 3.828125 -1.050781 2.984375 -1.863281 2.359375 -2.9375 C 1.742188 -4.019531 1.4375 -5.359375 1.4375 -6.953125 C 1.4375 -8.515625 1.757812 -9.851562 2.40625 -10.96875 C 3.0625 -12.09375 3.925781 -12.957031 5 -13.5625 C 6.082031 -14.175781 7.257812 -14.484375 8.53125 -14.484375 C 9.851562 -14.484375 10.945312 -14.203125 11.8125 -13.640625 C 12.6875 -13.085938 13.351562 -12.425781 13.8125 -11.65625 L 13.625 -11.125 L 13.953125 -13.921875 L 17.046875 -13.921875 L 17.046875 0 L 13.6875 0 L 13.6875 -3.53125 L 14.015625 -2.703125 C 13.929688 -2.523438 13.742188 -2.269531 13.453125 -1.9375 C 13.160156 -1.601562 12.78125 -1.265625 12.3125 -0.921875 C 11.851562 -0.578125 11.296875 -0.28125 10.640625 -0.03125 C 9.984375 0.207031 9.253906 0.328125 8.453125 0.328125 Z M 9.359375 -2.4375 C 10.460938 -2.4375 11.394531 -2.726562 12.15625 -3.3125 C 12.925781 -3.90625 13.4375 -4.710938 13.6875 -5.734375 L 13.6875 -8.59375 C 13.414062 -9.5 12.875 -10.25 12.0625 -10.84375 C 11.257812 -11.445312 10.320312 -11.75 9.25 -11.75 C 8.457031 -11.75 7.726562 -11.554688 7.0625 -11.171875 C 6.394531 -10.785156 5.859375 -10.238281 5.453125 -9.53125 C 5.054688 -8.832031 4.859375 -8.03125 4.859375 -7.125 C 4.859375 -6.238281 5.0625 -5.4375 5.46875 -4.71875 C 5.882812 -4.007812 6.4375 -3.453125 7.125 -3.046875 C 7.8125 -2.640625 8.554688 -2.4375 9.359375 -2.4375 Z M 9.359375 -2.4375 "/></g></g></g><g fill="#000000" fill-opacity="1"><g transform="translate(127.655613, 117.660077)"><g><path d="M 5.65625 -13.921875 L 5.953125 -10.6875 L 5.828125 -11.15625 C 6.273438 -12.15625 6.988281 -12.953125 7.96875 -13.546875 C 8.957031 -14.148438 10.117188 -14.453125 11.453125 -14.453125 C 12.765625 -14.453125 13.84375 -14.066406 14.6875 -13.296875 C 15.53125 -12.535156 15.960938 -11.53125 15.984375 -10.28125 L 15.984375 0 L 12.625 0 L 12.625 -9.125 C 12.601562 -9.832031 12.390625 -10.410156 11.984375 -10.859375 C 11.585938 -11.316406 10.96875 -11.5625 10.125 -11.59375 C 8.945312 -11.59375 7.960938 -11.101562 7.171875 -10.125 C 6.390625 -9.144531 6 -7.890625 6 -6.359375 L 6 0 L 2.625 0 L 2.625 -13.921875 Z M 5.65625 -13.921875 "/></g></g></g><g fill="#000000" fill-opacity="1"><g transform="translate(146.299697, 117.660077)"><g><path d="M 6.65625 0.296875 C 5.632812 0.296875 4.65625 0.113281 3.71875 -0.25 C 2.789062 -0.613281 2.003906 -1.140625 1.359375 -1.828125 L 2.796875 -3.765625 C 3.367188 -3.210938 3.972656 -2.789062 4.609375 -2.5 C 5.242188 -2.207031 5.835938 -2.0625 6.390625 -2.0625 C 7.035156 -2.0625 7.601562 -2.1875 8.09375 -2.4375 C 8.582031 -2.695312 8.828125 -3.128906 8.828125 -3.734375 C 8.828125 -4.222656 8.664062 -4.597656 8.34375 -4.859375 C 8.019531 -5.128906 7.613281 -5.351562 7.125 -5.53125 C 6.632812 -5.707031 6.113281 -5.875 5.5625 -6.03125 C 4.40625 -6.40625 3.519531 -6.941406 2.90625 -7.640625 C 2.300781 -8.335938 2 -9.164062 2 -10.125 C 2 -10.851562 2.179688 -11.546875 2.546875 -12.203125 C 2.910156 -12.859375 3.46875 -13.390625 4.21875 -13.796875 C 4.976562 -14.210938 5.914062 -14.421875 7.03125 -14.421875 C 8 -14.421875 8.875 -14.300781 9.65625 -14.0625 C 10.4375 -13.832031 11.160156 -13.441406 11.828125 -12.890625 L 10.515625 -10.859375 C 10.117188 -11.253906 9.648438 -11.554688 9.109375 -11.765625 C 8.566406 -11.984375 8.070312 -12.101562 7.625 -12.125 C 7.019531 -12.125 6.492188 -11.984375 6.046875 -11.703125 C 5.609375 -11.421875 5.390625 -11.050781 5.390625 -10.59375 C 5.390625 -10.125 5.546875 -9.75 5.859375 -9.46875 C 6.171875 -9.195312 6.578125 -8.976562 7.078125 -8.8125 C 7.578125 -8.644531 8.082031 -8.472656 8.59375 -8.296875 C 9.613281 -7.960938 10.460938 -7.503906 11.140625 -6.921875 C 11.816406 -6.347656 12.15625 -5.503906 12.15625 -4.390625 C 12.15625 -3.546875 11.953125 -2.769531 11.546875 -2.0625 C 11.148438 -1.351562 10.546875 -0.78125 9.734375 -0.34375 C 8.929688 0.0820312 7.90625 0.296875 6.65625 0.296875 Z M 6.65625 0.296875 "/></g></g></g><g fill="#000000" fill-opacity="1"><g transform="translate(160.083006, 117.660077)"><g/></g></g><g fill="#000000" fill-opacity="1"><g transform="translate(164.411093, 117.660077)"><g><path d="M 1.4375 -7.09375 C 1.4375 -8.488281 1.765625 -9.742188 2.421875 -10.859375 C 3.085938 -11.984375 4.007812 -12.867188 5.1875 -13.515625 C 6.363281 -14.160156 7.707031 -14.484375 9.21875 -14.484375 C 10.75 -14.484375 12.085938 -14.160156 13.234375 -13.515625 C 14.378906 -12.867188 15.265625 -11.984375 15.890625 -10.859375 C 16.523438 -9.742188 16.84375 -8.488281 16.84375 -7.09375 C 16.84375 -5.695312 16.519531 -4.4375 15.875 -3.3125 C 15.238281 -2.1875 14.347656 -1.296875 13.203125 -0.640625 C 12.054688 0.00390625 10.707031 0.328125 9.15625 0.328125 C 7.6875 0.328125 6.367188 0.03125 5.203125 -0.5625 C 4.046875 -1.164062 3.128906 -2.023438 2.453125 -3.140625 C 1.773438 -4.265625 1.4375 -5.582031 1.4375 -7.09375 Z M 4.828125 -7.0625 C 4.828125 -6.195312 5.015625 -5.410156 5.390625 -4.703125 C 5.765625 -4.003906 6.28125 -3.453125 6.9375 -3.046875 C 7.59375 -2.640625 8.320312 -2.4375 9.125 -2.4375 C 10.382812 -2.4375 11.421875 -2.878906 12.234375 -3.765625 C 13.046875 -4.648438 13.453125 -5.75 13.453125 -7.0625 C 13.453125 -8.375 13.046875 -9.476562 12.234375 -10.375 C 11.421875 -11.269531 10.382812 -11.71875 9.125 -11.71875 C 8.300781 -11.71875 7.566406 -11.503906 6.921875 -11.078125 C 6.273438 -10.660156 5.765625 -10.097656 5.390625 -9.390625 C 5.015625 -8.679688 4.828125 -7.90625 4.828125 -7.0625 Z M 4.828125 -7.0625 "/></g></g></g><g fill="#000000" fill-opacity="1"><g transform="translate(182.688954, 117.660077)"><g><path d="M 3.796875 0 L 3.796875 -10.921875 L 1.4375 -10.921875 L 1.4375 -13.921875 L 3.796875 -13.921875 L 3.796875 -19.609375 C 3.796875 -21.585938 4.265625 -23.125 5.203125 -24.21875 C 6.148438 -25.320312 7.535156 -25.875 9.359375 -25.875 C 9.847656 -25.875 10.382812 -25.800781 10.96875 -25.65625 C 11.5625 -25.507812 12.085938 -25.28125 12.546875 -24.96875 L 11.125 -22.546875 C 10.925781 -22.765625 10.695312 -22.910156 10.4375 -22.984375 C 10.1875 -23.066406 9.9375 -23.109375 9.6875 -23.109375 C 8.914062 -23.109375 8.300781 -22.832031 7.84375 -22.28125 C 7.382812 -21.738281 7.15625 -20.828125 7.15625 -19.546875 L 7.15625 -13.921875 L 11.546875 -13.921875 L 11.546875 -10.921875 L 7.15625 -10.921875 L 7.15625 0 Z M 3.796875 0 "/></g></g></g><g fill="#000000" fill-opacity="1"><g transform="translate(195.607597, 117.660077)"><g/></g></g><g fill="#000000" fill-opacity="1"><g transform="translate(199.935683, 117.660077)"><g/></g></g><g fill="#000000" fill-opacity="1"><g transform="translate(204.267749, 117.660077)"><g><path d="M 10.015625 -24.140625 C 12.679688 -24.140625 14.769531 -23.472656 16.28125 -22.140625 C 17.789062 -20.804688 18.546875 -18.941406 18.546875 -16.546875 C 18.546875 -15.585938 18.398438 -14.640625 18.109375 -13.703125 C 17.828125 -12.773438 17.367188 -11.925781 16.734375 -11.15625 C 16.097656 -10.394531 15.265625 -9.785156 14.234375 -9.328125 C 13.203125 -8.878906 11.941406 -8.65625 10.453125 -8.65625 L 6.890625 -8.65625 L 6.890625 0 L 3.421875 0 L 3.421875 -24.140625 Z M 10.421875 -12.046875 C 11.328125 -12.046875 12.085938 -12.195312 12.703125 -12.5 C 13.316406 -12.800781 13.796875 -13.179688 14.140625 -13.640625 C 14.484375 -14.109375 14.722656 -14.597656 14.859375 -15.109375 C 15.003906 -15.617188 15.078125 -16.078125 15.078125 -16.484375 C 15.078125 -16.921875 15.003906 -17.390625 14.859375 -17.890625 C 14.722656 -18.390625 14.484375 -18.851562 14.140625 -19.28125 C 13.796875 -19.71875 13.332031 -20.078125 12.75 -20.359375 C 12.175781 -20.640625 11.457031 -20.78125 10.59375 -20.78125 L 6.890625 -20.78125 L 6.890625 -12.046875 Z M 10.421875 -12.046875 "/></g></g></g><g fill="#000000" fill-opacity="1"><g transform="translate(224.31014, 117.660077)"><g><path d="M 9.15625 0.328125 C 7.5625 0.328125 6.1875 0.015625 5.03125 -0.609375 C 3.875 -1.242188 2.984375 -2.117188 2.359375 -3.234375 C 1.742188 -4.359375 1.4375 -5.632812 1.4375 -7.0625 C 1.4375 -8.4375 1.785156 -9.679688 2.484375 -10.796875 C 3.179688 -11.921875 4.117188 -12.816406 5.296875 -13.484375 C 6.472656 -14.148438 7.78125 -14.484375 9.21875 -14.484375 C 11.082031 -14.484375 12.628906 -13.941406 13.859375 -12.859375 C 15.097656 -11.785156 15.925781 -10.273438 16.34375 -8.328125 L 5 -4.390625 L 4.203125 -6.328125 L 13.3125 -9.65625 L 12.625 -9.1875 C 12.351562 -9.894531 11.925781 -10.507812 11.34375 -11.03125 C 10.769531 -11.5625 9.984375 -11.828125 8.984375 -11.828125 C 7.742188 -11.828125 6.726562 -11.394531 5.9375 -10.53125 C 5.15625 -9.675781 4.765625 -8.585938 4.765625 -7.265625 C 4.765625 -5.835938 5.1875 -4.691406 6.03125 -3.828125 C 6.875 -2.960938 7.9375 -2.53125 9.21875 -2.53125 C 9.820312 -2.53125 10.398438 -2.632812 10.953125 -2.84375 C 11.503906 -3.050781 12.023438 -3.335938 12.515625 -3.703125 L 14.046875 -1.203125 C 13.335938 -0.734375 12.554688 -0.359375 11.703125 -0.078125 C 10.847656 0.191406 10 0.328125 9.15625 0.328125 Z M 9.15625 0.328125 "/></g></g></g><g fill="#000000" fill-opacity="1"><g transform="translate(241.788963, 117.660077)"><g><path d="M 5.65625 -13.921875 L 5.953125 -10.6875 L 5.828125 -11.15625 C 6.273438 -12.15625 6.988281 -12.953125 7.96875 -13.546875 C 8.957031 -14.148438 10.117188 -14.453125 11.453125 -14.453125 C 12.765625 -14.453125 13.84375 -14.066406 14.6875 -13.296875 C 15.53125 -12.535156 15.960938 -11.53125 15.984375 -10.28125 L 15.984375 0 L 12.625 0 L 12.625 -9.125 C 12.601562 -9.832031 12.390625 -10.410156 11.984375 -10.859375 C 11.585938 -11.316406 10.96875 -11.5625 10.125 -11.59375 C 8.945312 -11.59375 7.960938 -11.101562 7.171875 -10.125 C 6.390625 -9.144531 6 -7.890625 6 -6.359375 L 6 0 L 2.625 0 L 2.625 -13.921875 Z M 5.65625 -13.921875 "/></g></g></g><g fill="#000000" fill-opacity="1"><g transform="translate(260.433047, 117.660077)"><g><path d="M 2.625 -13.921875 L 6 -13.921875 L 6 0 L 2.625 0 Z M 2.46875 -18.921875 C 2.46875 -19.429688 2.671875 -19.863281 3.078125 -20.21875 C 3.492188 -20.570312 3.941406 -20.75 4.421875 -20.75 C 4.910156 -20.75 5.351562 -20.570312 5.75 -20.21875 C 6.15625 -19.863281 6.359375 -19.429688 6.359375 -18.921875 C 6.359375 -18.359375 6.15625 -17.910156 5.75 -17.578125 C 5.351562 -17.253906 4.910156 -17.09375 4.421875 -17.09375 C 3.941406 -17.09375 3.492188 -17.253906 3.078125 -17.578125 C 2.671875 -17.910156 2.46875 -18.359375 2.46875 -18.921875 Z M 2.46875 -18.921875 "/></g></g></g><g fill="#000000" fill-opacity="1"><g transform="translate(269.055941, 117.660077)"><g><path d="M 5.65625 -13.921875 L 5.953125 -10.6875 L 5.828125 -11.15625 C 6.273438 -12.15625 6.988281 -12.953125 7.96875 -13.546875 C 8.957031 -14.148438 10.117188 -14.453125 11.453125 -14.453125 C 12.765625 -14.453125 13.84375 -14.066406 14.6875 -13.296875 C 15.53125 -12.535156 15.960938 -11.53125 15.984375 -10.28125 L 15.984375 0 L 12.625 0 L 12.625 -9.125 C 12.601562 -9.832031 12.390625 -10.410156 11.984375 -10.859375 C 11.585938 -11.316406 10.96875 -11.5625 10.125 -11.59375 C 8.945312 -11.59375 7.960938 -11.101562 7.171875 -10.125 C 6.390625 -9.144531 6 -7.890625 6 -6.359375 L 6 0 L 2.625 0 L 2.625 -13.921875 Z M 5.65625 -13.921875 "/></g></g></g><g fill="#000000" fill-opacity="1"><g transform="translate(287.700025, 117.660077)"><g><path d="M 6.65625 0.296875 C 5.632812 0.296875 4.65625 0.113281 3.71875 -0.25 C 2.789062 -0.613281 2.003906 -1.140625 1.359375 -1.828125 L 2.796875 -3.765625 C 3.367188 -3.210938 3.972656 -2.789062 4.609375 -2.5 C 5.242188 -2.207031 5.835938 -2.0625 6.390625 -2.0625 C 7.035156 -2.0625 7.601562 -2.1875 8.09375 -2.4375 C 8.582031 -2.695312 8.828125 -3.128906 8.828125 -3.734375 C 8.828125 -4.222656 8.664062 -4.597656 8.34375 -4.859375 C 8.019531 -5.128906 7.613281 -5.351562 7.125 -5.53125 C 6.632812 -5.707031 6.113281 -5.875 5.5625 -6.03125 C 4.40625 -6.40625 3.519531 -6.941406 2.90625 -7.640625 C 2.300781 -8.335938 2 -9.164062 2 -10.125 C 2 -10.851562 2.179688 -11.546875 2.546875 -12.203125 C 2.910156 -12.859375 3.46875 -13.390625 4.21875 -13.796875 C 4.976562 -14.210938 5.914062 -14.421875 7.03125 -14.421875 C 8 -14.421875 8.875 -14.300781 9.65625 -14.0625 C 10.4375 -13.832031 11.160156 -13.441406 11.828125 -12.890625 L 10.515625 -10.859375 C 10.117188 -11.253906 9.648438 -11.554688 9.109375 -11.765625 C 8.566406 -11.984375 8.070312 -12.101562 7.625 -12.125 C 7.019531 -12.125 6.492188 -11.984375 6.046875 -11.703125 C 5.609375 -11.421875 5.390625 -11.050781 5.390625 -10.59375 C 5.390625 -10.125 5.546875 -9.75 5.859375 -9.46875 C 6.171875 -9.195312 6.578125 -8.976562 7.078125 -8.8125 C 7.578125 -8.644531 8.082031 -8.472656 8.59375 -8.296875 C 9.613281 -7.960938 10.460938 -7.503906 11.140625 -6.921875 C 11.816406 -6.347656 12.15625 -5.503906 12.15625 -4.390625 C 12.15625 -3.546875 11.953125 -2.769531 11.546875 -2.0625 C 11.148438 -1.351562 10.546875 -0.78125 9.734375 -0.34375 C 8.929688 0.0820312 7.90625 0.296875 6.65625 0.296875 Z M 6.65625 0.296875 "/></g></g></g><g fill="#000000" fill-opacity="1"><g transform="translate(301.483334, 117.660077)"><g><path d="M 7.09375 0.5625 C 5.800781 0.5625 4.742188 0.175781 3.921875 -0.59375 C 3.109375 -1.375 2.675781 -2.375 2.625 -3.59375 L 2.625 -13.921875 L 6 -13.921875 L 6 -4.796875 C 6.039062 -4.066406 6.25 -3.476562 6.625 -3.03125 C 7 -2.582031 7.597656 -2.335938 8.421875 -2.296875 C 9.179688 -2.296875 9.859375 -2.519531 10.453125 -2.96875 C 11.054688 -3.425781 11.53125 -4.054688 11.875 -4.859375 C 12.21875 -5.660156 12.390625 -6.5625 12.390625 -7.5625 L 12.390625 -13.921875 L 15.75 -13.921875 L 15.75 0 L 12.71875 0 L 12.453125 -3.265625 L 12.59375 -2.734375 C 12.164062 -1.773438 11.457031 -0.984375 10.46875 -0.359375 C 9.476562 0.253906 8.351562 0.5625 7.09375 0.5625 Z M 7.09375 0.5625 "/></g></g></g><g fill="#000000" fill-opacity="1"><g transform="translate(319.894371, 117.660077)"><g><path d="M 2.625 -25.875 L 6 -25.875 L 6 0 L 2.625 0 Z M 2.625 -25.875 "/></g></g></g><g fill="#000000" fill-opacity="1"><g transform="translate(328.517264, 117.660077)"><g><path d="M 8.453125 0.328125 C 7.148438 0.328125 5.960938 0.0507812 4.890625 -0.5 C 3.828125 -1.050781 2.984375 -1.863281 2.359375 -2.9375 C 1.742188 -4.019531 1.4375 -5.359375 1.4375 -6.953125 C 1.4375 -8.515625 1.757812 -9.851562 2.40625 -10.96875 C 3.0625 -12.09375 3.925781 -12.957031 5 -13.5625 C 6.082031 -14.175781 7.257812 -14.484375 8.53125 -14.484375 C 9.851562 -14.484375 10.945312 -14.203125 11.8125 -13.640625 C 12.6875 -13.085938 13.351562 -12.425781 13.8125 -11.65625 L 13.625 -11.125 L 13.953125 -13.921875 L 17.046875 -13.921875 L 17.046875 0 L 13.6875 0 L 13.6875 -3.53125 L 14.015625 -2.703125 C 13.929688 -2.523438 13.742188 -2.269531 13.453125 -1.9375 C 13.160156 -1.601562 12.78125 -1.265625 12.3125 -0.921875 C 11.851562 -0.578125 11.296875 -0.28125 10.640625 -0.03125 C 9.984375 0.207031 9.253906 0.328125 8.453125 0.328125 Z M 9.359375 -2.4375 C 10.460938 -2.4375 11.394531 -2.726562 12.15625 -3.3125 C 12.925781 -3.90625 13.4375 -4.710938 13.6875 -5.734375 L 13.6875 -8.59375 C 13.414062 -9.5 12.875 -10.25 12.0625 -10.84375 C 11.257812 -11.445312 10.320312 -11.75 9.25 -11.75 C 8.457031 -11.75 7.726562 -11.554688 7.0625 -11.171875 C 6.394531 -10.785156 5.859375 -10.238281 5.453125 -9.53125 C 5.054688 -8.832031 4.859375 -8.03125 4.859375 -7.125 C 4.859375 -6.238281 5.0625 -5.4375 5.46875 -4.71875 C 5.882812 -4.007812 6.4375 -3.453125 7.125 -3.046875 C 7.8125 -2.640625 8.554688 -2.4375 9.359375 -2.4375 Z M 9.359375 -2.4375 "/></g></g></g></svg>